<?xml version="1.0" encoding="utf-8"?>
<!-- Generator: Adobe Illustrator 25.0.1, SVG Export Plug-In . SVG Version: 6.00 Build 0)  -->
<svg version="1.1" id="Camada_3" xmlns="http://www.w3.org/2000/svg" xmlns:xlink="http://www.w3.org/1999/xlink" x="0px" y="0px"
	 viewBox="0 0 411.6 411.6" style="enable-background:new 0 0 411.6 411.6;" xml:space="preserve">
<style type="text/css">
	.st0{fill:#0DD3BB;}
	.st1{fill:#FFFFFF;}
</style>
<g>
	<path class="st0" d="M270.2,218.2c8.1,4.4,15.4,5.8,20.5,4c4.2-1.4,6.7-3.7,8.6-8c3.8-8.6,0.7-20.8-7.5-29.3
		c-15.7-16.3-41.3-12-41.3,7C250.4,201.4,257.9,211.5,270.2,218.2z M275.6,194c2.7,0,4.8,2.2,4.8,4.8c0,2.7-2.2,4.8-4.8,4.8
		s-4.8-2.2-4.8-4.8S272.9,194,275.6,194z"/>
	<path class="st0" d="M203.1,208.7c7.5,0.8,8.2,0.8,15.7,0c10.8-1.2,16.5-4.4,19.6-11.1c1.7-3.4,1.9-4.7,1.5-8.3
		c-0.8-8.4-5.9-15.4-13.9-19.3c-18.8-9-40.8,0.2-44.1,18.3C180.2,198,189.9,207.3,203.1,208.7z M211.1,183.6c2.7,0,4.8,2.2,4.8,4.8
		s-2.2,4.8-4.8,4.8c-2.7,0-4.8-2.2-4.8-4.8S208.4,183.6,211.1,183.6z"/>
	<path class="st0" d="M205.8,8.4C96.8,8.4,8.4,96.8,8.4,205.8s88.4,197.4,197.4,197.4s197.4-88.4,197.4-197.4S314.8,8.4,205.8,8.4z
		 M215.7,77.1c5.4,5.6-0.5,14.6-7.6,11.5c-2.8-1.2-3.9-3.2-3.9-6.7C204.3,75.6,211.4,72.6,215.7,77.1z M362.1,181
		c-0.5-0.2-1.9,1.8-3.3,4.5c-1.3,2.7-4.2,7-6.3,9.7c-2.2,2.7-6.4,7.9-9.5,11.7c-5.8,7.1-9.2,13.3-9.2,16.6c0,3.1,1.2,2.3,2.1-1.4
		c1-4.1,5.1-10.5,11.9-18.3c2.9-3.3,6.7-8,8.4-10.5c1.8-2.4,3.2-4.3,3.2-4.2c-0.1,1.6-3.3,12.4-5.3,18.1c-1.4,3.9-3.1,10.3-3.8,14
		c-1.9,10.5-5.6,19.9-9.9,24.9c-2.9,3.4-1.5,4.4,1.5,1.1c4.1-4.6,10.2-20.3,10.2-26.4c0-1.1,1.4-5.8,3-10.6c1.7-4.8,4-12.3,5.1-16.7
		c1.2-4.4,1.9-6.6,1.7-4.9c-0.2,1.7-1.5,7.3-2.9,12.5c-1.4,5.2-3.6,14.2-4.8,20.1c-4.1,18.9-8.4,30.9-12.7,35.4
		c-2.5,2.5-5.9,2.7-8.6,0.5c-1-0.8-2.1-1.5-2.5-1.5c-0.3,0-1.8,2.2-3.1,4.8c-3.1,5.8-12.8,15.9-18.5,19.4c-3.4,2.1-7.6,4-12.4,5.7
		c5.8,1.7,9.1,3.7,9.1,5.7c0,7.4-42.4,13.4-94.7,13.4s-94.7-6-94.7-13.4c0-2.1,3.4-4.1,9.4-5.8c-4.8-1.7-9-3.6-12.3-5.6
		c-5.6-3.4-15.3-13.6-18.5-19.5c-1.4-2.6-2.9-4.7-3.1-4.7c-0.4,0-1.5,0.7-2.5,1.5c-8.3,6.7-15.9-7.3-22.9-42.7
		c-0.7-3.9-2.3-10.5-3.5-14.5c-1.2-4.1-2.3-9-2.6-10.9c-0.2-2,0.4-0.5,1.4,3.4c1,3.8,3.2,11.3,5,16.7c1.8,5.5,3.4,10.7,3.4,11.7
		c0,6.1,6.1,21.7,10.2,26.4c3,3.3,4.5,2.3,1.5-1.1c-4.2-5-8.8-16.7-9.9-25.3c-0.3-2.3-2-8.3-3.7-13.3c-1.8-5-3.5-10.6-4-12.5
		c-0.4-1.9-1-4.1-1.2-4.9c-0.2-0.8,0.7,0,2,1.9s5.5,7.1,9.3,11.6c8,9.6,10.9,14.1,12,18.6c0.9,3.6,2,4.2,2,1.2
		c0-3.3-3.4-9.5-9.2-16.6c-3.1-3.8-7.3-9-9.5-11.7c-2.1-2.7-5-7-6.3-9.7c-1.4-2.7-2.8-4.6-3.3-4.5c-2.1,0.8-1.9-9.8,0.2-12
		c0.6-0.6,1.5-0.9,2-0.7c1,0.5,1.4,1,5,9.5c2.6,6,6.4,12.1,15.1,24.2c2.9,3.9,6.2,9.2,7.5,11.5c1.3,2.4,2.9,4.4,3.4,4.4
		c1.2,0,1.1-0.5-0.7-3.8l-1.6-2.9l3.4-4.5c19.9-26.7,50.9-42.9,93.8-49c4.8-0.7,9.6-1.7,10.7-2.3c2.9-1.6,6.4-6.1,7.2-9.4
		c1.8-6.9,3-20.5,3.4-37c0.4-17.3,0.4-17.6,2-17.6c1.5,0,1.5,0.2,1.3,9.2c-0.3,11.3,1,31.4,2.4,40.4c2,12,5.1,14.6,19,16.6
		c42.9,6.1,73.9,22.3,93.8,49l3.4,4.5l-1.6,2.9c-1.8,3.3-1.9,3.8-0.6,3.8c0.4,0,2-2,3.3-4.4c1.3-2.3,4.7-7.6,7.5-11.5
		c8.6-12,12.4-18.2,15.1-24.2c3.7-8.5,4-9,5-9.5c0.5-0.2,1.5,0.1,2,0.7C364,171.1,364.2,181.8,362.1,181z"/>
	<path class="st0" d="M302.2,245.4c-12.3,3.9-29.3,4-59.1,0.5c-19.2-2.3-22.1-2.4-37-2c-9.8,0.2-20.7,1-27.8,2
		c-20.1,2.7-33.9,3.5-42.9,2.4c-4.3-0.5-9.8-1.4-12.1-2c-14-3.3,7.9,4.2,26.5,9.1c6.9,1.8,18.2,5.5,25.3,8.3
		c24.6,9.4,32.8,10.8,46.1,8.4c5.9-1.1,16.4-4.4,24.8-8c8.1-3.3,16.6-6.2,25.2-8.4c11.6-3,28-8.1,30.4-9.5
		C302.6,245.5,302.8,245.2,302.2,245.4z"/>
	<path class="st0" d="M131.7,222.4c3.1,1,10,0.2,14.9-1.9c17.1-7.1,27.8-21.4,24.8-33c-1.2-4.9-6.7-10.1-12.2-11.8
		c-14.6-4.4-32.1,6.4-37,22.6C118.8,209.9,122.5,219.3,131.7,222.4z M148.4,193.5c2.7,0,4.8,2.2,4.8,4.8c0,2.7-2.2,4.8-4.8,4.8
		s-4.8-2.2-4.8-4.8C143.5,195.7,145.7,193.5,148.4,193.5z"/>
	<path class="st1" d="M361.9,168.9c-0.6-0.6-1.5-0.9-2-0.7c-1,0.5-1.4,1-5,9.5c-2.6,6-6.4,12.1-15.1,24.2c-2.9,3.9-6.2,9.2-7.5,11.5
		c-1.3,2.4-2.9,4.4-3.3,4.4c-1.3,0-1.2-0.5,0.6-3.8l1.6-2.9l-3.4-4.5c-19.9-26.7-50.9-42.9-93.8-49c-13.9-2-17-4.6-19-16.6
		c-1.5-9.1-2.7-29.2-2.4-40.4c0.2-9,0.1-9.2-1.3-9.2c-1.5,0-1.5,0.3-2,17.6c-0.4,16.5-1.7,30.1-3.4,37c-0.9,3.3-4.3,7.8-7.2,9.4
		c-1.1,0.5-5.9,1.6-10.7,2.3c-43,6.1-73.9,22.3-93.8,49l-3.4,4.5l1.6,2.9c1.8,3.3,1.9,3.8,0.7,3.8c-0.5,0-2-2-3.4-4.4
		c-1.3-2.3-4.7-7.6-7.5-11.5c-8.6-12-12.4-18.2-15.1-24.2c-3.7-8.5-4-9-5-9.5c-0.5-0.2-1.5,0.1-2,0.7c-2.1,2.2-2.3,12.9-0.2,12
		c0.5-0.2,1.9,1.8,3.3,4.5c1.3,2.7,4.2,7,6.3,9.7c2.2,2.7,6.4,7.9,9.5,11.7c5.8,7.1,9.2,13.3,9.2,16.6c0,3-1.2,2.3-2-1.2
		c-1.1-4.5-4-8.9-12-18.6c-3.8-4.5-8-9.7-9.3-11.6s-2.3-2.7-2-1.9c0.2,0.8,0.8,3,1.2,4.9c0.5,1.9,2.3,7.5,4,12.5
		c1.7,5,3.4,11,3.7,13.3c1.1,8.6,5.7,20.3,9.9,25.3c2.9,3.4,1.5,4.4-1.5,1.1c-4.1-4.6-10.2-20.3-10.2-26.4c0-1.1-1.5-6.3-3.4-11.7
		c-1.8-5.4-4.1-12.9-5-16.7c-1-3.9-1.6-5.4-1.4-3.4c0.3,1.9,1.5,6.8,2.6,10.9c1.2,4.1,2.8,10.7,3.5,14.5c7,35.4,14.6,49.5,22.9,42.7
		c1-0.8,2.1-1.5,2.5-1.5c0.3,0,1.8,2.1,3.1,4.7c3.2,5.9,12.9,16.1,18.5,19.5c3.3,2,7.5,3.9,12.3,5.6c15.3-4.5,47.8-7.6,85.4-7.6
		c37.8,0,70.4,3.1,85.6,7.6c4.8-1.7,8.9-3.6,12.4-5.7c5.7-3.5,15.4-13.6,18.5-19.4c1.4-2.6,2.9-4.8,3.1-4.8c0.4,0,1.5,0.7,2.5,1.5
		c2.7,2.2,6.1,2,8.6-0.5c4.3-4.5,8.6-16.5,12.7-35.4c1.2-5.8,3.4-14.8,4.8-20.1c1.4-5.2,2.6-10.8,2.9-12.5c0.2-1.7-0.5,0.5-1.7,4.9
		c-1.2,4.4-3.4,11.9-5.1,16.7c-1.6,4.8-3,9.5-3,10.6c0,6.1-6.1,21.7-10.2,26.4c-3,3.3-4.5,2.3-1.5-1.1c4.2-5,8-14.5,9.9-24.9
		c0.7-3.7,2.4-10.1,3.8-14c2-5.7,5.3-16.5,5.3-18.1c0-0.2-1.5,1.7-3.2,4.2c-1.8,2.5-5.5,7.2-8.4,10.5c-6.7,7.8-10.9,14.2-11.9,18.3
		c-0.9,3.6-2.1,4.5-2.1,1.4c0-3.3,3.4-9.5,9.2-16.6c3.1-3.8,7.3-9,9.5-11.7c2.1-2.7,5-7,6.3-9.7c1.4-2.7,2.8-4.6,3.3-4.5
		C364.2,181.8,364,171.1,361.9,168.9z M291.7,184.9c8.2,8.5,11.3,20.8,7.5,29.3c-1.9,4.3-4.3,6.6-8.6,8c-5.1,1.8-12.4,0.4-20.5-4
		c-12.3-6.7-19.8-16.7-19.8-26.4C250.4,172.9,276,168.6,291.7,184.9z M181.9,188.3c3.3-18.2,25.2-27.3,44.1-18.3
		c8,3.9,13.1,10.9,13.9,19.3c0.4,3.6,0.1,4.8-1.5,8.3c-3.1,6.7-8.8,9.9-19.6,11.1c-7.5,0.8-8.1,0.8-15.7,0
		C189.9,207.3,180.2,198,181.9,188.3z M122.1,198.3c4.8-16.3,22.4-27,37-22.6c5.6,1.7,11,6.9,12.2,11.8c3,11.6-7.8,25.9-24.8,33
		c-4.8,2-11.8,2.9-14.9,1.9C122.5,219.3,118.8,209.9,122.1,198.3z M301.6,246.1c-2.3,1.4-18.7,6.6-30.4,9.5
		c-8.6,2.2-17.2,5.1-25.2,8.4c-8.4,3.6-18.9,6.9-24.8,8c-13.3,2.4-21.5,1-46.1-8.4c-7.1-2.7-18.4-6.4-25.3-8.3
		c-18.6-4.9-40.5-12.4-26.5-9.1c2.3,0.5,7.8,1.4,12.1,2c9,1.1,22.8,0.3,42.9-2.4c7.1-1,18-1.7,27.8-2c14.9-0.4,17.7-0.2,37,2
		c29.9,3.6,46.8,3.4,59.1-0.5C302.8,245.2,302.6,245.5,301.6,246.1z"/>
	<path class="st1" d="M208.1,88.7c7.1,3.1,13-5.9,7.6-11.5c-4.3-4.5-11.5-1.5-11.5,4.8C204.3,85.5,205.4,87.4,208.1,88.7z"/>
	<circle class="st1" cx="148.4" cy="198.3" r="4.8"/>
	<ellipse class="st1" cx="211.1" cy="188.4" rx="4.8" ry="4.8"/>
	<circle class="st1" cx="275.6" cy="198.9" r="4.8"/>
	<path class="st1" d="M125.3,285.4c-6,1.8-9.4,3.7-9.4,5.8c0,7.4,42.4,13.4,94.7,13.4s94.7-6,94.7-13.4c0-2-3.3-4-9.1-5.7
		c-15.2-4.5-47.8-7.6-85.6-7.6C173.1,277.9,140.6,281,125.3,285.4z"/>
</g>
</svg>
