<?xml version="1.0" encoding="utf-8"?>
<!-- Generator: Adobe Illustrator 25.0.1, SVG Export Plug-In . SVG Version: 6.00 Build 0)  -->
<svg version="1.1" id="Capa_1" xmlns="http://www.w3.org/2000/svg" xmlns:xlink="http://www.w3.org/1999/xlink" x="0px" y="0px"
	 viewBox="0 0 512.2 512.2" style="enable-background:new 0 0 512.2 512.2;" xml:space="preserve">
<style type="text/css">
	.st0{fill:#878A8C;}
</style>
<g>
	<g>
		<path class="st0" d="M479,283.9c-1.7-4-5.5-6.6-9.9-6.6H352.3V10.7c0-5.9-4.8-10.7-10.7-10.7H171c-5.9,0-10.7,4.8-10.7,10.7v266.7
			H43c-4.3,0-8.2,2.6-9.9,6.6c-1.6,4-0.7,8.6,2.3,11.6L248.2,509c2,2,4.7,3.1,7.6,3.1c2.8,0,5.5-1.1,7.6-3.1l213.4-213.5
			C479.8,292.5,480.7,287.9,479,283.9z"/>
	</g>
</g>
</svg>
