<?xml version="1.0" encoding="utf-8"?>
<!-- Generator: Adobe Illustrator 25.0.1, SVG Export Plug-In . SVG Version: 6.00 Build 0)  -->
<svg version="1.1" id="Camada_1" xmlns="http://www.w3.org/2000/svg" xmlns:xlink="http://www.w3.org/1999/xlink" x="0px" y="0px"
	 viewBox="0 0 512 512" style="enable-background:new 0 0 512 512;" xml:space="preserve">
<path style="fill:#878A8C;" d="M319.997,277.336c-11.797,0-21.332,9.559-21.332,21.332v85.335c0,11.754-9.558,21.332-21.336,21.332
	H213.33V85.338c0-18.219-11.605-34.496-29.054-40.554l-6.316-2.113h99.37c11.777,0,21.336,9.578,21.336,21.336v63.999
	c0,11.773,9.535,21.332,21.332,21.332s21.332-9.558,21.332-21.332V64.006c0-35.285-28.715-63.999-63.999-63.999H48
	c-0.812,0-1.492,0.363-2.281,0.469c-1.027-0.086-2.008-0.469-3.051-0.469C19.137,0.007,0,19.139,0,42.67v383.996
	c0,18.219,11.605,34.496,29.054,40.554l128.385,42.796c4.352,1.344,8.68,1.984,13.226,1.984c23.531,0,42.664-19.136,42.664-42.668
	v-21.332h63.999c35.285,0,63.999-28.715,63.999-63.999v-85.335C341.328,286.894,331.793,277.336,319.997,277.336z"/>
<path style="fill:#878A8C;" d="M505.745,198.255l-85.335-85.331c-6.098-6.101-15.273-7.937-23.25-4.633
	c-7.957,3.309-13.164,11.094-13.164,19.715v63.999h-85.331c-11.777,0-21.336,9.555-21.336,21.332s9.559,21.332,21.336,21.332h85.331
	v63.999c0,8.621,5.207,16.406,13.164,19.715c7.976,3.305,17.152,1.469,23.25-4.629l85.335-85.335
	C514.085,220.078,514.085,206.594,505.745,198.255z"/>
</svg>
