<?xml version="1.0" encoding="utf-8"?>
<!-- Generator: Adobe Illustrator 25.0.0, SVG Export Plug-In . SVG Version: 6.00 Build 0)  -->
<svg version="1.1" xmlns="http://www.w3.org/2000/svg" xmlns:xlink="http://www.w3.org/1999/xlink" x="0px" y="0px"
	 viewBox="0 0 520 520" enable-background="new 0 0 520 520" xml:space="preserve">
<g id="Layer_2">
	<path fill="#66C7F4" d="M516,260c0,141.387-114.613,256-256,256S4,401.387,4,260S118.613,4,260,4S516,118.613,516,260z"/>
</g>
<g id="Layer_3">
	<g>
		<g>
			<circle fill="#FFFFFF" cx="385.568" cy="149.939" r="10.692"/>
		</g>
	</g>
	<g>
		<g>
			<path fill="#FFFFFF" d="M423.369,112.142c-20.583-20.583-54.559-18.765-72.81,3.968L246.507,242.131l-6.804-6.804
				c-20.843-20.843-54.758-20.843-75.601,0l-30.244,30.244c-4.167,4.167-10.948,4.166-15.117-0.004
				c-4.179-4.179-4.179-10.941,0-15.12c4.176-4.175,4.176-10.944,0-15.119c-4.174-4.175-10.944-4.175-15.12,0
				c-0.012,0.012-0.024,0.024-0.036,0.036l-15.084,15.084c-20.891,20.89-20.894,54.707,0,75.601
				c3.594,3.594,84.827,84.827,90.721,90.721c20.89,20.892,54.706,20.894,75.6,0l45.361-45.361c20.89-20.89,20.895-54.707,0-75.601
				l-6.804-6.804L419.404,184.95C442.098,166.727,443.985,132.758,423.369,112.142z M239.703,401.65
				c-12.535,12.534-32.824,12.537-45.361,0l-0.021-0.021c11.079-1.565,21.758-6.597,30.261-15.099c4.175-4.175,4.175-10.945,0-15.12
				c-4.174-4.175-10.944-4.175-15.12,0c-12.505,12.505-32.852,12.505-45.357,0.004l-15.144-15.144
				c11.079-1.565,21.758-6.596,30.261-15.099c4.175-4.175,4.175-10.945,0-15.12c-4.175-4.176-10.945-4.175-15.12,0
				c-12.503,12.504-32.85,12.506-45.357,0.004l-15.124-15.124c-10.404-10.404-12.005-25.893-5.625-37.8
				c1.472,2.747,3.358,5.293,5.625,7.56c12.507,12.505,32.854,12.505,45.358,0.002l22.683-22.683
				c1.147,1.147,99.338,99.338,105.841,105.841L239.703,401.65z M291.34,347.444c-11.719-11.719-92.994-92.994-103.262-103.261
				c11.92-5.68,26.648-3.592,36.505,6.265c15.251,15.251,46.26,46.261,60.481,60.481C295.114,320.978,296.932,335.76,291.34,347.444
				z M405.976,168.309c-0.043,0.034-0.086,0.069-0.129,0.104L278.191,273.815l-16.495-16.495l105.402-127.657
				c0.036-0.043,0.071-0.086,0.104-0.128c10.377-12.971,29.518-13.803,41.048-2.273C419.776,138.789,418.95,157.93,405.976,168.309z
				"/>
		</g>
	</g>
	<g>
		<g>
			<path fill="#FFFFFF" d="M169.71,133.063c-17.686,0-32.075,14.389-32.075,32.075s14.389,32.074,32.075,32.074
				s32.074-14.389,32.074-32.074C201.785,147.451,187.397,133.063,169.71,133.063z M169.71,175.829
				c-5.896,0-10.692-4.796-10.692-10.692s4.796-10.692,10.692-10.692s10.692,4.796,10.692,10.692
				C180.402,171.032,175.606,175.829,169.71,175.829z"/>
		</g>
	</g>
	<g>
		<g>
			<path fill="#FFFFFF" d="M394.233,282.744c-11.791,0-21.383,9.593-21.383,21.383s9.593,21.383,21.383,21.383
				s21.383-9.593,21.383-21.383S406.024,282.744,394.233,282.744z"/>
		</g>
	</g>
	<g>
		<g>
			<path fill="#FFFFFF" d="M362.159,389.66h-10.692v-10.692c0-5.905-4.787-10.692-10.692-10.692
				c-5.905,0-10.692,4.787-10.692,10.692v10.692h-10.692c-5.905,0-10.692,4.787-10.692,10.692c0,5.905,4.787,10.692,10.692,10.692
				h10.692v10.692c0,5.905,4.787,10.692,10.692,10.692c5.905,0,10.692-4.787,10.692-10.692v-10.692h10.692
				c5.905,0,10.692-4.787,10.692-10.692C372.851,394.446,368.063,389.66,362.159,389.66z"/>
		</g>
	</g>
</g>
</svg>
