<?xml version="1.0" encoding="utf-8"?>
<!-- Generator: Adobe Illustrator 25.0.0, SVG Export Plug-In . SVG Version: 6.00 Build 0)  -->
<svg version="1.1" xmlns="http://www.w3.org/2000/svg" xmlns:xlink="http://www.w3.org/1999/xlink" x="0px" y="0px"
	 viewBox="0 0 520 520" enable-background="new 0 0 520 520" xml:space="preserve">
<g id="Layer_2">
</g>
<g id="Layer_4">
	<g>
		<path fill="#66C7F4" d="M260,4C118.613,4,4,118.613,4,260s114.613,256,256,256s256-114.613,256-256S401.387,4,260,4z
			 M414.137,170.301c-3.592,4.983-9.405,7.961-15.55,7.961h-4.944l-19.654,243.028c-1.458,18.036-16.764,32.164-34.841,32.164
			H184.337c-18.08,0-33.383-14.128-34.844-32.161l-19.654-243.031h-8.929c-6.146,0-11.958-2.978-15.55-7.964
			c-3.592-4.986-4.578-11.441-2.633-17.271l8.543-25.608c3.253-9.753,12.348-16.306,22.629-16.306h71.796V87.737
			c0-11.684,9.502-21.192,21.18-21.192h65.75c11.681,0,21.18,9.508,21.18,21.192v23.376h71.799c10.278,0,19.373,6.553,22.626,16.306
			l8.543,25.608C418.716,158.857,417.73,165.316,414.137,170.301z"/>
		<rect x="228.364" y="89.216" fill="#66C7F4" width="62.769" height="21.897"/>
		<path fill="#66C7F4" d="M385.602,133.784H133.898c-0.511,0-0.962,0.325-1.122,0.809l-7.005,21h267.957l-7.005-21
			C386.561,134.108,386.112,133.784,385.602,133.784z"/>
		<path fill="#66C7F4" d="M172.092,419.463c0.514,6.349,5.892,11.32,12.244,11.32h154.811c6.352,0,11.731-4.971,12.244-11.32
			l19.506-241.201H152.583L172.092,419.463z M304.508,406.75l10.642-204.335c0.328-6.252,5.644-11.064,11.911-10.73
			c6.249,0.325,11.055,5.659,10.73,11.911L327.146,407.93c-0.313,6.051-5.319,10.745-11.309,10.745
			c-0.201,0-0.399-0.003-0.599-0.015C308.986,418.336,304.183,413.002,304.508,406.75z M248.54,203.005
			c0-6.261,5.074-11.335,11.335-11.335c6.261,0,11.335,5.074,11.335,11.335V407.34c0,6.261-5.074,11.335-11.335,11.335
			c-6.261,0-11.335-5.074-11.335-11.335V203.005z M192.41,191.688c6.252-0.342,11.595,4.448,11.934,10.701l11.149,204.335
			c0.339,6.252-4.451,11.595-10.701,11.934c-0.21,0.012-0.422,0.018-0.629,0.018c-5.978,0-10.978-4.676-11.309-10.718
			L181.71,203.622C181.37,197.37,186.161,192.027,192.41,191.688z"/>
		<path fill="#FFFFFF" d="M408.228,127.419c-3.253-9.753-12.348-16.306-22.626-16.306h-71.799V87.737
			c0-11.684-9.499-21.192-21.18-21.192h-65.75c-11.678,0-21.18,9.508-21.18,21.192v23.376h-71.796
			c-10.281,0-19.376,6.553-22.629,16.306l-8.543,25.608c-1.945,5.83-0.959,12.286,2.633,17.271c3.592,4.986,9.405,7.964,15.55,7.964
			h8.929l19.654,243.031c1.461,18.033,16.764,32.161,34.844,32.161h154.811c18.077,0,33.383-14.128,34.841-32.164l19.654-243.028
			h4.944c6.146,0,11.958-2.978,15.55-7.961c3.592-4.986,4.578-11.444,2.633-17.274L408.228,127.419z M228.364,89.216h62.769v21.897
			h-62.769V89.216z M351.392,419.463c-0.514,6.349-5.892,11.32-12.244,11.32H184.337c-6.352,0-11.731-4.971-12.244-11.32
			l-19.509-241.201h218.315L351.392,419.463z M125.772,155.592l7.005-21c0.159-0.484,0.611-0.809,1.122-0.809h251.704
			c0.511,0,0.959,0.325,1.122,0.809l7.005,21H125.772z"/>
		<path fill="#FFFFFF" d="M315.238,418.66c0.201,0.012,0.398,0.015,0.599,0.015c5.989,0,10.996-4.693,11.309-10.745l10.644-204.335
			c0.325-6.252-4.481-11.586-10.73-11.911c-6.267-0.334-11.583,4.478-11.911,10.73L304.508,406.75
			C304.183,413.002,308.986,418.336,315.238,418.66z"/>
		<path fill="#FFFFFF" d="M192.856,407.957c0.331,6.042,5.331,10.718,11.309,10.718c0.207,0,0.419-0.006,0.629-0.018
			c6.249-0.339,11.04-5.682,10.701-11.934l-11.149-204.335c-0.339-6.252-5.682-11.043-11.934-10.701
			c-6.249,0.339-11.04,5.682-10.701,11.934L192.856,407.957z"/>
		<path fill="#FFFFFF" d="M259.875,418.675c6.261,0,11.335-5.074,11.335-11.335V203.005c0-6.261-5.074-11.335-11.335-11.335
			c-6.261,0-11.335,5.074-11.335,11.335V407.34C248.54,413.601,253.614,418.675,259.875,418.675z"/>
	</g>
</g>
</svg>
