<?xml version="1.0" encoding="utf-8"?>
<!-- Generator: Adobe Illustrator 25.0.0, SVG Export Plug-In . SVG Version: 6.00 Build 0)  -->
<svg version="1.1" id="Layer_1" xmlns="http://www.w3.org/2000/svg" xmlns:xlink="http://www.w3.org/1999/xlink" x="0px" y="0px"
	 viewBox="0 0 512 512" enable-background="new 0 0 512 512" xml:space="preserve">
<g>
	<path fill="#66C7F4" d="M256,0C114.613,0,0,114.613,0,256s114.613,256,256,256s256-114.613,256-256S397.387,0,256,0z
		 M425.375,322.797l-65.926,92.086c-0.16,0.227-0.328,0.449-0.504,0.664c-6.277,7.816-15.613,12.68-25.617,13.344
		c-0.789,0.055-1.582,0.082-2.371,0.082c-9.18,0-18.102-3.543-24.789-9.906l-42.555-40.859c-5.977-5.738-6.168-15.234-0.43-21.211
		s15.23-6.168,21.207-0.43l42.508,40.816c1.594,1.516,3.469,1.641,4.438,1.574c0.926-0.063,2.645-0.402,4.035-1.977l65.613-91.645
		c4.82-6.738,14.191-8.289,20.926-3.469C428.648,306.691,430.199,316.063,425.375,322.797z M425.48,237.543
		c-4.738,6.797-14.09,8.461-20.883,3.723c-16.563-11.551-36.035-17.66-56.316-17.66c-25.773,0-49.832,9.719-68.262,27.461
		c-1.531,16.926-9.137,32.117-20.625,43.375c8.563,3.535,16.773,7.996,24.496,13.383c6.793,4.738,8.461,14.09,3.723,20.883
		c-4.742,6.797-14.094,8.461-20.887,3.723c-16.563-11.555-36.035-17.66-56.316-17.66c-43.605,0-83.102,28.109-96.047,68.359
		c-1.152,3.586-0.539,7.387,1.676,10.43c2.219,3.039,5.648,4.785,9.41,4.785h115.895c8.281,0,14.996,6.719,14.996,15
		c0,8.285-6.715,15-15,15H125.449c-13.461,0-25.727-6.238-33.656-17.117c-7.926-10.879-10.109-24.469-5.988-37.285
		c11.813-36.723,40.441-65.68,75.91-79.781c-12.73-12.621-20.629-30.109-20.629-49.406c0-38.387,31.23-69.617,69.617-69.617
		c28.465,0,52.977,17.18,63.758,41.711c7.891-5.566,16.328-10.18,25.188-13.793c-12.766-12.625-20.691-30.137-20.691-49.465
		c0-38.387,31.23-69.617,69.617-69.617s69.613,31.23,69.613,69.617c0,19.445-8.023,37.047-20.926,49.688
		c8.563,3.535,16.773,7.996,24.496,13.383C428.555,221.398,430.219,230.75,425.48,237.543z"/>
	<path fill="#66C7F4" d="M348.574,113.973c-21.844,0-39.613,17.77-39.613,39.613s17.77,39.617,39.613,39.617
		s39.613-17.773,39.613-39.617S370.418,113.973,348.574,113.973z"/>
	<path fill="#66C7F4" d="M210.703,205.137c-21.844,0-39.613,17.77-39.613,39.617c0,21.844,17.77,39.613,39.613,39.613
		s39.617-17.77,39.617-39.613C250.32,222.906,232.547,205.137,210.703,205.137z"/>
	<path fill="#FFFFFF" d="M421.758,216.66c-7.723-5.387-15.934-9.848-24.496-13.383c12.902-12.641,20.926-30.242,20.926-49.688
		c0-38.387-31.227-69.617-69.613-69.617s-69.617,31.23-69.617,69.617c0,19.328,7.926,36.84,20.691,49.465
		c-8.859,3.613-17.297,8.227-25.188,13.793c-10.781-24.531-35.293-41.711-63.758-41.711c-38.387,0-69.617,31.23-69.617,69.617
		c0,19.297,7.898,36.785,20.629,49.406c-35.469,14.102-64.098,43.059-75.91,79.781c-4.121,12.816-1.938,26.406,5.988,37.285
		c7.93,10.879,20.195,17.117,33.656,17.117H241.34c8.285,0,15-6.715,15-15c0-8.281-6.715-15-14.996-15H125.449
		c-3.762,0-7.191-1.746-9.41-4.785c-2.215-3.043-2.828-6.844-1.676-10.43c12.945-40.25,52.441-68.359,96.047-68.359
		c20.281,0,39.754,6.105,56.316,17.66c6.793,4.738,16.145,3.074,20.887-3.723c4.738-6.793,3.07-16.145-3.723-20.883
		c-7.723-5.387-15.934-9.848-24.496-13.383c11.488-11.258,19.094-26.449,20.625-43.375c18.43-17.742,42.488-27.461,68.262-27.461
		c20.281,0,39.754,6.109,56.316,17.66c6.793,4.738,16.145,3.074,20.883-3.723C430.219,230.75,428.555,221.398,421.758,216.66z
		 M210.703,284.367c-21.844,0-39.613-17.77-39.613-39.613c0-21.848,17.77-39.617,39.613-39.617s39.617,17.77,39.617,39.617
		C250.32,266.598,232.547,284.367,210.703,284.367z M348.574,193.203c-21.844,0-39.613-17.773-39.613-39.617
		s17.77-39.613,39.613-39.613s39.613,17.77,39.613,39.613S370.418,193.203,348.574,193.203z"/>
	<path fill="#FFFFFF" d="M421.91,301.867c-6.734-4.82-16.105-3.27-20.926,3.469l-65.613,91.645
		c-1.391,1.574-3.109,1.914-4.035,1.977c-0.969,0.066-2.844-0.059-4.438-1.574l-42.508-40.816
		c-5.977-5.738-15.469-5.547-21.207,0.43s-5.547,15.473,0.43,21.211l42.555,40.859c6.688,6.363,15.609,9.906,24.789,9.906
		c0.789,0,1.582-0.027,2.371-0.082c10.004-0.664,19.34-5.527,25.617-13.344c0.176-0.215,0.344-0.438,0.504-0.664l65.926-92.086
		C430.199,316.063,428.648,306.691,421.91,301.867z"/>
</g>
</svg>
