<?xml version="1.0" encoding="utf-8"?>
<!-- Generator: Adobe Illustrator 25.0.0, SVG Export Plug-In . SVG Version: 6.00 Build 0)  -->
<svg version="1.1" id="Layer_1" xmlns="http://www.w3.org/2000/svg" xmlns:xlink="http://www.w3.org/1999/xlink" x="0px" y="0px"
	 viewBox="0 0 512.002 512.002" enable-background="new 0 0 512.002 512.002" xml:space="preserve">
<g>
	<path fill="#FCECC9" d="M51.542,491.856L320.19,367.65c-2.524-2.619-4.553-5.538-6.034-8.74c-0.199-0.431-0.361-0.877-0.54-1.316
		L46.554,481.067L51.542,491.856z"/>
	<path fill="#F7D084" d="M243.15,380.213L42.761,472.861l3.793,8.206l267.062-123.472c-1.148-2.824-1.897-5.807-2.209-8.938
		l-40.524,18.736c-1.176,0.544-2.413,0.801-3.628,0.801c-3.261,0-6.382-1.852-7.849-4.999l-12.02,5.557
		C249.37,373.086,247.481,378.211,243.15,380.213z"/>
	<path fill="#E01957" d="M354.783,355.574c-9.189-19.874,13.037-50.247,33.872-64.263c-1.917-0.312-3.848-0.476-5.776-0.476
		c-5.186,0-10.354,1.127-15.202,3.368c-9.96,4.604-21.96,15.439-29.863,26.963c-8.366,12.2-11.263,23.308-7.948,30.479
		c3.315,7.171,13.654,12.16,28.368,13.689c1.785,0.185,3.605,0.309,5.443,0.379C359.762,363.01,356.67,359.658,354.783,355.574z"/>
	<path fill="#FF1053" d="M415.822,311.905c-4.066-8.795-11.313-15.479-20.406-18.823c-2.217-0.815-4.48-1.4-6.761-1.771
		c-20.835,14.017-43.06,44.389-33.872,64.263c1.887,4.084,4.979,7.436,8.894,10.139c12.473,0.474,25.764-1.649,34.443-5.663
		c8.795-4.066,15.479-11.313,18.823-20.406C420.287,330.55,419.888,320.701,415.822,311.905z"/>
	<path fill="#FF1053" d="M445.402,94.05c-24.052-34.396-58.384-58.99-76.474-70.467C365.191,81.387,339.751,105.192,319,124.61
		c-18.337,17.158-32.819,30.711-32.075,63.446c0.654,28.758,18.855,51.562,49.936,62.566c0.278,0.099,1.014,0.361,1.745-0.482
		c0.54-0.622,0.624-1.3,0.249-2.016c-12.689-24.239-25.444-70.655,31.705-109.197c2.589-1.747,5.919-1.962,8.714-0.564
		c2.794,1.399,4.617,4.194,4.771,7.314c1.064,21.544,10.719,32.97,20.942,45.067c9.53,11.279,19.386,22.941,19.386,41.495
		c0,4.362-0.269,8.557-0.801,12.467c-0.086,0.634,0.142,1.154,0.68,1.548c0.39,0.284,1.017,0.547,1.787,0.182
		c18.362-8.716,41.113-26.379,45.224-61.032c2.402-20.241-0.542-40.595-8.752-60.493c-1.706-4.135,0.029-8.831,3.879-10.912
		c-2.888-6.01-6.138-11.799-9.661-17.36C452.897,98.795,447.976,97.733,445.402,94.05z"/>
	<path d="M401.391,276.833c-13.435-4.94-27.988-4.352-40.979,1.655c-12.935,5.98-27.065,18.581-36.874,32.887
		c-3.9,5.688-6.874,11.296-8.93,16.727l-50.993,23.576c-4.34,2.006-6.23,7.15-4.224,11.49c0.004,0.009,0.01,0.017,0.015,0.026
		c1.468,3.147,4.588,4.999,7.849,4.999c1.215,0,2.452-0.257,3.628-0.801l40.524-18.736c0.312,3.131,1.062,6.114,2.209,8.938
		c0.178,0.439,0.341,0.885,0.54,1.316c1.481,3.202,3.51,6.121,6.034,8.74L51.542,491.856l-4.988-10.789l-3.793-8.206l200.389-92.648
		c4.331-2.002,6.22-7.127,4.235-11.461c-0.004-0.009-0.007-0.019-0.011-0.029c-2.006-4.34-7.15-6.232-11.49-4.224l-208.246,96.28
		c-4.34,2.006-6.23,7.15-4.224,11.49l16.047,34.709c0.963,2.083,2.716,3.7,4.87,4.492c0.966,0.355,1.977,0.532,2.987,0.532
		c1.243,0,2.483-0.268,3.632-0.799l286.974-132.679c5.467,1.951,11.666,3.317,18.524,4.029c3.607,0.375,7.278,0.557,10.949,0.557
		c13.89,0,27.761-2.617,37.992-7.346c12.992-6.006,22.867-16.713,27.806-30.147c4.939-13.434,4.351-27.988-1.655-40.979
		C425.531,291.648,414.825,281.773,401.391,276.833z M398.12,360.05c-8.679,4.014-21.97,6.137-34.443,5.663
		c-1.838-0.07-3.658-0.194-5.443-0.379c-14.714-1.529-25.053-6.518-28.368-13.689c-3.315-7.171-0.418-18.279,7.948-30.479
		c7.903-11.524,19.903-22.359,29.863-26.963c4.848-2.241,10.016-3.368,15.202-3.368c1.928,0,3.858,0.164,5.776,0.476
		c2.281,0.371,4.544,0.956,6.761,1.771c9.093,3.344,16.34,10.028,20.406,18.823c4.066,8.796,4.465,18.645,1.121,27.739
		C413.599,348.737,406.915,355.984,398.12,360.05z"/>
	<path d="M478.515,118.309c-1.824-4.419-6.885-6.524-11.303-4.701c-0.284,0.117-0.557,0.249-0.822,0.391
		c-3.851,2.081-5.585,6.776-3.879,10.912c8.21,19.898,11.154,40.252,8.752,60.493c-4.111,34.653-26.862,52.316-45.224,61.032
		c-0.77,0.365-1.397,0.102-1.787-0.182c-0.538-0.394-0.766-0.914-0.68-1.548c0.532-3.91,0.801-8.105,0.801-12.467
		c0-18.554-9.856-30.216-19.386-41.495c-10.223-12.097-19.878-23.523-20.942-45.067c-0.154-3.12-1.977-5.915-4.771-7.314
		c-2.795-1.398-6.125-1.183-8.714,0.564c-57.149,38.542-44.394,84.958-31.705,109.197c0.375,0.716,0.291,1.394-0.249,2.016
		c-0.731,0.843-1.467,0.581-1.745,0.482c-31.081-11.004-49.282-33.808-49.936-62.566c-0.744-32.735,13.738-46.288,32.075-63.446
		c20.751-19.418,46.191-43.223,49.928-101.027c18.09,11.477,52.422,36.071,76.474,70.467c2.574,3.683,7.495,4.745,11.328,2.589
		c0.247-0.139,0.49-0.29,0.726-0.455c3.918-2.74,4.873-8.137,2.134-12.054C423.331,32.279,367.152,2.252,364.778,1
		c-2.684-1.416-5.913-1.324-8.51,0.242c-2.598,1.566-4.186,4.379-4.186,7.413c0,61.287-22.832,82.652-44.912,103.314
		c-18.915,17.7-38.474,36.002-37.554,76.481c0.826,36.346,23.229,64.955,61.467,78.491c2.086,0.739,4.228,1.096,6.345,1.096
		c5.368,0,10.571-2.305,14.259-6.557c5.192-5.987,6.176-14.381,2.507-21.389c-15.681-29.953-10.714-56.208,14.734-78.212
		c4.422,18.244,14.446,30.106,22.837,40.036c8.547,10.114,15.297,18.102,15.297,30.321c0,3.584-0.217,6.993-0.644,10.135
		c-0.937,6.893,1.983,13.735,7.618,17.855c5.661,4.14,13.107,4.846,19.429,1.847c31.528-14.965,51.058-41.472,54.992-74.633
		C491.21,164.234,487.865,140.973,478.515,118.309z"/>
</g>
</svg>
