<?xml version="1.0" encoding="utf-8"?>
<!-- Generator: Adobe Illustrator 25.0.0, SVG Export Plug-In . SVG Version: 6.00 Build 0)  -->
<svg version="1.1" id="Capa_1" xmlns="http://www.w3.org/2000/svg" xmlns:xlink="http://www.w3.org/1999/xlink" x="0px" y="0px"
	 viewBox="0 0 680 680" enable-background="new 0 0 680 680" xml:space="preserve">
<g>
	<g>
		<g>
			<path fill="#62BCAF" d="M340,8C162.993,8,19.5,153.955,19.5,334S162.993,660,340,660s320.5-145.955,320.5-326S517.007,8,340,8z
				 M395.441,492.635c-15.611,13.304-33.295,28.375-51.678,44.451c-2.423,2.121-5.535,3.289-8.763,3.289s-6.34-1.168-8.763-3.29
				c-18.381-16.074-36.066-31.145-51.668-44.442C182.691,414.346,122,362.627,122,287.033c0-69.971,48.647-122.736,113.156-122.736
				c23.116,0,44.31,7.325,62.991,21.773c17.909,13.85,29.833,31.491,36.853,44.32c7.02-12.828,18.944-30.47,36.853-44.321
				c18.681-14.447,39.874-21.773,62.991-21.773c64.509,0,113.156,52.765,113.156,122.736
				C548,362.627,487.309,414.346,395.441,492.635z"/>
		</g>
	</g>
	<path fill="#FFFFFF" d="M434.844,164.297c-23.116,0-44.31,7.325-62.991,21.773c-17.909,13.85-29.833,31.492-36.853,44.32
		c-7.02-12.829-18.944-30.47-36.853-44.321c-18.681-14.447-39.874-21.773-62.991-21.773C170.647,164.297,122,217.062,122,287.033
		c0,75.593,60.691,127.313,152.569,205.61c15.602,13.297,33.287,28.368,51.668,44.442c2.423,2.122,5.535,3.29,8.763,3.29
		s6.34-1.168,8.763-3.289c18.383-16.077,36.067-31.147,51.678-44.451C487.309,414.346,548,362.627,548,287.033
		C548,217.062,499.353,164.297,434.844,164.297z"/>
</g>
</svg>
