<?xml version="1.0" encoding="utf-8"?>
<!-- Generator: Adobe Illustrator 25.0.0, SVG Export Plug-In . SVG Version: 6.00 Build 0)  -->
<svg version="1.1" xmlns="http://www.w3.org/2000/svg" xmlns:xlink="http://www.w3.org/1999/xlink" x="0px" y="0px"
	 viewBox="0 0 470 470" enable-background="new 0 0 470 470" xml:space="preserve">
<g id="Layer_1">
</g>
<g id="Layer_3">
	<g>
		<path fill="#FE039D" d="M332.654,137.962c12.748,16.663,21.027,36.422,23.859,57.398h3.102v-51.931
			c-4.869-1.402-8.711-5.117-10.302-9.9c-4.271,1.635-9.045,3.088-12.671,3.679C335.811,137.363,334.303,137.638,332.654,137.962z
			 M355.949,158.556c0.278-0.186,0.743,0.743,1.021,2.135c0.371,1.299,0.464,2.599,0.278,2.877
			c-0.278,0.186-0.743-0.743-1.021-2.135C355.856,160.134,355.764,158.834,355.949,158.556z"/>
		<path fill="#FE039D" d="M465.198,143.334c-6.312-29.795-14.109-46.874-31.28-68.408c-14.201-17.821-39.17-34.715-59.962-40.562
			c-16.708-4.641-22.555-5.476-40.098-5.476c-17.636-0.093-21.627,0.557-38.52,5.662c-17.357,5.198-34.715,16.336-50.772,32.487
			l-8.632,8.632l-8.539-8.632c-20.142-20.142-37.592-29.888-65.716-36.571c-9.653-2.228-37.128-2.32-47.988,0
			c-25.154,5.291-41.583,13.18-60.611,28.96C40.362,70.099,28.481,85.507,20.127,102.4c-6.405,13.088-9.004,20.606-12.067,34.529
			c-6.126,28.217-4.084,61.168,5.569,86.23c11.602,30.445,30.074,56.62,63.582,90.221c21.998,21.998,35.55,34.158,94.212,84.466
			c50.958,43.625,44.739,38.613,51.237,41.305c4.641,1.949,6.59,2.228,14.201,2.042c12.345-0.464,15.222-2.042,37.592-21.256
			c10.21-8.818,28.774-24.783,41.305-35.457c66.088-56.62,92.263-82.053,113.612-110.084c15.408-20.049,29.702-48.174,33.044-64.603
			c0.557-3.063,1.949-9.096,2.97-13.459C468.168,184.453,468.076,156.792,465.198,143.334z M265.635,60.353l3.063-2.228l1.671,2.135
			c1.021,1.299,1.764,2.692,1.764,3.249c0,1.021-3.063,1.299-5.569,0.371c-0.743-0.186-1.949-0.65-2.692-0.835
			C262.944,62.766,263.501,61.931,265.635,60.353z M29.873,127.647c0.557,0,0.928,0.65,0.928,1.392s-0.371,1.392-0.928,1.392
			c-0.464,0-0.928-0.65-0.928-1.392S29.409,127.647,29.873,127.647z M121.857,329.345c-0.743,0.743-1.021,0.278-1.021-1.671
			c0.093-2.413,0.186-2.599,1.021-1.114C122.6,327.859,122.6,328.602,121.857,329.345z M456.844,193.456
			c0,0.307-0.201,0.582-0.503,0.771c-0.303,1.868-0.622,3.696-0.956,5.425c-0.083,0.597-0.223,1.298-0.424,2.107
			c-0.295,1.412-0.597,2.74-0.903,3.95c-0.624,2.458-1.329,4.916-2.099,7.377c-0.254,1.083-0.51,1.881-0.784,2.429
			c-0.835,2.512-1.739,5.026-2.727,7.543c-0.263,0.781-0.528,1.464-0.834,2.065c-9.959,24.351-27.068,48.914-51.477,74.057
			c-13.088,13.366-13.552,13.645-27.475,15.965c-3.341,0.464-7.426,1.207-9.004,1.485c-1.856,0.278-3.063,1.021-3.063,1.764
			c0,1.671-2.692,1.856-3.249,0.279c-0.371-0.928-3.249-1.114-11.046-0.928c-1.736,0.05-3.506,0.053-5.292,0.035
			c-5.637,2.536-11.352,4.853-17.101,7.03l12.136,28.189c0.028,0.064,0.054,0.129,0.078,0.195c0.275,0.738,0.316,1.5,0.186,2.223
			c2.01,1.236-4.247,6.757-33.263,31.757c-50.68,43.625-49.844,42.883-55.135,44.461c-5.662,1.671-10.767,1.671-16.336,0
			c-2.599-0.835-7.054-3.713-11.695-7.611c-22.277-18.657-84.837-72.864-84.837-73.421c0.093-0.371,3.527-3.249,7.704-6.312
			c4.341-3.244,8.368-6.097,12.181-8.613l4.048-9.394c-7.47-2.707-14.834-5.708-22.066-9.014c-0.995-0.456-1.947-0.973-2.88-1.516
			c-0.479,1.33-0.596,1.356-1.121,0.042c-0.088-0.264-0.124-0.531-0.135-0.793c-4.224-2.714-7.723-6.318-10.315-10.493
			c-9.832,5.054-19.213,9.92-21.202,10.915l-3.527,1.856l-14.109-14.294c-7.704-7.89-15.13-15.594-16.429-17.079
			c-2.1-2.424-4.139-4.871-6.129-7.331c-0.014-0.017-0.026-0.031-0.039-0.048c-15.672-19.381-27.821-39.684-34.487-57.874
			c-0.011-0.03-0.021-0.061-0.032-0.091l-0.061,0.091l-0.928-2.599c-2.281-5.932-5.155-18.311-6.345-26.029
			c-2.075-12.847-2.592-25.544-1.174-35.418c0.835-6.033,2.32-7.333,16.522-14.758c5.569-2.877,10.21-5.569,10.303-6.033
			c0.186-0.371,0.65-0.557,1.114-0.279c0.371,0.186,4.177-1.021,8.539-2.785c17.636-7.054,46.41-13.552,66.552-14.944
			c8.354-0.557,9.282-0.835,9.746-2.599c0.557-1.764,0.743-1.764,1.764-0.464c0.835,1.114,4.548,1.671,16.708,2.506
			c4.51,0.321,8.776,0.732,12.862,1.228c16.904-14.335,37.135-23.492,58.347-26.978c-5.348-3.843-9.779-6.379-10.598-5.901
			c-0.557,0.278-0.65,0.186-0.278-0.186c0.928-1.021-3.434-3.713-16.058-10.117c-5.711-2.894-11.815-5.486-17.754-7.6
			c-7.238-2.47-14.576-4.26-22.516-5.542c-2.422-0.291-6.683-0.806-9.828-1.242c-3.846-0.306-7.781-0.39-11.734-0.258
			c-6.65,0.314-14.066,1.189-18.921,2.389c-12.345,3.063-20.049,5.384-21.349,6.497c-0.743,0.743-2.042,1.207-2.785,1.207
			c-1.373-0.022-4.108,0.834-7.629,2.271c-4.254,1.961-7.288,3.355-9.464,4.313c-6.28,3.092-13.278,6.911-19.427,10.655
			c-3.998,2.523-8.02,5.171-10.27,6.826c-0.28,0.21-0.563,0.421-0.827,0.625c-1.949,1.485-3.713,2.506-3.898,2.32
			c-0.297-0.26,1.009-2.492,3.066-5.509c2.683-4.081,6.417-9.25,8.258-11.199c0.17-0.17,0.339-0.332,0.507-0.487
			c0.954-1.165,1.881-2.26,2.741-3.226c0.784-0.886,1.614-1.776,2.463-2.666c1.087-1.37,2.511-2.796,3.765-3.755
			c8.662-8.24,19.532-16.112,29.414-21.054c8.075-4.084,23.762-9.189,33.322-10.767c10.953-1.949,30.259-1.856,41.398,0
			c16.336,2.785,32.765,9.932,46.781,20.142c6.395,4.734,21.773,19.492,24.939,23.744l0.122,0.111l-0.052-0.019
			c0.331,0.453,0.517,0.782,0.517,0.947c0,0.464,1.207,2.135,2.785,3.806l1.838,2.091c0.532-0.005,1.064,0.002,1.596,0.004
			l0.015-0.019c0.217-0.343,0.462-0.672,0.729-0.963l0.048-0.05l0.602-0.785c1.207-1.485,4.548-5.476,7.426-8.911l5.384-6.219
			l5.848,2.692c3.156,1.392,8.447,3.156,11.602,3.713c10.489,2.135,19.956-1.578,23.019-9.004c1.671-3.991,1.578-12.809-0.186-17.45
			c-0.743-2.042-1.671-4.363-1.856-5.198c-0.65-1.856,13.273-6.683,25.061-8.725c3.824-0.665,8.797-1.076,14.089-1.249
			c0.893-0.128,2.329-0.145,4.644-0.089c8.13-0.052,16.455,0.431,22.201,1.431c0.762,0.134,1.577,0.298,2.414,0.475
			c4.169,0.696,7.515,1.55,9.7,2.481c7.78,2.272,16.06,5.266,21.209,7.811c0.576,0.293,1.166,0.606,1.76,0.927
			c0.001,0.001,0.002,0.001,0.003,0.002c0.004,0.002,0.007,0.004,0.011,0.006c0.107,0.058,0.211,0.111,0.318,0.17
			c0.656,0.349,1.29,0.704,1.892,1.058c3.023,1.731,6.207,3.752,9.376,5.931c1.529,0.808,3.116,1.917,3.903,2.767
			c5.825,4.27,11.325,8.911,15.316,13.088l3.713,3.806l-2.599,2.32c-2.32,1.949-3.527,2.228-10.21,2.228h-7.611l-1.578,4.455
			c-1.278,3.535-3.232,7.269-5.664,10.999c-3.239,5.165-7.121,10.089-8.85,11.233c-0.674,0.724-1.361,1.438-2.061,2.143
			c-0.323,0.9-2.267,2.701-5.359,4.977c-1.523,1.298-3.08,2.531-4.66,3.689c1.031,1.412,1.851,3.013,2.363,4.792
			c2.343,8.138-2.355,16.634-10.493,18.977v49.53c1.858-1.085,3.771-2.212,5.765-3.4c8.168-4.919,16.058-9.375,17.357-10.025
			c1.671-0.743,2.506-1.856,2.506-3.249c0-2.599,1.485-3.713,2.506-1.764c0.65,1.114,2.413,0.65,11.231-3.249
			c5.755-2.599,11.602-4.919,13.088-5.198c2.135-0.464,2.599-0.928,2.228-2.599c-0.371-1.856-0.371-1.856,0.928-0.278
			c1.207,1.485,1.764,1.485,7.24,0.186c6.683-1.578,21.813-1.856,25.34-0.464c2.32,0.835,2.413,1.207,2.413,7.797
			c0,5.425-0.901,14.22-2.175,22.366C456.727,193.185,456.844,193.307,456.844,193.456z M41.847,116.973
			c1.392-0.835,3.249,0.743,2.785,2.228c-0.279,0.743-0.928,0.65-2.135-0.186C41.197,118.087,41.011,117.53,41.847,116.973z
			 M46.952,95.346c0.928-0.186,1.856-0.093,2.135,0.093c0.186,0.278,0.279,1.207,0.093,2.135c-0.278,1.485-0.371,1.485-2.042-0.186
			C45.467,95.717,45.467,95.624,46.952,95.346z M62.267,82.722c1.207-0.835,6.683,1.392,6.312,2.506
			c-0.186,0.557-1.114,1.485-2.135,2.135c-1.392,0.928-2.042,0.928-3.156,0.093C61.617,86.157,61.06,83.465,62.267,82.722z
			 M92.062,103.05c0.093-2.413,0.186-2.599,1.021-1.114c0.743,1.299,0.743,2.042,0,2.785S92.062,104.999,92.062,103.05z
			 M423.522,85.878c-0.557,0-1.114-0.371-1.485-0.835c-0.557-1.021,0.835-2.135,1.764-1.299
			C424.636,84.579,424.45,85.878,423.522,85.878z M399.296,124.862c-0.743-0.464-1.021-1.114-0.65-1.485s1.207-0.186,1.764,0.371
			C401.802,125.141,401.06,125.976,399.296,124.862z M392.984,139.435c-1.392-3.156-1.392-3.434-0.186-3.434
			c0.557,0,0.928,0.928,0.928,2.135c0,1.114,0.65,2.877,1.392,3.806c1.392,1.764,1.114,3.341-0.557,3.341
			c-0.557,0-0.835-0.743-0.743-1.578C393.913,142.777,393.541,140.827,392.984,139.435z M390.478,121.15
			c-1.671-1.856-1.485-3.527,0.278-2.413c0.743,0.464,2.228,4.27,1.671,4.27C392.242,123.006,391.406,122.171,390.478,121.15z
			 M391.128,133.402c-0.835,0.835-1.114,0.65-1.114-1.114c0-1.764,0.278-1.949,1.114-1.114S391.963,132.566,391.128,133.402z
			 M386.301,124.862c1.114,1.021,1.856,2.135,1.671,2.506c-0.093,0.464-1.485-0.371-2.877-1.856
			c-2.413-2.32-2.692-4.363-0.557-4.363c0.557,0,0.65,0.464,0.371,1.021C384.538,122.635,385.187,123.934,386.301,124.862z
			 M380.454,141.199c-0.279,0.278-0.743,0.093-1.021-0.464c-0.371-0.557-1.207-0.743-1.949-0.371
			c-1.578,0.557-1.949-1.114-0.464-2.042C378.04,137.672,381.289,140.456,380.454,141.199z M373.028,146.211
			c-1.392,0-2.506-0.371-2.506-0.835c0-1.764,2.042-2.135,3.527-0.65C375.441,146.118,375.349,146.211,373.028,146.211z"/>
		<path fill="#F56B95" d="M329.637,358.649c-9.746,3.638-19.805,6.84-29.896,9.506c-20.959,5.74-42.57,8.754-64.3,8.968
			c-21.72-0.213-43.322-3.214-64.278-8.929c-9.94-2.627-20.009-5.834-29.925-9.533c-0.067-0.025-0.133-0.051-0.198-0.08
			c-2.151-0.928-3.142-3.424-2.214-5.575l4.426-10.263c0.928-2.151,3.425-3.143,5.576-2.214c0.003,0.001,0.005,0.003,0.008,0.005
			l2.094-4.859c-3.813,2.516-7.84,5.37-12.181,8.613c-4.177,3.063-7.611,5.94-7.704,6.312c0,0.557,62.561,54.764,84.837,73.421
			c4.641,3.898,9.096,6.776,11.695,7.611c5.569,1.671,10.674,1.671,16.336,0c5.291-1.578,4.455-0.835,55.135-44.461
			c29.016-25.001,35.273-30.522,33.263-31.757C332.058,356.841,331.094,358.105,329.637,358.649z"/>
		<path fill="#F56B95" d="M120.836,327.674c0,1.949,0.279,2.413,1.021,1.671s0.743-1.485,0-2.785
			C121.022,325.075,120.929,325.261,120.836,327.674z"/>
		<path fill="#F56B95" d="M113.426,271.686H98.853c-11.908,6.052-20.124,9.022-30.274,11.249l-6.312,1.392l-2.97-3.249
			c-0.917-1.004-1.662-1.826-2.23-2.504c1.99,2.46,4.029,4.907,6.129,7.331c1.3,1.485,8.725,9.189,16.429,17.079l14.109,14.294
			l3.527-1.856c1.988-0.994,11.37-5.861,21.202-10.915c-3.214-5.177-5.028-11.229-5.036-17.573V271.686z"/>
		<path fill="#F56B95" d="M83.244,273.096c1.299-0.186,2.32-0.557,2.32-0.928s-0.186-0.65-0.464-0.65c-0.279,0-1.299,0-2.32,0
			c-1.021,0-1.856,0.464-1.856,0.928C80.924,273.003,81.945,273.281,83.244,273.096z"/>
		<path fill="#F56B95" d="M452.018,212.856c-0.019,0.083-0.038,0.149-0.056,0.23c0.77-2.46,1.475-4.919,2.099-7.377
			c0.305-1.209,0.607-2.537,0.903-3.95c-0.125,0.505-0.265,1.037-0.439,1.629C453.689,206.451,452.575,210.628,452.018,212.856z"/>
		<path fill="#F56B95" d="M455.081,196.983c0.386,0.386,0.502,1.246,0.305,2.668c0.334-1.728,0.653-3.557,0.956-5.425
			c-0.246,0.153-0.556,0.25-0.89,0.25C453.781,194.477,453.689,195.591,455.081,196.983z"/>
		<path fill="#F56B95" d="M60.411,274.952c10.878-1.13,19.234-5.172,31.564-16.444v-39.399
			c-6.489,7.558-14.329,16.209-15.042,16.209c-0.557,0-1.764,0.65-2.692,1.485c-1.299,1.207-1.949,1.299-2.97,0.464
			c-0.835-0.743-1.485-0.743-1.856-0.186c-0.371,0.557,0.278,1.392,1.299,1.949c1.949,1.021,1.949,1.021-0.371,2.877
			c-7.24,5.755-18.564,7.983-25.154,5.105c-4.084-1.764-7.611-6.312-8.354-10.767c-2.135-12.345,6.869-24.319,25.061-33.322
			c8.818-4.363,25.061-10.581,32.951-12.624c8.113-2.119,15.776-2.569,21.269-1.5c1.107-5.22,2.541-10.345,4.285-15.352
			c-7.52-1.686-18.258-1.597-26.481,0.515c-8.261,2.042-22.555,7.611-32.673,12.716c-3.527,1.764-6.312,2.785-6.312,2.228
			c0-0.464-0.464-0.928-1.021-0.928c-0.557,0-0.835,0.557-0.557,1.299c0.371,0.928-1.578,2.692-5.662,5.384
			c-8.261,5.291-17.265,13.83-21.627,20.606l-3.559,5.293c0.011,0.03,0.021,0.061,0.032,0.091
			c6.667,18.189,18.815,38.493,34.487,57.874C54.601,275.613,55.53,275.403,60.411,274.952z"/>
		<path fill="#F56B95" d="M449.79,216.383c-0.743-0.278-1.299-0.093-1.299,0.371c0,0.557-0.743,0.928-1.578,1.021
			c-1.299,0-1.207,0.278,0.464,1.021c1.485,0.743,1.949,1.578,1.485,2.97c-0.14,0.465-0.275,0.887-0.411,1.29
			c0.988-2.516,1.891-5.03,2.727-7.543C450.772,216.327,450.329,216.598,449.79,216.383z"/>
		<path fill="#F56B95" d="M436.888,232.069c-5.105,2.042-11.695,5.384-14.666,7.24c-6.033,3.898-6.497,3.991-8.075,2.042
			c-0.65-0.743-1.671-1.392-2.228-1.392c-0.557,0-0.279,0.65,0.65,1.299c0.835,0.65,1.578,1.671,1.578,2.135
			c0,0.557-3.063,3.527-6.776,6.59c-3.62,3.063-9.189,7.797-12.252,10.396c-10.581,9.004-18.193,12.159-34.715,14.573
			c-0.981,0.137-1.883,0.258-2.746,0.369v11.613c-0.017,13.05-7.631,24.896-19.495,30.332c-0.382,0.174-0.768,0.339-1.151,0.511
			c1.786,0.018,3.556,0.015,5.292-0.035c7.797-0.186,10.674,0,11.046,0.928c0.557,1.578,3.249,1.392,3.249-0.279
			c0-0.743,1.207-1.485,3.063-1.764c1.578-0.278,5.662-1.021,9.004-1.485c13.923-2.32,14.387-2.599,27.475-15.965
			c24.41-25.143,41.519-49.706,51.477-74.057C446.193,227.927,443.894,229.127,436.888,232.069z"/>
		<path fill="#F56B95" d="M85.194,206.451c0.279-0.557,0.186-1.392-0.186-1.764c-1.114-1.114-3.527,0.464-2.785,1.764
			C83.059,207.751,84.358,207.751,85.194,206.451z"/>
		<path fill="#F56B95" d="M83.337,210.814c-1.021,2.599-0.557,3.62,0.835,1.856c0.743-1.021,1.392-2.135,1.392-2.599
			C85.565,208.772,83.894,209.236,83.337,210.814z"/>
		<path fill="#F56B95" d="M43.425,227.521c-1.207,0.464-1.299,0.835-0.464,1.856c1.392,1.671,2.32,1.671,2.97-0.093
			C46.581,227.614,45.374,226.779,43.425,227.521z"/>
		<path fill="#F56B95" d="M14.743,185.567c0.464-1.299,38.892-20.792,41.026-20.792c0.835,0,2.32-0.557,3.341-1.299
			c2.877-1.949,26.918-9.653,36.664-11.695c12.78-2.636,25.76-3.824,36.528-3.336c5.15-8.315,11.27-16.056,18.283-23.037
			c2.422-2.434,4.938-4.735,7.524-6.929c-4.086-0.496-8.352-0.907-12.862-1.228c-12.159-0.835-15.872-1.392-16.708-2.506
			c-1.021-1.299-1.207-1.299-1.764,0.464c-0.464,1.764-1.392,2.042-9.746,2.599c-20.142,1.392-48.916,7.89-66.552,14.944
			c-4.363,1.764-8.168,2.97-8.539,2.785c-0.464-0.278-0.928-0.093-1.114,0.279c-0.093,0.464-4.734,3.156-10.303,6.033
			c-14.201,7.426-15.687,8.725-16.522,14.758c-1.418,9.874-0.902,22.571,1.174,35.418C14.67,188.753,14.467,186.313,14.743,185.567z
			"/>
		<path fill="#F56B95" d="M87.514,215.455c-2.413,1.207-3.249,1.207-4.362,0.278c-1.578-1.299-3.806,0.186-2.785,1.856
			c0.928,1.485,4.827,1.299,7.982-0.371c1.578-0.835,2.785-1.856,2.785-2.32C91.134,213.691,91.041,213.691,87.514,215.455z"/>
		<path fill="#F56B95" d="M102.272,155.493c0.557,0,0.928-0.65,0.928-1.392s-0.371-1.392-0.928-1.392
			c-0.464,0-0.928,0.65-0.928,1.392S101.808,155.493,102.272,155.493z"/>
		<path fill="#F56B95" d="M50.201,244.507c-1.671-1.021-3.62-1.021-3.62-0.093c0,1.299,4.084,2.877,4.548,1.856
			C51.314,245.714,50.85,244.971,50.201,244.507z"/>
		<path fill="#F56B95" d="M400.781,242.001c0.371,0.557,0.928,0.557,1.578-0.093c0.557-0.557,0.743-1.207,0.371-1.578
			C401.895,239.495,400.131,240.887,400.781,242.001z"/>
		<path fill="#F56B95" d="M407.928,216.568c1.114,0,2.692-0.093,3.434-0.186c2.228-0.186,1.578-2.877-0.65-3.156
			c-1.671-0.278-2.042,0-1.485,1.299c0.371,1.114,0.278,1.392-0.464,0.928c-0.65-0.371-0.928-1.578-0.743-2.692
			c0.093-1.114,0.093-1.485-0.093-0.835c-0.464,1.392-0.835,1.392-3.156,0.186c-1.392-0.835-1.764-0.65-1.764,0.65
			c0,1.392-0.186,1.485-0.928,0.279c-0.928-1.485-1.114-1.021-1.299,3.063c-0.093,1.392,0.186,2.506,0.557,2.506
			s0.464,0.65,0.093,1.485c-0.279,0.743-1.114,1.207-1.764,0.928c-0.928-0.371-1.299,0.371-1.299,2.692c0,3.527,0,3.527,2.228,2.692
			c0.835-0.278,1.485-1.299,1.485-2.135s0.835-2.228,1.856-3.156c1.021-0.835,1.856-2.228,1.856-2.97
			S406.722,216.661,407.928,216.568z"/>
		<path fill="#F56B95" d="M398.461,227.893c-1.114,0-1.949,0.186-1.949,0.371c0,0.186-0.278,1.207-0.557,2.135
			c-0.279,0.928-0.186,1.299,0.278,0.743c0.371-0.464,1.299-0.928,2.042-0.928s1.485-0.557,1.764-1.114
			C400.224,228.357,399.575,227.893,398.461,227.893z"/>
		<path fill="#F56B95" d="M405.979,234.947c-0.278,0.928,0.093,1.392,0.928,1.114c0.65-0.278,1.207-0.928,1.207-1.485
			C408.114,232.905,406.258,233.183,405.979,234.947z"/>
		<path fill="#F56B95" d="M432.99,216.104c-0.65,0.65,0.557,2.506,1.671,2.506c0.464,0,0.835-0.371,0.835-0.835
			C435.496,216.661,433.639,215.455,432.99,216.104z"/>
		<path fill="#F56B95" d="M428.07,221.859c-0.557-0.371-0.928,0.464-0.928,1.764c0,1.299,0.464,2.413,0.928,2.413
			c0.557,0,0.928-0.835,0.928-1.764C428.998,223.251,428.627,222.138,428.07,221.859z"/>
		<path fill="#F56B95" d="M456.287,162.919c-3.527-1.392-18.657-1.114-25.34,0.464c-5.476,1.299-6.033,1.299-7.24-0.186
			c-1.299-1.578-1.299-1.578-0.928,0.278c0.371,1.671-0.093,2.135-2.228,2.599c-1.485,0.278-7.333,2.599-13.088,5.198
			c-8.818,3.898-10.581,4.363-11.231,3.249c-1.021-1.949-2.506-0.835-2.506,1.764c0,1.392-0.835,2.506-2.506,3.249
			c-1.299,0.65-9.189,5.105-17.357,10.025c-1.994,1.188-3.907,2.315-5.765,3.4v2.401h6.763v0c0.002,0,0.003,0,0.005,0
			c2.341,0.001,4.238,1.9,4.237,4.242v16.928c4.272-1.966,8.903-4.14,13.974-6.551c5.94-2.877,10.86-4.827,10.86-4.363
			c0,0.557,0.464,0.928,1.021,0.928c0.464,0,0.743-0.371,0.371-0.835c-0.464-0.835,2.228-2.877,3.62-2.877
			c1.207,0,0.464,2.228-1.021,3.341c-1.485,1.114-1.485,1.392-0.278,2.228c2.692,1.764,4.177,0.65,4.177-3.156
			c0-2.413,0.464-3.806,1.392-4.084c1.114-0.371,1.207-0.186,0.279,0.835c-1.392,1.392-1.578,4.548-0.279,4.548
			c0.464,0,0.65-0.557,0.371-1.207c-1.021-2.785,3.156-5.94,10.489-7.89c11.96-3.356,29.89-5.672,32.446-4.366
			c1.275-8.146,2.175-16.941,2.175-22.366C458.701,164.125,458.608,163.754,456.287,162.919z"/>
		<path fill="#F56B95" d="M397.347,249.241c-1.021,0-1.578,0.464-1.299,0.928c0.279,0.557,1.207,0.928,1.949,0.928
			c0.743,0,1.299-0.371,1.299-0.928C399.296,249.705,398.461,249.241,397.347,249.241z"/>
		<path fill="#F56B95" d="M415.261,218.703c-0.371,0.093-0.835,0-1.114-0.093c-0.278-0.093-1.207-0.278-2.042-0.464
			c-2.785-0.557-0.835,2.042,2.32,3.063c1.671,0.464,3.063,0.928,3.249,1.021c0.093,0.093-0.186-0.743-0.743-1.764
			C416.375,219.446,415.632,218.703,415.261,218.703z"/>
		<path fill="#F56B95" d="M425.007,206.822c-0.65-0.371-0.743,0-0.371,1.021c0.371,0.928,0.65,2.228,0.65,2.97
			c0,0.743,0.371,1.299,0.835,1.299c0.371,0,0.557-1.021,0.278-2.32C426.214,208.493,425.564,207.194,425.007,206.822z"/>
		<path fill="#F56B95" d="M386.765,234.39c-1.207,0-1.207,0.278-0.278,1.856c0.65,1.021,1.299,1.856,1.392,1.856
			c0.186,0,0.278-0.835,0.278-1.856S387.508,234.39,386.765,234.39z"/>
		<path fill="#F56B95" d="M449.048,211.185c-0.743,0-1.671,0.464-1.949,0.928c-0.278,0.557,0.093,0.928,0.835,0.928
			s1.671-0.371,1.949-0.928C450.161,211.649,449.79,211.185,449.048,211.185z"/>
		<path fill="#F56B95" d="M393.541,228.171c-0.186-0.835-0.743-1.671-1.392-1.856c-0.65-0.279-0.835,0.278-0.557,1.485
			C392.149,230.12,394.005,230.399,393.541,228.171z"/>
		<path fill="#F56B95" d="M398.739,212.206c0.278-0.464-0.279-1.021-1.207-1.299c-1.299-0.278-1.671-0.093-1.299,0.835
			C396.79,213.227,397.997,213.413,398.739,212.206z"/>
		<path fill="#F56B95" d="M390.942,234.854c-1.021,0.65-1.207,3.527-0.279,4.455c1.021,1.114,2.135,0.743,2.135-0.65
			c0-0.65,0.65-1.764,1.392-2.413s1.392-1.485,1.392-1.949C395.583,233.555,392.52,233.833,390.942,234.854z"/>
		<path fill="#F56B95" d="M128.912,315.793c0.525,1.314,0.643,1.288,1.121-0.042c-0.422-0.246-0.847-0.488-1.256-0.751
			C128.788,315.262,128.824,315.529,128.912,315.793z"/>
		<path fill="#F56B95" d="M357.249,163.568c0.186-0.278,0.093-1.578-0.278-2.877c-0.278-1.392-0.743-2.32-1.021-2.135
			c-0.186,0.278-0.093,1.578,0.278,2.877C356.506,162.826,356.97,163.754,357.249,163.568z"/>
		<path fill="#F56B95" d="M370.522,145.376c0,0.464,1.114,0.835,2.506,0.835c2.32,0,2.413-0.093,1.021-1.485
			C372.564,143.241,370.522,143.612,370.522,145.376z"/>
		<path fill="#F56B95" d="M394.562,145.283c1.671,0,1.949-1.578,0.557-3.341c-0.743-0.928-1.392-2.692-1.392-3.806
			c0-1.207-0.371-2.135-0.928-2.135c-1.207,0-1.207,0.279,0.186,3.434c0.557,1.392,0.928,3.342,0.835,4.27
			C393.727,144.54,394.005,145.283,394.562,145.283z"/>
		<path fill="#F56B95" d="M377.019,138.321c-1.485,0.928-1.114,2.599,0.464,2.042c0.743-0.371,1.578-0.186,1.949,0.371
			c0.279,0.557,0.743,0.743,1.021,0.464C381.289,140.456,378.04,137.672,377.019,138.321z"/>
		<path fill="#F56B95" d="M397.44,55.897c0,0.65,0.557,1.207,1.207,1.021c0.643-0.135,1.917,0.337,3.243,1.038
			c-3.169-2.179-6.353-4.2-9.376-5.931C395.35,53.692,397.44,55.302,397.44,55.897z"/>
		<path fill="#F56B95" d="M406.258,61.745c-0.371,0.557-0.186,1.578,0.464,2.32c2.228,2.692-1.671,18.935-7.054,29.238
			c-0.744,1.406-1.601,2.87-2.508,4.316c2.432-3.73,4.386-7.464,5.664-10.999l1.578-4.455h7.611c6.683,0,7.89-0.278,10.21-2.228
			l2.599-2.32l-3.713-3.806c-3.992-4.177-9.492-8.818-15.316-13.088C406.194,61.157,406.397,61.526,406.258,61.745z"/>
		<path fill="#F56B95" d="M369.965,45.13c-0.279,0.464,0,0.835,0.65,0.835c1.299,0,3.341,2.413,4.548,5.384
			c0.464,1.114,1.671,2.042,2.785,2.042c2.32,0,2.32-1.021,0-3.991c-3.805-4.826,1.299-4.27,12.342,1.391
			c-0.595-0.32-1.185-0.634-1.76-0.927c-5.149-2.545-13.429-5.54-21.209-7.811C369.605,43.026,370.623,44.083,369.965,45.13z"/>
		<path fill="#F56B95" d="M318.543,118.087c0,0.557-0.278,1.671-0.557,2.506c-0.279,0.835-0.093,1.485,0.557,1.485
			c0.557,0,0.835-0.371,0.557-0.835c-0.371-0.464,0-1.021,0.557-1.299c0.928-0.371,1.021-0.65,0.093-1.671
			C319.007,117.53,318.543,117.437,318.543,118.087z"/>
		<path fill="#F56B95" d="M313.902,117.437c0,1.114,0.928,1.207,2.785,0c0.743-0.464,1.021-1.114,0.743-1.485
			C316.501,115.116,313.902,116.23,313.902,117.437z"/>
		<path fill="#F56B95" d="M357.62,39.572c-0.837-0.177-1.652-0.341-2.414-0.475c-5.746-0.999-14.071-1.482-22.201-1.431
			c1.711,0.041,3.897,0.121,6.7,0.224C346.459,38.13,352.626,38.738,357.62,39.572z"/>
		<path fill="#F56B95" d="M312.695,121.15c-2.052-2.432-3.292-2.31-2.503-0.352c1.406,1.152,2.785,2.337,4.136,3.552
			c0.022-0.023,0.036-0.051,0.058-0.074c0.681-0.701,1.546-1.1,2.444-1.228c-0.172-0.025-0.344-0.042-0.515-0.042
			C315.201,123.006,313.623,122.171,312.695,121.15z"/>
		<path fill="#F56B95" d="M390.303,50.798c0.107,0.056,0.212,0.113,0.318,0.17C390.514,50.909,390.41,50.856,390.303,50.798z"/>
		<path fill="#F56B95" d="M344.996,117.437c0.743,0,1.392-0.371,1.392-0.928c0-0.464-0.65-0.928-1.392-0.928
			s-1.392,0.464-1.392,0.928C343.604,117.066,344.254,117.437,344.996,117.437z"/>
		<path fill="#F56B95" d="M37.847,94.813c-0.309,0.227-0.59,0.439-0.827,0.625C37.285,95.234,37.567,95.023,37.847,94.813z"/>
		<path fill="#F56B95" d="M372.455,116.003c0.371,0.251,0.728,0.522,1.077,0.806C372.841,115.977,372.565,115.723,372.455,116.003z"
			/>
		<path fill="#F56B95" d="M376.044,119.408c0.063,0.083,0.123,0.168,0.185,0.252c1.581-1.158,3.138-2.391,4.66-3.689
			c-0.6,0.441-1.238,0.898-1.921,1.372L376.044,119.408z"/>
		<path fill="#F56B95" d="M387.415,108.805c-0.279-1.299-0.65-1.392-2.135-0.557c-1.021,0.464-1.578,1.299-1.299,1.856
			c0.371,0.464,1.021,0.65,1.485,0.371c0.464-0.371,0.835-0.186,0.835,0.278c0,0.071-0.021,0.153-0.053,0.242
			c0.7-0.704,1.387-1.418,2.061-2.143C387.806,109.186,387.484,109.2,387.415,108.805z"/>
		<path fill="#F56B95" d="M320.77,123.006c-0.491,0-0.886,0.255-1.134,0.608c0.264,0.161,0.517,0.347,0.749,0.572
			c0.509,0.497,1.025,0.991,1.51,1.491c0.027,0.027,0.052,0.055,0.079,0.081C321.869,124.259,321.463,123.006,320.77,123.006z"/>
		<path fill="#F56B95" d="M372.378,69.17c0,0.557,0.65,0.928,1.392,0.928s1.392-0.371,1.392-0.928c0-0.464-0.65-0.928-1.392-0.928
			S372.378,68.706,372.378,69.17z"/>
		<path fill="#F56B95" d="M376.091,65.458c0.557,0,0.928-0.65,0.928-1.392c0-0.743-0.371-1.392-0.928-1.392
			c-0.464,0-0.928,0.65-0.928,1.392C375.163,64.808,375.627,65.458,376.091,65.458z"/>
		<path fill="#F56B95" d="M338.685,45.037c2.32,0,2.413,0,0.743-1.856c-0.928-1.021-2.042-1.856-2.506-1.856
			c-0.371,0-0.743,0.835-0.743,1.856C336.179,44.573,336.828,45.037,338.685,45.037z"/>
		<path fill="#F56B95" d="M103.665,63.973c-1.021,0.186-5.105,1.485-9.189,2.785c-3.991,1.299-7.704,2.413-8.168,2.413
			c-0.464,0-3.434,1.207-6.59,2.599c-0.958,0.442-1.854,0.855-2.71,1.25c3.522-1.436,6.257-2.293,7.629-2.271
			c0.743,0,2.042-0.464,2.785-1.207c1.299-1.114,9.003-3.434,21.349-6.497c4.856-1.2,12.271-2.075,18.921-2.389
			c-5.896,0.197-11.823,0.867-17.529,2.018C107.656,63.23,104.686,63.787,103.665,63.973z"/>
		<path fill="#F56B95" d="M139.425,60.913c3.146,0.436,7.407,0.951,9.828,1.242c-1.741-0.281-3.5-0.547-5.305-0.781
			C142.459,61.183,140.948,61.034,139.425,60.913z"/>
		<path fill="#F56B95" d="M216.534,90.426c1.207-0.093,0.093-0.65-4.548-2.228c-1.299-0.464-1.949-1.207-1.671-2.042
			c0.278-0.743,0.093-1.021-0.464-0.743c-0.464,0.371-3.713-1.021-7.147-3.063c-11.058-6.516-20.91-11.233-30.934-14.654
			c5.939,2.114,12.043,4.705,17.754,7.6c12.623,6.405,16.986,9.096,16.058,10.117c-0.371,0.371-0.278,0.464,0.278,0.186
			c0.819-0.477,5.25,2.058,10.598,5.901c0.13-0.021,0.259-0.042,0.389-0.063C216.324,90.851,216.172,90.471,216.534,90.426z"/>
		<path fill="#F56B95" d="M81.481,61.374c-0.371,0.928-0.093,1.299,0.557,1.114c0.557-0.186,1.299-0.928,1.485-1.485
			C84.08,59.332,82.131,59.703,81.481,61.374z"/>
		<path fill="#F56B95" d="M246.203,90.35c12.133,1.032,24.23,3.902,35.873,8.725c0.073,0.028,0.146,0.057,0.217,0.089
			c2.134,0.947,3.098,3.439,2.164,5.576c0.162,0.074,0.323,0.149,0.485,0.224c1.017,0.232,1.992,0.438,2.877,0.591
			c2.72,0.453,5.439,1.275,6.707,2.016c1.303-0.767,2.966-0.829,4.35,0.011c0.008,0.005,0.016,0.01,0.024,0.015
			c1.944-0.55,4.792-0.53,4.792,0.372c0,0.371,2.97,0.65,6.497,0.65c3.62,0,6.497-0.279,6.497-0.65c0-0.464,1.764-0.743,3.991-0.835
			c2.135,0,6.869-0.743,10.396-1.671c6.776-1.764,7.89-1.485,7.89,1.949c0,0.835,0.464,1.856,1.114,2.228
			c0.65,0.464,0.835,0,0.557-1.299c-0.371-1.114,0-2.413,0.743-3.063c0.743-0.65,1.207-1.671,0.928-2.413s1.021-1.949,3.434-3.156
			c2.135-1.114,5.291-2.97,6.961-4.27c1.671-1.299,3.713-2.042,4.363-1.764c1.021,0.371,1.392-0.186,1.392-1.764
			c0-1.299,0.464-2.32,0.928-2.32c0.557,0,0.928,0.464,0.928,0.928c0,0.557,0.928,0.928,2.135,0.928
			c1.114,0,1.578-0.371,1.021-0.743c-1.578-1.114-2.135-3.434-0.928-4.827c1.485-1.949,3.249-2.135,3.898-0.464
			c0.371,0.743,0.928,1.392,1.392,1.392c1.299,0,1.021-2.042-0.557-3.806c-1.392-1.392-1.299-2.135,0.557-7.426
			c1.485-4.641,1.856-7.333,1.485-12.252c-0.464-6.59,0.557-8.725,2.785-5.755c0.835,1.299,1.485,1.485,2.228,0.743
			c1.299-1.299-2.135-8.168-4.827-9.56c-2.692-1.485-3.62-0.093-1.021,1.578c2.413,1.671,2.599,3.249,0.65,4.919
			c-1.114,0.928-1.578,0.65-2.413-1.299c-0.65-1.299-1.485-2.413-1.949-2.413c-0.371,0-0.743-0.557-0.743-1.207
			c0-1.299-6.219-3.434-10.303-3.434c-2.785,0-3.62,0.65-10.117,8.075c-2.877,3.341-6.59,2.785-10.489-1.485
			c-4.363-4.919-5.476-7.054-4.734-9.839c0.371-1.392,0.186-2.32-0.464-2.32c-0.557,0-1.021-0.928-1.021-1.949
			c0-0.931,0.046-1.417,1.466-1.62c-5.292,0.173-10.265,0.584-14.089,1.249c-11.788,2.042-25.711,6.869-25.061,8.725
			c0.186,0.835,1.114,3.156,1.856,5.198c1.764,4.641,1.856,13.459,0.186,17.45c-3.063,7.426-12.531,11.138-23.019,9.004
			c-3.156-0.557-8.447-2.32-11.602-3.713l-5.848-2.692l-5.384,6.219c-2.877,3.434-6.219,7.426-7.426,8.911l-0.602,0.785l1.809-1.899
			L246.203,90.35z"/>
		<path fill="#F56B95" d="M218.297,86.806c0.464,0,1.114-0.371,1.392-0.928c0.278-0.464-0.278-0.928-1.392-0.928
			c-1.114,0-1.671,0.464-1.392,0.928C217.183,86.435,217.833,86.806,218.297,86.806z"/>
		<path fill="#F56B95" d="M56.419,69.82c0.743,0.278,1.299-0.093,1.299-1.021c0-1.764,5.848-4.827,18.657-9.839
			c8.539-3.249,9.653-3.527,10.581-2.135c1.299,1.764,3.434,0.835,2.692-1.114c-0.371-0.928,0.928-1.671,4.919-2.785
			c2.97-0.835,6.219-1.764,7.147-2.042c1.299-0.371,1.671-0.093,1.207,0.928c-0.279,0.835,0.278,2.413,1.207,3.62
			c1.485,1.764,1.949,1.856,2.692,0.835c0.557-0.835,0.557-2.228,0-3.62c-0.464-1.299-0.743-2.413-0.557-2.599
			c0.186-0.186,2.785-0.835,5.848-1.392c7.611-1.485,27.846-1.485,38.706,0c9.189,1.299,11.324,2.413,9.189,5.012
			c-1.392,1.671-0.743,7.426,0.928,7.704c0.743,0.093,1.392-0.464,1.392-1.114c0-0.743-0.464-1.299-1.021-1.392
			c-0.557,0,0.65-0.557,2.692-1.207c2.692-0.743,3.806-1.671,3.991-3.156c0.371-2.228-0.65-2.692-2.413-0.928
			c-0.835,0.835-1.114,0.743-1.114-0.464c0-1.021,0.743-1.578,2.135-1.578c4.548,0,18.193,4.084,25.247,7.611
			c9.375,4.641,28.31,16.336,28.31,17.543c0,0.464,0.835,0.835,1.856,0.835c1.021,0,3.156,1.299,4.827,2.785l2.941,2.674
			c-3.167-4.252-18.544-19.01-24.939-23.744c-14.016-10.21-30.445-17.357-46.781-20.142c-11.138-1.856-30.445-1.949-41.398,0
			c-9.56,1.578-25.247,6.683-33.322,10.767c-9.882,4.941-20.752,12.814-29.414,21.054C54.993,70.099,55.935,69.621,56.419,69.82z"/>
		<path fill="#F56B95" d="M47.694,79.009c0.371,0.278,0.743-0.278,0.743-1.114c0-0.741,0.716-1.957,1.721-3.223
			c-0.85,0.89-1.68,1.78-2.463,2.666c-0.86,0.966-1.787,2.061-2.741,3.226C46.164,79.451,47.287,78.765,47.694,79.009z"/>
		<path fill="#F56B95" d="M224.331,83.743c1.021,0.65,1.207,1.207,0.557,1.207c-0.65,0-0.835,0.464-0.464,1.021
			c0.371,0.65,0.928,0.65,1.485,0.093c0.65-0.65,1.856-0.65,3.62,0c2.042,0.743,2.692,1.485,2.692,3.434
			c0,0.163,0.023,0.321,0.035,0.482c0.91-0.028,1.82-0.053,2.731-0.061l-1.838-2.091c-1.578-1.671-2.785-3.341-2.785-3.806
			c0-0.165-0.186-0.494-0.517-0.947l-2.546-0.909C223.959,80.959,222.01,81.98,224.331,83.743z"/>
		<path fill="#F56B95" d="M36.188,92.25c-2.057,3.017-3.363,5.249-3.066,5.509C32.89,97.527,34.271,95.165,36.188,92.25z"/>
		<path fill="#F56B95" d="M61.432,78.452c-0.743-1.114-0.928-0.928-0.928,0.743c0,1.114-0.371,2.042-0.743,2.042
			c-0.612,0-6.1,3.251-11.644,6.75c6.149-3.744,13.147-7.563,19.427-10.655C61.973,79.786,62,79.4,61.432,78.452z"/>
		<path fill="#F56B95" d="M344.625,127.647c1.021,0,1.578-0.371,1.299-0.928c-0.279-0.464-1.207-0.928-1.949-0.928
			s-1.299,0.464-1.299,0.928C342.676,127.276,343.511,127.647,344.625,127.647z"/>
		<path fill="#F56B95" d="M236.597,89.904l-0.015,0.019c0.001,0,0.002,0,0.003,0C236.589,89.916,236.593,89.91,236.597,89.904z"/>
		<path fill="#F56B95" d="M331.538,48.75c0,0.557,3.806,5.476,4.27,5.569c0.093,0,0.093-1.671,0.093-3.713s-0.278-3.713-0.743-3.713
			C333.765,46.894,331.538,48.008,331.538,48.75z"/>
		<path fill="#F56B95" d="M371.729,89.962c-0.278,0.278-0.65,1.764-0.743,3.341c-0.278,2.97,1.856,3.991,2.877,1.485
			C374.42,93.304,372.564,89.127,371.729,89.962z"/>
		<path fill="#F56B95" d="M361.611,98.502c-2.228-0.835-2.599-0.65-1.299,0.835c1.299,1.578,2.785,1.856,2.785,0.557
			C363.096,99.43,362.447,98.78,361.611,98.502z"/>
		<path fill="#F56B95" d="M335.714,113.91c0.464-0.278,0.371-0.65-0.278-0.928c-0.65-0.186-1.114-1.021-1.114-1.856
			c0-1.114-0.278-1.207-1.021-0.464C332.094,111.868,334.229,114.838,335.714,113.91z"/>
		<path fill="#F56B95" d="M370.615,97.016c-0.743,0-2.506-1.021-3.806-2.32c-2.32-2.228-5.569-2.413-5.569-0.371
			c0,0.371,0.743,0.464,1.578,0.186c1.207-0.464,1.392-0.186,0.928,1.021c-0.371,0.835-0.279,1.392,0.186,1.114
			c0.928-0.65,5.291,3.806,4.548,4.641c-0.371,0.278-1.021-0.371-1.671-1.392c-1.392-2.599-3.063-2.506-2.228,0.093
			c0.743,2.32,1.856,3.62,4.548,5.198c2.32,1.299,2.32,1.299,2.32,0.186c0-0.464-0.65-0.928-1.392-0.928
			c-0.743,0-1.392-0.464-1.392-1.021c0-0.557,0.557-0.835,1.299-0.557c0.928,0.371,1.392-0.371,1.671-2.692
			C371.914,97.852,371.636,97.016,370.615,97.016z"/>
		<path fill="#F56B95" d="M335.065,131.174c1.671-0.093,2.877-0.557,2.692-1.021c-0.464-1.578-2.042-1.671-3.898-0.278
			C332.094,131.174,332.187,131.267,335.065,131.174z"/>
		<path fill="#F56B95" d="M353.072,111.682c-0.186,0.65,0.278,1.114,1.114,1.114s1.485-0.65,1.485-1.485
			C355.671,109.733,353.629,110.011,353.072,111.682z"/>
		<path fill="#F56B95" d="M350.194,107.227c-1.114,0-1.949,0.464-1.949,0.928c0,0.557,0.557,0.928,1.299,0.928
			s1.671-0.371,1.949-0.928C351.772,107.691,351.215,107.227,350.194,107.227z"/>
		<path fill="#F56B95" d="M350.102,114.652c-1.114,0-1.671,0.464-1.392,0.928c0.279,0.557,0.928,0.928,1.392,0.928
			s1.114-0.371,1.392-0.928C351.772,115.116,351.215,114.652,350.102,114.652z"/>
		<path fill="#F56B95" d="M339.984,120.221c0.464,0,0.557-0.65,0.278-1.392c-0.557-1.485-2.228-1.949-2.228-0.65
			C338.035,119.2,339.056,120.221,339.984,120.221z"/>
		<path fill="#F56B95" d="M374.606,96.738c-1.207,0.464-1.114,0.743,0.186,2.228c1.949,2.135,4.084,2.32,4.084,0.371
			c0-0.743,0.557-1.392,1.207-1.485c0.557,0-0.093-0.464-1.485-0.835C377.112,96.552,375.349,96.46,374.606,96.738z"/>
		<path fill="#F56B95" d="M377.483,110.011c-1.485-1.299-1.671-0.928-0.835,1.299c0.557,1.578,2.228,2.042,2.228,0.65
			C378.876,111.496,378.226,110.661,377.483,110.011z"/>
		<path fill="#F56B95" d="M383.61,57.939c2.692,2.228,2.692,2.228,2.692,0.743c0-1.299-3.62-3.806-4.363-3.063
			C381.66,55.897,382.403,56.918,383.61,57.939z"/>
		<path fill="#F56B95" d="M384.909,99.801c-0.743,0.65-1.392,1.299-1.392,1.485c0,0.186,0.65,0.371,1.392,0.371
			s1.392-0.65,1.392-1.485C386.301,98.873,386.023,98.873,384.909,99.801z"/>
		<path fill="#F56B95" d="M377.205,104.813c-0.186,0.928,0.278,1.485,1.207,1.485s1.392-0.65,1.207-1.578
			C379.247,102.678,377.576,102.864,377.205,104.813z"/>
		<path fill="#F56B95" d="M390.014,132.288c0,1.764,0.278,1.949,1.114,1.114s0.835-1.392,0-2.228S390.014,130.524,390.014,132.288z"
			/>
		<path fill="#F56B95" d="M29.873,130.432c0.557,0,0.928-0.65,0.928-1.392s-0.371-1.392-0.928-1.392
			c-0.464,0-0.928,0.65-0.928,1.392S29.409,130.432,29.873,130.432z"/>
		<path fill="#F56B95" d="M384.538,121.15c-2.135,0-1.856,2.042,0.557,4.363c1.392,1.485,2.785,2.32,2.877,1.856
			c0.186-0.371-0.557-1.485-1.671-2.506c-1.114-0.928-1.764-2.228-1.392-2.692C385.187,121.614,385.095,121.15,384.538,121.15z"/>
		<path fill="#F56B95" d="M398.646,123.377c-0.371,0.371-0.093,1.021,0.65,1.485c1.764,1.114,2.506,0.278,1.114-1.114
			C399.853,123.192,399.018,123.006,398.646,123.377z"/>
		<path fill="#F56B95" d="M390.757,118.736c-1.764-1.114-1.949,0.557-0.278,2.413c0.928,1.021,1.764,1.856,1.949,1.856
			C392.984,123.006,391.499,119.2,390.757,118.736z"/>
		<path fill="#F56B95" d="M42.496,119.015c1.207,0.835,1.856,0.928,2.135,0.186c0.464-1.485-1.392-3.063-2.785-2.228
			C41.011,117.53,41.197,118.087,42.496,119.015z"/>
		<path fill="#F56B95" d="M93.083,104.721c0.743-0.743,0.743-1.485,0-2.785c-0.835-1.485-0.928-1.299-1.021,1.114
			C92.062,104.999,92.341,105.463,93.083,104.721z"/>
		<path fill="#F56B95" d="M49.18,97.573c0.186-0.928,0.093-1.856-0.093-2.135c-0.278-0.186-1.207-0.279-2.135-0.093
			c-1.485,0.278-1.485,0.371,0.186,2.042C48.808,99.058,48.901,99.058,49.18,97.573z"/>
		<path fill="#F56B95" d="M66.444,87.363c1.021-0.65,1.949-1.578,2.135-2.135c0.371-1.114-5.105-3.341-6.312-2.506
			c-1.207,0.743-0.65,3.434,1.021,4.734C64.402,88.291,65.052,88.291,66.444,87.363z"/>
		<path fill="#F56B95" d="M422.037,85.043c0.371,0.464,0.928,0.835,1.485,0.835c0.928,0,1.114-1.299,0.278-2.135
			C422.872,82.908,421.48,84.022,422.037,85.043z"/>
		<path fill="#F56B95" d="M263.872,63.044c0.743,0.186,1.949,0.65,2.692,0.835c2.506,0.928,5.569,0.65,5.569-0.371
			c0-0.557-0.743-1.949-1.764-3.249l-1.671-2.135l-3.063,2.228C263.501,61.931,262.944,62.766,263.872,63.044z"/>
		<path fill="#FFB1D6" d="M47.694,194.663c4.084-2.692,6.033-4.455,5.662-5.384c-0.278-0.743,0-1.299,0.557-1.299
			c0.557,0,1.021,0.464,1.021,0.928c0,0.557,2.785-0.464,6.312-2.228c10.117-5.105,24.412-10.674,32.673-12.716
			c8.224-2.112,18.961-2.201,26.481-0.515c3.047-8.751,7.03-17.139,11.903-25.005c-10.767-0.488-23.747,0.7-36.528,3.336
			c-9.746,2.042-33.786,9.746-36.664,11.695c-1.021,0.743-2.506,1.299-3.341,1.299c-2.135,0-40.562,19.492-41.026,20.792
			c-0.276,0.746-0.073,3.186,0.431,6.458c1.189,7.718,4.063,20.097,6.345,26.029l0.928,2.599l0.061-0.091l3.559-5.293
			C30.43,208.493,39.433,199.954,47.694,194.663z M102.272,152.708c0.557,0,0.928,0.65,0.928,1.392s-0.371,1.392-0.928,1.392
			c-0.464,0-0.928-0.65-0.928-1.392S101.808,152.708,102.272,152.708z"/>
		<path fill="#FFB1D6" d="M424.079,197.448c-7.333,1.949-11.51,5.105-10.489,7.89c0.279,0.65,0.093,1.207-0.371,1.207
			c-1.299,0-1.114-3.156,0.279-4.548c0.928-1.021,0.835-1.207-0.279-0.835c-0.928,0.279-1.392,1.671-1.392,4.084
			c0,3.806-1.485,4.919-4.177,3.156c-1.207-0.835-1.207-1.114,0.278-2.228c1.485-1.114,2.228-3.341,1.021-3.341
			c-1.392,0-4.084,2.042-3.62,2.877c0.371,0.464,0.093,0.835-0.371,0.835c-0.557,0-1.021-0.371-1.021-0.928
			c0-0.464-4.919,1.485-10.86,4.363c-5.071,2.411-9.702,4.585-13.974,6.551v50.915c0.001,2.34-1.894,4.239-4.234,4.242h-17.209
			v3.635c0.862-0.111,1.764-0.232,2.746-0.369c16.522-2.413,24.133-5.569,34.715-14.573c3.063-2.599,8.632-7.333,12.252-10.396
			c3.713-3.063,6.776-6.033,6.776-6.59c0-0.464-0.743-1.485-1.578-2.135c-0.928-0.65-1.207-1.299-0.65-1.299
			c0.557,0,1.578,0.65,2.228,1.392c1.578,1.949,2.042,1.856,8.075-2.042c2.97-1.856,9.56-5.198,14.666-7.24
			c7.006-2.943,9.305-4.143,10.73-6.948c0.305-0.601,0.571-1.283,0.834-2.065c0.136-0.404,0.271-0.825,0.411-1.29
			c0.464-1.392,0-2.228-1.485-2.97c-1.671-0.743-1.764-1.021-0.464-1.021c0.835-0.093,1.578-0.464,1.578-1.021
			c0-0.464,0.557-0.65,1.299-0.371c0.539,0.215,0.982-0.056,1.388-0.869c0.273-0.547,0.53-1.346,0.784-2.429
			c0.019-0.08,0.038-0.146,0.056-0.23c0.557-2.228,1.671-6.405,2.506-9.468c0.173-0.592,0.314-1.125,0.439-1.629
			c0.201-0.809,0.341-1.51,0.424-2.107c0.197-1.422,0.081-2.282-0.305-2.668c-1.392-1.392-1.299-2.506,0.371-2.506
			c0.333,0,0.644-0.097,0.89-0.25c0.301-0.188,0.503-0.464,0.503-0.771c0-0.149-0.118-0.272-0.319-0.375
			C453.969,191.776,436.039,194.092,424.079,197.448z M397.533,210.906c0.928,0.279,1.485,0.835,1.207,1.299
			c-0.743,1.207-1.949,1.021-2.506-0.464C395.862,210.814,396.233,210.628,397.533,210.906z M392.149,226.315
			c0.65,0.186,1.207,1.021,1.392,1.856c0.464,2.228-1.392,1.949-1.949-0.371C391.314,226.593,391.499,226.036,392.149,226.315z
			 M387.879,238.103c-0.093,0-0.743-0.835-1.392-1.856c-0.928-1.578-0.928-1.856,0.278-1.856c0.743,0,1.392,0.835,1.392,1.856
			S388.065,238.103,387.879,238.103z M394.191,236.246c-0.743,0.65-1.392,1.764-1.392,2.413c0,1.392-1.114,1.764-2.135,0.65
			c-0.928-0.928-0.743-3.806,0.279-4.455c1.578-1.021,4.641-1.299,4.641-0.557C395.583,234.761,394.934,235.597,394.191,236.246z
			 M397.997,251.097c-0.743,0-1.671-0.371-1.949-0.928c-0.278-0.464,0.279-0.928,1.299-0.928c1.114,0,1.949,0.464,1.949,0.928
			C399.296,250.726,398.739,251.097,397.997,251.097z M400.039,229.099c-0.278,0.557-1.021,1.114-1.764,1.114
			s-1.671,0.464-2.042,0.928c-0.464,0.557-0.557,0.186-0.278-0.743c0.278-0.928,0.557-1.949,0.557-2.135
			c0-0.186,0.835-0.371,1.949-0.371S400.224,228.357,400.039,229.099z M402.359,241.908c-0.65,0.65-1.207,0.65-1.578,0.093
			c-0.65-1.114,1.114-2.506,1.949-1.671C403.102,240.702,402.916,241.351,402.359,241.908z M403.937,221.117
			c-1.021,0.928-1.856,2.32-1.856,3.156s-0.65,1.856-1.485,2.135c-2.228,0.835-2.228,0.835-2.228-2.692
			c0-2.32,0.371-3.063,1.299-2.692c0.65,0.278,1.485-0.186,1.764-0.928c0.371-0.835,0.278-1.485-0.093-1.485
			s-0.65-1.114-0.557-2.506c0.186-4.084,0.371-4.548,1.299-3.063c0.743,1.207,0.928,1.114,0.928-0.279
			c0-1.299,0.371-1.485,1.764-0.65c2.32,1.207,2.692,1.207,3.156-0.186c0.186-0.65,0.186-0.279,0.093,0.835
			c-0.186,1.114,0.093,2.321,0.743,2.692c0.743,0.464,0.835,0.186,0.464-0.928c-0.557-1.299-0.186-1.578,1.485-1.299
			c2.228,0.279,2.877,2.97,0.65,3.156c-0.743,0.093-2.32,0.186-3.434,0.186c-1.207,0.093-2.135,0.835-2.135,1.578
			S404.958,220.281,403.937,221.117z M406.907,236.061c-0.835,0.279-1.207-0.186-0.928-1.114c0.278-1.764,2.135-2.042,2.135-0.371
			C408.114,235.132,407.557,235.782,406.907,236.061z M417.674,222.23c-0.186-0.093-1.578-0.557-3.249-1.021
			c-3.156-1.021-5.105-3.62-2.32-3.063c0.835,0.186,1.764,0.371,2.042,0.464c0.278,0.093,0.743,0.186,1.114,0.093
			c0.371,0,1.114,0.743,1.671,1.764C417.489,221.488,417.767,222.323,417.674,222.23z M426.121,212.113
			c-0.464,0-0.835-0.557-0.835-1.299c0-0.743-0.278-2.042-0.65-2.97c-0.371-1.021-0.278-1.392,0.371-1.021
			c0.557,0.371,1.207,1.671,1.392,2.97C426.678,211.092,426.492,212.113,426.121,212.113z M428.07,226.036
			c-0.464,0-0.928-1.114-0.928-2.413c0-1.299,0.371-2.135,0.928-1.764c0.557,0.278,0.928,1.392,0.928,2.413
			C428.998,225.201,428.627,226.036,428.07,226.036z M434.66,218.61c-1.114,0-2.32-1.856-1.671-2.506
			c0.65-0.65,2.506,0.557,2.506,1.671C435.496,218.239,435.125,218.61,434.66,218.61z M449.883,212.113
			c-0.279,0.557-1.207,0.928-1.949,0.928s-1.114-0.371-0.835-0.928c0.278-0.464,1.207-0.928,1.949-0.928
			S450.161,211.649,449.883,212.113z"/>
		<path fill="#FFB1D6" d="M62.267,284.327l6.312-1.392c10.15-2.227,18.365-5.197,30.274-11.249h-2.636
			c-2.343,0-4.242-1.899-4.242-4.242v-8.936c-12.33,11.272-20.686,15.314-31.564,16.444c-4.881,0.451-5.81,0.661-3.383,3.574
			c0.014,0.016,0.025,0.031,0.039,0.048c0.568,0.678,1.313,1.5,2.23,2.504L62.267,284.327z M82.78,271.518c1.021,0,2.042,0,2.32,0
			c0.278,0,0.464,0.278,0.464,0.65s-1.021,0.743-2.32,0.928c-1.299,0.186-2.32-0.093-2.32-0.65
			C80.924,271.982,81.759,271.518,82.78,271.518z"/>
		<path fill="#FFB1D6" d="M94.847,190.3c-7.89,2.042-24.133,8.261-32.951,12.624c-18.193,9.004-27.196,20.977-25.061,33.322
			c0.743,4.455,4.27,9.004,8.354,10.767c6.59,2.877,17.914,0.65,25.154-5.105c2.32-1.856,2.32-1.856,0.371-2.877
			c-1.021-0.557-1.671-1.392-1.299-1.949c0.371-0.557,1.021-0.557,1.856,0.186c1.021,0.835,1.671,0.743,2.97-0.464
			c0.928-0.835,2.135-1.485,2.692-1.485c0.713,0,8.553-8.65,15.042-16.209v-19.508c0-2.343,1.899-4.242,4.242-4.242h18.666
			c0.347-2.203,0.772-4.386,1.233-6.559C110.623,187.731,102.96,188.181,94.847,190.3z M45.931,229.285
			c-0.65,1.764-1.578,1.764-2.97,0.093c-0.835-1.021-0.743-1.392,0.464-1.856C45.374,226.779,46.581,227.614,45.931,229.285z
			 M51.129,246.271c-0.464,1.021-4.548-0.557-4.548-1.856c0-0.928,1.949-0.928,3.62,0.093
			C50.85,244.971,51.314,245.714,51.129,246.271z M85.008,204.688c0.371,0.371,0.464,1.207,0.186,1.764
			c-0.835,1.299-2.135,1.299-2.97,0C81.481,205.152,83.894,203.574,85.008,204.688z M85.565,210.071c0,0.464-0.65,1.578-1.392,2.599
			c-1.392,1.764-1.856,0.743-0.835-1.856C83.894,209.236,85.565,208.772,85.565,210.071z M88.35,217.218
			c-3.156,1.671-7.054,1.856-7.982,0.371c-1.021-1.671,1.207-3.156,2.785-1.856c1.114,0.928,1.949,0.928,4.362-0.278
			c3.527-1.764,3.62-1.764,3.62-0.557C91.134,215.362,89.927,216.383,88.35,217.218z"/>
		<path fill="#FFB1D6" d="M293.048,109.007c0.376-0.62,0.895-1.091,1.479-1.435c-1.268-0.741-3.987-1.563-6.707-2.016
			c-0.885-0.153-1.86-0.36-2.877-0.591c2.749,1.271,5.439,2.647,8.069,4.119C293.026,109.058,293.033,109.031,293.048,109.007z"/>
		<path fill="#FFB1D6" d="M209.851,85.414c0.557-0.279,0.743,0,0.464,0.743c-0.278,0.835,0.371,1.578,1.671,2.042
			c4.641,1.578,5.755,2.135,4.548,2.228c-0.362,0.045-0.21,0.424,0.312,1.012c5.092-0.82,10.24-1.297,15.409-1.458
			c-0.012-0.161-0.035-0.318-0.035-0.482c0-1.949-0.65-2.692-2.692-3.434c-1.764-0.65-2.97-0.65-3.62,0
			c-0.557,0.557-1.114,0.557-1.485-0.093c-0.371-0.557-0.186-1.021,0.464-1.021c0.65,0,0.464-0.557-0.557-1.207
			c-2.32-1.764-0.371-2.785,2.97-1.578l2.546,0.909l0.052,0.019l-0.122-0.111l-2.941-2.674c-1.671-1.485-3.806-2.785-4.827-2.785
			c-1.021,0-1.856-0.371-1.856-0.835c0-1.207-18.935-12.902-28.31-17.543c-7.054-3.527-20.699-7.611-25.247-7.611
			c-1.392,0-2.135,0.557-2.135,1.578c0,1.207,0.278,1.299,1.114,0.464c1.764-1.764,2.785-1.299,2.413,0.928
			c-0.186,1.485-1.299,2.413-3.991,3.156c-2.042,0.65-3.249,1.207-2.692,1.207c0.557,0.093,1.021,0.65,1.021,1.392
			c0,0.65-0.65,1.207-1.392,1.114c-1.671-0.278-2.32-6.033-0.928-7.704c2.135-2.599,0-3.713-9.189-5.012
			c-10.86-1.485-31.095-1.485-38.706,0c-3.063,0.557-5.662,1.207-5.848,1.392c-0.186,0.186,0.093,1.299,0.557,2.599
			c0.557,1.392,0.557,2.785,0,3.62c-0.743,1.021-1.207,0.928-2.692-0.835c-0.928-1.207-1.485-2.785-1.207-3.62
			c0.464-1.021,0.093-1.299-1.207-0.928c-0.928,0.278-4.177,1.207-7.147,2.042c-3.991,1.114-5.291,1.856-4.919,2.785
			c0.743,1.949-1.392,2.877-2.692,1.114c-0.928-1.392-2.042-1.114-10.581,2.135c-12.809,5.012-18.657,8.075-18.657,9.839
			c0,0.928-0.557,1.299-1.299,1.021c-0.485-0.2-1.426,0.279-2.497,1.097c-1.254,0.959-2.678,2.385-3.765,3.755
			c-1.005,1.266-1.721,2.482-1.721,3.223c0,0.835-0.371,1.392-0.743,1.114c-0.408-0.245-1.531,0.442-2.741,1.556
			c-0.168,0.155-0.338,0.317-0.507,0.487c-1.841,1.949-5.575,7.118-8.258,11.199c-1.917,2.915-3.298,5.277-3.066,5.509
			c0.186,0.186,1.949-0.835,3.898-2.32c0.237-0.187,0.519-0.398,0.827-0.625c2.25-1.655,6.271-4.303,10.27-6.826
			c5.544-3.499,11.032-6.75,11.644-6.75c0.371,0,0.743-0.928,0.743-2.042c0-1.671,0.186-1.856,0.928-0.743
			c0.569,0.948,0.541,1.333,6.112-1.121c2.175-0.958,5.21-2.352,9.464-4.313c0.856-0.395,1.752-0.808,2.71-1.25
			c3.156-1.392,6.126-2.599,6.59-2.599c0.464,0,4.177-1.114,8.168-2.413c4.084-1.299,8.168-2.599,9.189-2.785
			c1.021-0.186,3.991-0.743,6.497-1.299c5.706-1.151,11.633-1.821,17.529-2.018c3.952-0.132,7.888-0.049,11.734,0.258
			c1.523,0.121,3.034,0.27,4.524,0.461c1.805,0.234,3.564,0.5,5.305,0.781c7.94,1.282,15.278,3.073,22.516,5.542
			c10.025,3.42,19.876,8.138,30.934,14.654C206.138,84.393,209.387,85.785,209.851,85.414z M218.297,84.95
			c1.114,0,1.671,0.464,1.392,0.928c-0.278,0.557-0.928,0.928-1.392,0.928c-0.464,0-1.114-0.371-1.392-0.928
			C216.627,85.414,217.183,84.95,218.297,84.95z M83.523,61.002c-0.186,0.557-0.928,1.299-1.485,1.485
			c-0.65,0.186-0.928-0.186-0.557-1.114C82.131,59.703,84.08,59.332,83.523,61.002z"/>
		<path fill="#FFB1D6" d="M326.897,39.375c0,1.021,0.464,1.949,1.021,1.949c0.65,0,0.835,0.928,0.464,2.32
			c-0.743,2.785,0.371,4.919,4.734,9.839c3.898,4.27,7.611,4.827,10.489,1.485c6.497-7.426,7.333-8.075,10.117-8.075
			c4.084,0,10.303,2.135,10.303,3.434c0,0.65,0.371,1.207,0.743,1.207c0.464,0,1.299,1.114,1.949,2.413
			c0.835,1.949,1.299,2.228,2.413,1.299c1.949-1.671,1.764-3.249-0.65-4.919c-2.599-1.671-1.671-3.063,1.021-1.578
			c2.692,1.392,6.126,8.261,4.827,9.56c-0.743,0.743-1.392,0.557-2.228-0.743c-2.228-2.97-3.249-0.835-2.785,5.755
			c0.371,4.919,0,7.611-1.485,12.252c-1.856,5.291-1.949,6.033-0.557,7.426c1.578,1.764,1.856,3.806,0.557,3.806
			c-0.464,0-1.021-0.65-1.392-1.392c-0.65-1.671-2.413-1.485-3.898,0.464c-1.207,1.392-0.65,3.713,0.928,4.827
			c0.557,0.371,0.093,0.743-1.021,0.743c-1.207,0-2.135-0.371-2.135-0.928c0-0.464-0.371-0.928-0.928-0.928
			c-0.464,0-0.928,1.021-0.928,2.32c0,1.578-0.371,2.135-1.392,1.764c-0.65-0.278-2.692,0.464-4.363,1.764
			c-1.671,1.299-4.827,3.156-6.961,4.27c-2.413,1.207-3.713,2.413-3.434,3.156s-0.186,1.764-0.928,2.413
			c-0.743,0.65-1.114,1.949-0.743,3.063c0.279,1.299,0.093,1.764-0.557,1.299c-0.65-0.371-1.114-1.392-1.114-2.228
			c0-3.434-1.114-3.713-7.89-1.949c-3.527,0.928-8.261,1.671-10.396,1.671c-2.228,0.093-3.991,0.371-3.991,0.835
			c0,0.371-2.877,0.65-6.497,0.65c-3.527,0-6.497-0.279-6.497-0.65c0-0.901-2.848-0.922-4.792-0.372
			c2.77,1.683,5.508,3.503,8.142,5.412c0.085,0.057,0.167,0.117,0.248,0.179c1.831,1.428,2.166,4.056,0.769,5.901
			c0.718,0.561,1.429,1.13,2.133,1.707c-0.789-1.957,0.451-2.08,2.503,0.352c0.928,1.021,2.506,1.856,3.62,1.856
			c0.171,0,0.344,0.017,0.515,0.042c0.959-0.137,1.952,0.044,2.806,0.566c0.248-0.353,0.643-0.608,1.134-0.608
			c0.693,0,1.099,1.253,1.203,2.752c3.85,3.838,7.406,7.923,10.68,12.204c1.65-0.324,3.157-0.598,3.989-0.754
			c3.626-0.59,8.399-2.043,12.671-3.679c-0.065-0.197-0.134-0.393-0.192-0.593c-2.343-8.138,2.355-16.634,10.493-18.977
			c4.548-1.309,9.205-0.416,12.84,2.044c0.11-0.28,0.386-0.026,1.077,0.806c0.932,0.758,1.773,1.631,2.512,2.6l2.924-2.064
			c0.683-0.474,1.321-0.931,1.921-1.372c3.092-2.275,5.036-4.077,5.359-4.977c0.032-0.088,0.053-0.171,0.053-0.242
			c0-0.464-0.371-0.65-0.835-0.278c-0.464,0.278-1.114,0.093-1.485-0.371c-0.279-0.557,0.278-1.392,1.299-1.856
			c1.485-0.835,1.856-0.743,2.135,0.557c0.069,0.396,0.391,0.381,0.894,0.048c1.729-1.144,5.611-6.068,8.85-11.233
			c0.907-1.446,1.764-2.91,2.508-4.316c5.384-10.303,9.282-26.546,7.054-29.238c-0.65-0.743-0.835-1.764-0.464-2.32
			c0.139-0.219-0.064-0.588-0.465-1.022c-0.787-0.85-2.373-1.959-3.903-2.767c-1.326-0.701-2.6-1.173-3.243-1.038
			c-0.65,0.186-1.207-0.371-1.207-1.021c0-0.595-2.09-2.205-4.926-3.872c-0.601-0.353-1.236-0.708-1.892-1.058
			c-0.106-0.057-0.211-0.114-0.318-0.17c-0.004-0.002-0.007-0.004-0.011-0.006c-0.001-0.001-0.002-0.001-0.003-0.002
			c-11.043-5.661-16.147-6.217-12.342-1.391c2.32,2.97,2.32,3.991,0,3.991c-1.114,0-2.32-0.928-2.785-2.042
			c-1.207-2.97-3.249-5.384-4.548-5.384c-0.65,0-0.928-0.371-0.65-0.835c0.658-1.047-0.36-2.104-2.645-3.077
			c-2.185-0.931-5.53-1.785-9.7-2.481c-4.995-0.834-11.161-1.442-17.915-1.682c-2.803-0.103-4.989-0.183-6.7-0.224
			c-2.314-0.056-3.751-0.039-4.644,0.089C326.943,37.959,326.897,38.444,326.897,39.375z M316.686,117.437
			c-1.856,1.207-2.785,1.114-2.785,0c0-1.207,2.599-2.32,3.527-1.485C317.707,116.323,317.429,116.973,316.686,117.437z
			 M319.657,119.943c-0.557,0.278-0.928,0.835-0.557,1.299c0.278,0.464,0,0.835-0.557,0.835c-0.65,0-0.835-0.65-0.557-1.485
			c0.278-0.835,0.557-1.949,0.557-2.506c0-0.65,0.464-0.557,1.207,0.186C320.678,119.293,320.585,119.572,319.657,119.943z
			 M344.996,115.58c0.743,0,1.392,0.464,1.392,0.928c0,0.557-0.65,0.928-1.392,0.928s-1.392-0.371-1.392-0.928
			C343.604,116.045,344.254,115.58,344.996,115.58z M343.975,125.791c0.743,0,1.671,0.464,1.949,0.928
			c0.278,0.557-0.279,0.928-1.299,0.928c-1.114,0-1.949-0.371-1.949-0.928C342.676,126.255,343.233,125.791,343.975,125.791z
			 M340.263,118.829c0.278,0.743,0.186,1.392-0.278,1.392c-0.928,0-1.949-1.021-1.949-2.042
			C338.035,116.88,339.706,117.344,340.263,118.829z M333.301,110.661c0.743-0.743,1.021-0.65,1.021,0.464
			c0,0.835,0.464,1.671,1.114,1.856c0.65,0.278,0.743,0.65,0.278,0.928C334.229,114.838,332.094,111.868,333.301,110.661z
			 M333.858,129.875c1.856-1.392,3.434-1.299,3.898,0.278c0.186,0.464-1.021,0.928-2.692,1.021
			C332.187,131.267,332.094,131.174,333.858,129.875z M351.494,115.58c-0.278,0.557-0.928,0.928-1.392,0.928
			s-1.114-0.371-1.392-0.928c-0.278-0.464,0.279-0.928,1.392-0.928S351.772,115.116,351.494,115.58z M351.494,108.155
			c-0.278,0.557-1.207,0.928-1.949,0.928s-1.299-0.371-1.299-0.928c0-0.464,0.835-0.928,1.949-0.928
			C351.215,107.227,351.772,107.691,351.494,108.155z M354.186,112.796c-0.835,0-1.299-0.464-1.114-1.114
			c0.557-1.671,2.599-1.949,2.599-0.371C355.671,112.146,355.021,112.796,354.186,112.796z M360.312,99.337
			c-1.299-1.485-0.928-1.671,1.299-0.835c0.835,0.278,1.485,0.928,1.485,1.392C363.096,101.193,361.611,100.915,360.312,99.337z
			 M371.636,100.172c-0.278,2.32-0.743,3.063-1.671,2.692c-0.743-0.279-1.299,0-1.299,0.557c0,0.557,0.65,1.021,1.392,1.021
			c0.743,0,1.392,0.464,1.392,0.928c0,1.114,0,1.114-2.32-0.186c-2.692-1.578-3.806-2.877-4.548-5.198
			c-0.835-2.599,0.835-2.692,2.228-0.093c0.65,1.021,1.299,1.671,1.671,1.392c0.743-0.835-3.62-5.291-4.548-4.641
			c-0.464,0.278-0.557-0.279-0.186-1.114c0.464-1.207,0.278-1.485-0.928-1.021c-0.835,0.278-1.578,0.186-1.578-0.186
			c0-2.042,3.249-1.856,5.569,0.371c1.299,1.299,3.063,2.32,3.806,2.32C371.636,97.016,371.914,97.852,371.636,100.172z
			 M370.986,93.304c0.093-1.578,0.464-3.063,0.743-3.341c0.835-0.835,2.692,3.341,2.135,4.827
			C372.842,97.295,370.708,96.274,370.986,93.304z M376.648,111.311c-0.835-2.228-0.65-2.599,0.835-1.299
			c0.743,0.65,1.392,1.485,1.392,1.949C378.876,113.353,377.205,112.889,376.648,111.311z M378.412,106.298
			c-0.928,0-1.392-0.557-1.207-1.485c0.371-1.949,2.042-2.135,2.413-0.093C379.804,105.649,379.34,106.298,378.412,106.298z
			 M384.909,101.657c-0.743,0-1.392-0.186-1.392-0.371c0-0.186,0.65-0.835,1.392-1.485c1.114-0.928,1.392-0.928,1.392,0.371
			C386.301,101.008,385.652,101.657,384.909,101.657z M381.939,55.619c0.743-0.743,4.363,1.764,4.363,3.063
			c0,1.485,0,1.485-2.692-0.743C382.403,56.918,381.66,55.897,381.939,55.619z M378.597,97.016c1.392,0.371,2.042,0.835,1.485,0.835
			c-0.65,0.093-1.207,0.743-1.207,1.485c0,1.949-2.135,1.764-4.084-0.371c-1.299-1.485-1.392-1.764-0.186-2.228
			C375.349,96.46,377.112,96.552,378.597,97.016z M376.091,62.673c0.557,0,0.928,0.65,0.928,1.392c0,0.743-0.371,1.392-0.928,1.392
			c-0.464,0-0.928-0.65-0.928-1.392C375.163,63.323,375.627,62.673,376.091,62.673z M375.163,69.17c0,0.557-0.65,0.928-1.392,0.928
			s-1.392-0.371-1.392-0.928c0-0.464,0.65-0.928,1.392-0.928S375.163,68.706,375.163,69.17z M336.921,41.325
			c0.464,0,1.578,0.835,2.506,1.856c1.671,1.856,1.578,1.856-0.743,1.856c-1.856,0-2.506-0.464-2.506-1.856
			C336.179,42.16,336.55,41.325,336.921,41.325z M335.9,50.607c0,2.042,0,3.713-0.093,3.713c-0.464-0.093-4.27-5.012-4.27-5.569
			c0-0.743,2.228-1.856,3.62-1.856C335.622,46.894,335.9,48.564,335.9,50.607z"/>
		<path fill="#FFB1D6" d="M246.203,90.35l-7.021-3.358l-1.809,1.899l-0.048,0.05c-0.266,0.29-0.512,0.619-0.729,0.963
			c-0.004,0.006-0.007,0.013-0.011,0.019C239.789,89.938,242.997,90.077,246.203,90.35z"/>
		<path fill="#EAEAF0" d="M363.862,135.556c0.001,0,0.002,0,0.002,0c3.784,0,6.852-3.068,6.852-6.852s-3.068-6.852-6.852-6.852
			c-3.784,0-6.851,3.067-6.852,6.851C357.015,132.485,360.079,135.551,363.862,135.556z"/>
		<path fill="#EAEAF0" d="M370.619,203.843h-13.261c0.177,2.71,0.301,5.432,0.301,8.176v51.184h12.96V203.843z"/>
		<path fill="#EAEAF0" d="M113.419,214.093c0-3.427,0.179-6.845,0.47-10.25h-13.43v59.36h12.96V214.093z"/>
		<path fill="#EAEAF0" d="M151.044,346.105l-2.64,6.12c8.289,2.972,16.657,5.575,24.932,7.756
			c20.246,5.531,41.119,8.441,62.106,8.658c20.996-0.21,41.878-3.124,62.13-8.67c8.382-2.22,16.741-4.819,24.91-7.727l-10.553-24.52
			c-6.806,2.346-13.654,4.489-20.52,6.302c-18.211,4.998-36.987,7.643-55.869,7.868c-18.881-0.225-37.656-2.869-55.865-7.868
			c-8.346-2.215-16.583-4.805-24.694-7.744l-4.048,9.394l-2.094,4.859C150.983,341.465,151.971,343.957,151.044,346.105z"/>
		<polygon fill="#66C7F4" points="139.555,253.507 139.555,253.507 139.555,253.507 		"/>
		<path fill="#66C7F4" d="M308.059,119.09c-0.013,0.017-0.02,0.036-0.033,0.052c-1.441,1.847-4.106,2.177-5.953,0.737
			c-2.455-1.779-5.01-3.476-7.594-5.044h-0.007c-1.978-1.201-2.617-3.759-1.461-5.751c-2.63-1.471-5.319-2.848-8.069-4.119
			c-0.162-0.075-0.323-0.15-0.485-0.224c-0.003,0.007-0.004,0.015-0.007,0.022c-0.95,2.141-3.456,3.107-5.598,2.157
			c-13.464-5.553-27.875-8.451-42.439-8.534c-29.976-0.159-58.756,11.746-79.861,33.034c-22.038,21.886-34.502,51.616-34.661,82.675
			v53.269c0,0.029,0,0.053,0,0.082s0,0.053,0,0.082v19.408c0.014,9.732,5.694,18.564,14.543,22.614
			c14.648,6.697,29.836,12.14,45.403,16.271c17.502,4.813,35.549,7.363,53.7,7.589c18.148-0.229,36.193-2.781,53.693-7.594
			c7.793-2.055,15.588-4.494,23.305-7.272l0.041-0.024c0.034-0.015,0.07-0.031,0.107-0.031c7.405-2.669,14.73-5.648,21.948-8.939
			c8.848-4.051,14.528-12.883,14.543-22.614v-19.42c0-0.024,0-0.07,0-0.07v-0.07v-55.356c0.082-30.155-11.904-59.09-33.287-80.353
			c-0.47-0.473-0.928-0.933-1.413-1.391c-1.658-1.61-1.712-4.24-0.148-5.925c-1.351-1.215-2.729-2.399-4.136-3.552
			C309.488,120.22,308.777,119.651,308.059,119.09z M315.499,298.562c-50.994,22.209-108.926,22.209-159.92,0
			c-12.284-5.248-20.256-17.313-20.266-30.671v-10.141c0-2.343,1.899-4.242,4.242-4.242h0h0v-18.782
			c-2.343,0-4.242-1.899-4.242-4.242v-8.704c0-22.731,10.544-44.065,29.692-60.07c19.746-16.008,44.431-24.674,69.85-24.522h1.338
			c25.432-0.158,50.132,8.508,69.889,24.522c19.139,16.002,29.682,37.337,29.682,60.07v46.111
			C335.755,281.248,327.783,293.314,315.499,298.562z"/>
		<path fill="#EAEAF0" d="M143.796,257.749v10.141c0.011,9.965,5.963,18.964,15.13,22.874c48.856,21.294,104.37,21.294,153.225,0
			c9.166-3.911,15.117-12.909,15.13-22.874v-46.111c0-20.183-9.463-39.206-26.643-53.567
			c-18.237-14.746-41.022-22.712-64.474-22.542h-1.28c-23.442-0.166-46.216,7.8-64.443,22.542
			c-17.192,14.371-26.645,33.393-26.645,53.567v8.704c0,2.343-1.899,4.242-4.242,4.242v18.782l0,0
			C141.897,253.507,143.796,255.406,143.796,257.749z M262.774,159.657c0.75-2.218,3.157-3.408,5.375-2.658
			c10.436,3.467,20.135,8.847,28.601,15.864c3.362,2.806,6.479,5.893,9.317,9.228c0.036,0.041,0.071,0.082,0.105,0.124
			c1.48,1.816,1.207,4.488-0.609,5.968c-1.816,1.48-4.488,1.207-5.968-0.609c-2.524-2.964-5.296-5.708-8.287-8.2h0
			c-7.661-6.345-16.436-11.209-25.877-14.342C263.214,164.282,262.024,161.876,262.774,159.657z"/>
		<path fill="#717272" d="M357.659,286.935v-11.613v-3.635h17.209c2.34-0.003,4.236-1.901,4.234-4.242v-50.915v-16.928
			c0.001-2.341-1.896-4.24-4.237-4.242c-0.002,0-0.003,0-0.005,0v0h-6.763v-2.401v-49.53c8.138-2.343,12.836-10.839,10.493-18.977
			c-0.512-1.778-1.331-3.379-2.363-4.792c-0.062-0.084-0.121-0.17-0.185-0.252c-0.739-0.969-1.58-1.843-2.512-2.6
			c-0.349-0.283-0.706-0.555-1.077-0.806c-3.635-2.46-8.292-3.353-12.84-2.044c-8.138,2.343-12.836,10.839-10.493,18.977
			c0.058,0.201,0.126,0.396,0.192,0.593c1.59,4.783,5.432,8.498,10.302,9.9v51.931h-3.102
			c-2.832-20.976-11.111-40.735-23.859-57.398c-3.274-4.28-6.83-8.366-10.68-12.204c-0.027-0.027-0.052-0.055-0.079-0.081
			c-0.485-0.499-1.001-0.994-1.51-1.491c-0.231-0.225-0.485-0.41-0.749-0.572c-0.854-0.522-1.847-0.703-2.806-0.566
			c-0.898,0.128-1.764,0.526-2.444,1.228c-0.022,0.023-0.037,0.05-0.058,0.074c-1.565,1.685-1.51,4.316,0.148,5.925
			c0.485,0.458,0.943,0.919,1.413,1.391c21.383,21.263,33.369,50.198,33.287,80.353v55.356v0.07c0,0,0,0.046,0,0.07v19.42
			c-0.015,9.731-5.695,18.563-14.543,22.614c-7.218,3.292-14.543,6.271-21.948,8.939c-0.036,0-0.073,0.017-0.107,0.031l-0.041,0.024
			c-7.718,2.778-15.513,5.216-23.305,7.272c-17.5,4.813-35.544,7.365-53.693,7.594c-18.151-0.226-36.198-2.776-53.7-7.589
			c-15.567-4.131-30.756-9.575-45.403-16.271c-8.849-4.05-14.529-12.883-14.543-22.614v-19.408c0-0.029,0-0.053,0-0.082
			s0-0.053,0-0.082v-53.269c0.159-31.059,12.623-60.788,34.661-82.675c21.104-21.288,49.885-33.193,79.861-33.034
			c14.564,0.084,28.975,2.982,42.439,8.534c2.141,0.95,4.647-0.015,5.598-2.157c0.003-0.007,0.004-0.015,0.007-0.022
			c0.934-2.137-0.03-4.629-2.164-5.576c-0.072-0.032-0.144-0.062-0.217-0.089c-11.643-4.823-23.74-7.693-35.873-8.725
			c-3.206-0.273-6.414-0.412-9.618-0.427c-0.001,0-0.002,0-0.003,0c-0.532-0.003-1.064-0.009-1.596-0.004
			c-0.911,0.008-1.821,0.033-2.731,0.061c-5.17,0.161-10.318,0.639-15.409,1.458c-0.13,0.021-0.259,0.042-0.389,0.063
			c-21.212,3.486-41.443,12.643-58.347,26.978c-2.586,2.193-5.103,4.494-7.524,6.929c-7.013,6.981-13.133,14.722-18.283,23.037
			c-4.872,7.866-8.855,16.254-11.903,25.005c-1.744,5.007-3.178,10.132-4.285,15.352c-0.461,2.173-0.886,4.356-1.233,6.559H96.217
			c-2.343,0-4.242,1.899-4.242,4.242v19.508v39.399v8.936c0,2.343,1.899,4.242,4.242,4.242h2.636h14.573v15.248
			c0.008,6.344,1.823,12.396,5.036,17.573c2.591,4.174,6.09,7.779,10.315,10.493c0.409,0.263,0.834,0.505,1.256,0.751
			c0.933,0.543,1.886,1.06,2.88,1.516c7.233,3.306,14.596,6.308,22.066,9.014c8.111,2.939,16.348,5.529,24.694,7.744
			c18.209,4.999,36.983,7.643,55.865,7.868c18.883-0.225,37.659-2.869,55.869-7.868c6.867-1.813,13.714-3.956,20.52-6.302
			l10.553,24.52c-8.168,2.909-16.528,5.507-24.91,7.727c-20.252,5.546-41.134,8.46-62.13,8.67
			c-20.987-0.217-41.86-3.127-62.106-8.658c-8.275-2.181-16.642-4.785-24.932-7.756l2.64-6.12c0.927-2.148-0.061-4.64-2.206-5.571
			c-0.003-0.001-0.005-0.003-0.008-0.005c-2.151-0.928-4.648,0.063-5.576,2.214l-4.426,10.263c-0.928,2.151,0.063,4.647,2.214,5.575
			c0.065,0.028,0.131,0.055,0.198,0.08c9.916,3.699,19.985,6.906,29.925,9.533c20.956,5.715,42.558,8.716,64.278,8.929
			c21.729-0.214,43.341-3.229,64.3-8.968c10.09-2.666,20.149-5.868,29.896-9.506c1.457-0.544,2.421-1.807,2.677-3.235
			c0.129-0.723,0.089-1.485-0.186-2.223c-0.024-0.066-0.051-0.131-0.078-0.195l-12.136-28.189c5.749-2.177,11.463-4.494,17.101-7.03
			c0.383-0.172,0.769-0.336,1.151-0.511C350.028,311.831,357.642,299.985,357.659,286.935z M357.659,212.018
			c0-2.744-0.124-5.466-0.301-8.176h13.261v59.36h-12.96V212.018z M357.012,128.703c0.001-3.784,3.068-6.851,6.852-6.851
			c3.784,0,6.852,3.068,6.852,6.852s-3.068,6.852-6.852,6.852c-0.001,0-0.002,0-0.002,0
			C360.079,135.551,357.015,132.485,357.012,128.703z M100.458,203.843h13.43c-0.291,3.406-0.47,6.823-0.47,10.25v49.109h-12.96
			V203.843z"/>
		<path fill="#717272" d="M293.048,109.007c-0.015,0.025-0.022,0.052-0.037,0.077c-1.156,1.992-0.517,4.55,1.461,5.751h0.007
			c2.584,1.568,5.139,3.265,7.594,5.044c1.847,1.441,4.513,1.111,5.953-0.737c0.013-0.017,0.02-0.036,0.033-0.052
			c1.396-1.845,1.061-4.473-0.769-5.901c-0.08-0.063-0.163-0.123-0.248-0.179c-2.634-1.909-5.373-3.729-8.142-5.412
			c-0.008-0.005-0.016-0.01-0.024-0.015c-1.383-0.84-3.047-0.778-4.35-0.011C293.943,107.916,293.424,108.387,293.048,109.007z"/>
		<polygon fill="#717272" points="139.555,253.507 139.555,253.507 139.555,253.507 		"/>
		<path fill="#717272" d="M335.764,267.89v-46.111c0-22.733-10.544-44.068-29.682-60.07c-19.757-16.014-44.457-24.68-69.889-24.522
			h-1.338c-25.419-0.152-50.104,8.514-69.85,24.522c-19.148,16.005-29.692,37.339-29.692,60.07v8.704
			c0,2.343,1.899,4.242,4.242,4.242c2.343,0,4.242-1.899,4.242-4.242v-8.704c0-20.174,9.453-39.196,26.645-53.567
			c18.227-14.742,41.001-22.708,64.443-22.542h1.28c23.452-0.17,46.237,7.796,64.474,22.542
			c17.18,14.361,26.643,33.384,26.643,53.567v46.111c-0.012,9.965-5.964,18.963-15.13,22.874
			c-48.856,21.294-104.37,21.294-153.225,0c-9.166-3.91-15.118-12.908-15.13-22.874v-10.141c0-2.343-1.899-4.242-4.242-4.242l0,0
			c-2.343,0-4.242,1.899-4.242,4.242v10.141c0.01,13.358,7.982,25.424,20.266,30.671c50.993,22.209,108.926,22.209,159.92,0
			C327.783,293.314,335.755,281.248,335.764,267.89z"/>
		<path fill="#717272" d="M265.432,165.032c9.441,3.133,18.216,7.997,25.877,14.342h0c2.991,2.492,5.763,5.235,8.287,8.2
			c1.48,1.816,4.152,2.088,5.968,0.609c1.816-1.48,2.088-4.152,0.609-5.968c-0.034-0.042-0.069-0.083-0.105-0.124
			c-2.838-3.335-5.955-6.422-9.317-9.228c-8.466-7.017-18.166-12.397-28.601-15.864c-2.218-0.75-4.625,0.44-5.375,2.658
			S263.214,164.282,265.432,165.032z"/>
	</g>
</g>
</svg>
