<?xml version="1.0" encoding="utf-8"?>
<!-- Generator: Adobe Illustrator 25.0.0, SVG Export Plug-In . SVG Version: 6.00 Build 0)  -->
<svg version="1.1" xmlns="http://www.w3.org/2000/svg" xmlns:xlink="http://www.w3.org/1999/xlink" x="0px" y="0px"
	 viewBox="0 0 520 520" style="enable-background:new 0 0 520 520;" xml:space="preserve">
<style type="text/css">
	.st0{fill:#FE039D;}
	.st1{fill:#FFFFFF;}
</style>
<g id="Layer_2">
	<path class="st0" d="M516,260c0,141.4-114.6,256-256,256S4,401.4,4,260S118.6,4,260,4S516,118.6,516,260z"/>
</g>
<g id="Layer_3">
	<g>
		<g>
			<circle class="st1" cx="385.6" cy="149.9" r="10.7"/>
		</g>
	</g>
	<g>
		<g>
			<path class="st1" d="M423.4,112.1c-20.6-20.6-54.6-18.8-72.8,4l-104.1,126l-6.8-6.8c-20.8-20.8-54.8-20.8-75.6,0l-30.2,30.2
				c-4.2,4.2-10.9,4.2-15.1,0c-4.2-4.2-4.2-10.9,0-15.1c4.2-4.2,4.2-10.9,0-15.1c-4.2-4.2-10.9-4.2-15.1,0c0,0,0,0,0,0l-15.1,15.1
				c-20.9,20.9-20.9,54.7,0,75.6c3.6,3.6,84.8,84.8,90.7,90.7c20.9,20.9,54.7,20.9,75.6,0l45.4-45.4c20.9-20.9,20.9-54.7,0-75.6
				l-6.8-6.8l126-104.1C442.1,166.7,444,132.8,423.4,112.1z M239.7,401.6c-12.5,12.5-32.8,12.5-45.4,0l0,0
				c11.1-1.6,21.8-6.6,30.3-15.1c4.2-4.2,4.2-10.9,0-15.1c-4.2-4.2-10.9-4.2-15.1,0c-12.5,12.5-32.9,12.5-45.4,0L149,356.3
				c11.1-1.6,21.8-6.6,30.3-15.1c4.2-4.2,4.2-10.9,0-15.1c-4.2-4.2-10.9-4.2-15.1,0c-12.5,12.5-32.9,12.5-45.4,0l-15.1-15.1
				c-10.4-10.4-12-25.9-5.6-37.8c1.5,2.7,3.4,5.3,5.6,7.6c12.5,12.5,32.9,12.5,45.4,0l22.7-22.7c1.1,1.1,99.3,99.3,105.8,105.8
				L239.7,401.6z M291.3,347.4c-11.7-11.7-93-93-103.3-103.3c11.9-5.7,26.6-3.6,36.5,6.3c15.3,15.3,46.3,46.3,60.5,60.5
				C295.1,321,296.9,335.8,291.3,347.4z M406,168.3c0,0-0.1,0.1-0.1,0.1L278.2,273.8l-16.5-16.5l105.4-127.7c0,0,0.1-0.1,0.1-0.1
				c10.4-13,29.5-13.8,41-2.3C419.8,138.8,418.9,157.9,406,168.3z"/>
		</g>
	</g>
	<g>
		<g>
			<path class="st1" d="M169.7,133.1c-17.7,0-32.1,14.4-32.1,32.1s14.4,32.1,32.1,32.1s32.1-14.4,32.1-32.1
				C201.8,147.5,187.4,133.1,169.7,133.1z M169.7,175.8c-5.9,0-10.7-4.8-10.7-10.7s4.8-10.7,10.7-10.7s10.7,4.8,10.7,10.7
				C180.4,171,175.6,175.8,169.7,175.8z"/>
		</g>
	</g>
	<g>
		<g>
			<path class="st1" d="M394.2,282.7c-11.8,0-21.4,9.6-21.4,21.4s9.6,21.4,21.4,21.4s21.4-9.6,21.4-21.4S406,282.7,394.2,282.7z"/>
		</g>
	</g>
	<g>
		<g>
			<path class="st1" d="M362.2,389.7h-10.7V379c0-5.9-4.8-10.7-10.7-10.7c-5.9,0-10.7,4.8-10.7,10.7v10.7h-10.7
				c-5.9,0-10.7,4.8-10.7,10.7c0,5.9,4.8,10.7,10.7,10.7h10.7v10.7c0,5.9,4.8,10.7,10.7,10.7c5.9,0,10.7-4.8,10.7-10.7V411h10.7
				c5.9,0,10.7-4.8,10.7-10.7C372.9,394.4,368.1,389.7,362.2,389.7z"/>
		</g>
	</g>
</g>
</svg>
