<?xml version="1.0" encoding="utf-8"?>
<!-- Generator: Adobe Illustrator 25.0.0, SVG Export Plug-In . SVG Version: 6.00 Build 0)  -->
<svg version="1.1" id="Capa_1" xmlns="http://www.w3.org/2000/svg" xmlns:xlink="http://www.w3.org/1999/xlink" x="0px" y="0px"
	 viewBox="0 0 520 520" enable-background="new 0 0 520 520" xml:space="preserve">
<g>
	<path fill="#6C6EA0" d="M263.268,272.761c22.072,0,40.2-5.921,56.545-18.55l-26.772-28.504h-59.547l-26.772,28.503
		C223.067,266.84,241.195,272.761,263.268,272.761L263.268,272.761z"/>
	<path fill="#6C6EA0" d="M260,4C118.613,4,4,118.613,4,260s114.613,256,256,256s256-114.613,256-256S401.387,4,260,4z
		 M276.677,53.008c0-3.319,2.69-6.008,6.008-6.008c3.318,0,6.008,2.689,6.008,6.008v45.603c0,3.319-2.69,6.008-6.008,6.008
		c-3.318,0-6.008-2.69-6.008-6.008V53.008z M224.894,193.806c0-3.319,2.69-6.008,6.008-6.008h6.939V53.008
		c0-3.319,2.69-6.008,6.008-6.008c3.318,0,6.008,2.689,6.008,6.008v134.79h26.822v-61.151c0-3.319,2.69-6.008,6.008-6.008
		c3.318,0,6.008,2.689,6.008,6.008v61.149h6.943c3.318,0,6.008,2.689,6.008,6.008v23.509l63.586,67.703
		c2.271,2.419,2.152,6.221-0.267,8.493c-1.159,1.089-2.637,1.628-4.112,1.628c-1.6,0-3.198-0.636-4.38-1.894L328.069,263
		c-7.216,5.68-14.831,10.233-22.908,13.674l8.063,17.367c1.397,3.01,0.09,6.582-2.92,7.979c-0.819,0.38-1.679,0.56-2.526,0.56
		c-2.266,0-4.436-1.289-5.453-3.48l-8.542-18.397c-7.748,2.214-15.904,3.516-24.506,3.926v21.652c0,3.319-2.69,6.008-6.008,6.008
		c-3.318,0-6.008-2.689-6.008-6.008v-21.652c-8.603-0.41-16.758-1.711-24.506-3.926l-8.542,18.397
		c-1.017,2.192-3.187,3.48-5.453,3.48c-0.847,0-1.707-0.179-2.526-0.56c-3.01-1.397-4.317-4.97-2.92-7.979l8.063-17.367
		c-8.077-3.442-15.693-7.995-22.909-13.675l-28.331,30.164c-1.182,1.258-2.779,1.894-4.38,1.894v0c-1.475,0-2.953-0.54-4.111-1.628
		c-2.418-2.272-2.538-6.073-0.266-8.493l63.514-67.623V193.806z M146.934,210.758h6.408v-6.408c0-3.539,2.869-6.408,6.408-6.408
		c3.539,0,6.408,2.869,6.408,6.408v6.408h6.408c3.539,0,6.408,2.869,6.408,6.408s-2.869,6.408-6.408,6.408h-6.408v6.408
		c0,3.539-2.869,6.408-6.408,6.408c-3.539,0-6.408-2.869-6.408-6.408v-6.408h-6.408c-3.539,0-6.408-2.869-6.408-6.408
		S143.395,210.758,146.934,210.758z M102.259,264.082h6.408v-6.408c0-3.539,2.869-6.408,6.408-6.408s6.408,2.869,6.408,6.408v6.408
		h6.408c3.539,0,6.408,2.869,6.408,6.408s-2.869,6.408-6.408,6.408h-6.408v6.408c0,3.539-2.869,6.408-6.408,6.408
		s-6.408-2.869-6.408-6.408v-6.408h-6.408c-3.539,0-6.408-2.869-6.408-6.408S98.72,264.082,102.259,264.082z M438.286,369.344
		c-0.385,0.615-9.651,15.279-28.764,32.567c-1.286,1.162-3.011,1.714-4.731,1.512l-12.342-1.45l-1.196,12.179
		c-0.171,1.745-1.097,3.328-2.534,4.334c-20.032,14.025-42.123,24.393-65.658,30.818c-1.725,0.472-3.569,0.148-5.032-0.878
		l-9.418-6.605l-6.565,10.11c-0.937,1.443-2.447,2.414-4.149,2.669c-11.222,1.681-22.873,2.534-34.63,2.534
		s-23.408-0.852-34.63-2.535c-1.701-0.255-3.212-1.226-4.149-2.669l-6.565-10.11l-9.418,6.605c-1.463,1.027-3.307,1.351-5.032,0.878
		c-23.535-6.424-45.626-16.792-65.658-30.818c-1.437-1.005-2.362-2.588-2.534-4.334l-1.196-12.179l-12.342,1.45
		c-1.72,0.203-3.445-0.349-4.731-1.512c-19.113-17.288-28.379-31.951-28.764-32.567c-1.447-2.312-1.154-5.31,0.715-7.298
		l53.229-56.674c2.272-2.418,6.074-2.537,8.493-0.266c2.418,2.272,2.538,6.073,0.266,8.493l-49.901,53.13
		c3.594,4.907,10.908,14.102,22.025,24.439l13-1.526l11.403-16.392c1.895-2.723,5.638-3.395,8.363-1.501
		c2.724,1.895,3.396,5.639,1.501,8.363l-11.68,16.79l1.307,13.301c6.654,4.526,13.543,8.626,20.64,12.295l4.442-9.518
		c1.403-3.007,4.978-4.309,7.985-2.903c3.007,1.403,4.306,4.978,2.904,7.985l-4.493,9.628c8.258,3.654,16.766,6.751,25.491,9.264
		l10.399-7.295l5.099-18.937c0.863-3.203,4.158-5.101,7.363-4.239c3.204,0.863,5.102,4.159,4.239,7.363l-4.969,18.455l7.011,10.796
		c7.887,1.077,15.99,1.72,24.179,1.934v-9.281c0-3.319,2.69-6.008,6.008-6.008c3.318,0,6.008,2.689,6.008,6.008v9.281
		c8.19-0.214,16.292-0.856,24.179-1.934l7.011-10.796l-4.97-18.453c-0.863-3.204,1.035-6.5,4.239-7.363
		c3.205-0.861,6.5,1.036,7.363,4.239l5.099,18.937l10.399,7.295c8.726-2.514,17.234-5.61,25.492-9.264l-4.493-9.628
		c-1.403-3.007-0.103-6.582,2.904-7.985c3.006-1.405,6.581-0.104,7.985,2.903l4.442,9.518c7.097-3.67,13.986-7.77,20.64-12.295
		l1.307-13.301l-11.68-16.79c-1.894-2.724-1.222-6.468,1.501-8.363c2.724-1.893,6.468-1.222,8.363,1.501l11.403,16.392l13,1.526
		c11.116-10.337,18.43-19.529,22.025-24.44l-49.821-53.05c-2.271-2.419-2.152-6.222,0.267-8.493c2.418-2.271,6.22-2.152,8.493,0.266
		l53.149,56.593C439.439,364.033,439.732,367.031,438.286,369.344z"/>
	<rect x="236.908" y="199.813" fill="#6C6EA0" width="52.719" height="13.878"/>
	<path fill="#FFFFFF" d="M384.423,305.452c-2.273-2.418-6.074-2.537-8.493-0.266c-2.419,2.271-2.538,6.073-0.267,8.493l49.821,53.05
		c-3.595,4.91-10.909,14.103-22.025,24.44l-13-1.526l-11.403-16.392c-1.894-2.723-5.639-3.394-8.363-1.501
		c-2.724,1.895-3.396,5.639-1.501,8.363l11.68,16.79l-1.307,13.301c-6.654,4.525-13.543,8.626-20.64,12.295l-4.442-9.518
		c-1.403-3.007-4.978-4.308-7.985-2.903c-3.006,1.403-4.306,4.978-2.904,7.985l4.493,9.628c-8.258,3.654-16.766,6.75-25.492,9.264
		l-10.399-7.295l-5.099-18.937c-0.863-3.203-4.158-5.1-7.363-4.239c-3.204,0.863-5.102,4.159-4.239,7.363l4.97,18.453l-7.011,10.796
		c-7.887,1.077-15.99,1.72-24.179,1.934v-9.281c0-3.319-2.69-6.008-6.008-6.008c-3.318,0-6.008,2.689-6.008,6.008v9.281
		c-8.19-0.214-16.292-0.856-24.179-1.934l-7.011-10.796l4.969-18.455c0.863-3.204-1.035-6.5-4.239-7.363
		c-3.205-0.862-6.5,1.036-7.363,4.239l-5.099,18.937l-10.399,7.295c-8.726-2.513-17.234-5.61-25.491-9.264l4.493-9.628
		c1.403-3.007,0.103-6.582-2.904-7.985c-3.006-1.406-6.582-0.104-7.985,2.903l-4.442,9.518c-7.097-3.67-13.986-7.769-20.64-12.295
		l-1.307-13.301l11.68-16.79c1.895-2.724,1.222-6.468-1.501-8.363c-2.724-1.894-6.468-1.222-8.363,1.501l-11.403,16.392l-13,1.526
		c-11.118-10.337-18.432-19.532-22.025-24.439l49.901-53.13c2.272-2.419,2.152-6.221-0.266-8.493
		c-2.418-2.271-6.221-2.152-8.493,0.266l-53.229,56.674c-1.868,1.988-2.161,4.986-0.715,7.298
		c0.385,0.616,9.651,15.279,28.764,32.567c1.286,1.162,3.011,1.714,4.731,1.512l12.342-1.45l1.196,12.179
		c0.171,1.745,1.097,3.328,2.534,4.334c20.032,14.025,42.123,24.393,65.658,30.818c1.725,0.473,3.569,0.149,5.032-0.878l9.418-6.605
		l6.565,10.11c0.936,1.443,2.447,2.414,4.149,2.669c11.223,1.683,22.874,2.535,34.63,2.535s23.408-0.852,34.63-2.534
		c1.701-0.255,3.211-1.226,4.149-2.669l6.565-10.11l9.418,6.605c1.463,1.026,3.307,1.35,5.032,0.878
		c23.535-6.424,45.626-16.792,65.658-30.818c1.436-1.005,2.362-2.588,2.534-4.334l1.196-12.179l12.342,1.45
		c1.72,0.203,3.445-0.349,4.731-1.512c19.113-17.288,28.378-31.952,28.764-32.567c1.446-2.313,1.153-5.311-0.715-7.299
		L384.423,305.452z"/>
	<path fill="#FFFFFF" d="M161.646,293.43c1.158,1.088,2.636,1.628,4.111,1.628v0c1.601,0,3.198-0.636,4.38-1.894l28.331-30.164
		c7.216,5.68,14.832,10.233,22.909,13.675l-8.063,17.367c-1.397,3.01-0.091,6.582,2.92,7.979c0.819,0.38,1.679,0.56,2.526,0.56
		c2.266,0,4.436-1.288,5.453-3.48l8.542-18.397c7.748,2.215,15.903,3.516,24.506,3.926v21.652c0,3.319,2.69,6.008,6.008,6.008
		c3.318,0,6.008-2.689,6.008-6.008v-21.652c8.602-0.41,16.758-1.712,24.506-3.926l8.542,18.397c1.017,2.191,3.187,3.48,5.453,3.48
		c0.847,0,1.707-0.18,2.526-0.56c3.01-1.397,4.317-4.97,2.92-7.979l-8.063-17.367c8.077-3.441,15.692-7.994,22.908-13.674
		l28.404,30.242c1.182,1.258,2.78,1.894,4.38,1.894c1.475,0,2.953-0.54,4.112-1.628c2.419-2.272,2.538-6.073,0.267-8.493
		l-63.586-67.703v-23.509c0-3.319-2.69-6.008-6.008-6.008h-6.943v-61.149c0-3.319-2.69-6.008-6.008-6.008
		c-3.318,0-6.008,2.689-6.008,6.008v61.151h-26.822V53.008c0-3.319-2.69-6.008-6.008-6.008c-3.318,0-6.008,2.689-6.008,6.008v134.79
		h-6.939c-3.318,0-6.008,2.689-6.008,6.008v23.509l-63.514,67.623C159.108,287.357,159.227,291.158,161.646,293.43z
		 M236.908,199.813h52.719v13.878h-52.719V199.813z M233.495,225.707h59.547l26.772,28.504
		c-16.345,12.629-34.474,18.55-56.545,18.55v0c-22.073,0-40.201-5.92-56.545-18.55L233.495,225.707z"/>
	<path fill="#FFFFFF" d="M282.685,104.619c3.318,0,6.008-2.689,6.008-6.008V53.008c0-3.319-2.69-6.008-6.008-6.008
		c-3.318,0-6.008,2.689-6.008,6.008v45.603C276.677,101.929,279.367,104.619,282.685,104.619z"/>
	<path fill="#FFFFFF" d="M146.934,223.574h6.408v6.408c0,3.539,2.869,6.408,6.408,6.408c3.539,0,6.408-2.869,6.408-6.408v-6.408
		h6.408c3.539,0,6.408-2.869,6.408-6.408s-2.869-6.408-6.408-6.408h-6.408v-6.408c0-3.539-2.869-6.408-6.408-6.408
		c-3.539,0-6.408,2.869-6.408,6.408v6.408h-6.408c-3.539,0-6.408,2.869-6.408,6.408S143.395,223.574,146.934,223.574z"/>
	<path fill="#FFFFFF" d="M102.259,276.898h6.408v6.408c0,3.539,2.869,6.408,6.408,6.408s6.408-2.869,6.408-6.408v-6.408h6.408
		c3.539,0,6.408-2.869,6.408-6.408s-2.869-6.408-6.408-6.408h-6.408v-6.408c0-3.539-2.869-6.408-6.408-6.408
		s-6.408,2.869-6.408,6.408v6.408h-6.408c-3.539,0-6.408,2.869-6.408,6.408S98.72,276.898,102.259,276.898z"/>
</g>
</svg>
