<?xml version="1.0" encoding="utf-8"?>
<!-- Generator: Adobe Illustrator 25.0.0, SVG Export Plug-In . SVG Version: 6.00 Build 0)  -->
<svg version="1.1" id="Capa_1" xmlns="http://www.w3.org/2000/svg" xmlns:xlink="http://www.w3.org/1999/xlink" x="0px" y="0px"
	 viewBox="0 0 512 512" enable-background="new 0 0 512 512" xml:space="preserve">
<path fill="#FE039D" d="M512,256c0,141.387-114.613,256-256,256S0,397.387,0,256S114.613,0,256,0S512,114.613,512,256z"/>
<g>
	<path fill="#FFFFFF" d="M134.744,169.064c-4.659,6.105-7.948,7.218-7.948,2.051v-9.373c0-13.441-10.896-24.337-24.337-24.337
		s-24.337,10.896-24.337,24.337v83.44c0,13.441,10.896,24.337,24.337,24.337h83.44c13.441,0,24.337-10.896,24.337-24.337
		s-10.896-24.337-24.337-24.337c0,0-4.026,0-8.998,0s-6.369-5.681-2.156-12.099c19.136-29.114,51.941-47.248,87.397-47.248
		c57.643,0,104.537,46.893,104.537,104.537c0,57.636-46.893,104.53-104.537,104.53c-15.36,0-27.813,12.453-27.813,27.813
		s12.453,27.813,27.813,27.813c88.314,0.007,160.163-71.842,160.163-160.149c0-88.314-71.849-160.163-160.163-160.163
		C211.655,105.872,164.657,129.868,134.744,169.064z"/>
</g>
</svg>
