<?xml version="1.0" encoding="utf-8"?>
<!-- Generator: Adobe Illustrator 25.0.0, SVG Export Plug-In . SVG Version: 6.00 Build 0)  -->
<svg version="1.1" id="Capa_1" xmlns="http://www.w3.org/2000/svg" xmlns:xlink="http://www.w3.org/1999/xlink" x="0px" y="0px"
	 viewBox="0 0 512 512" enable-background="new 0 0 512 512" xml:space="preserve">
<g>
	<path fill="#FE039D" d="M256,0C114.613,0,0,114.613,0,256s114.613,256,256,256s256-114.613,256-256S397.387,0,256,0z
		 M269.958,457.191c-17.973,0-32.545-14.572-32.545-32.545s14.572-32.545,32.545-32.545c67.449,0,122.32-54.87,122.32-122.311
		c0-67.449-54.871-122.32-122.32-122.32c-41.486,0-79.873,21.219-102.264,55.285c-4.931,7.51-3.295,14.157,2.522,14.157
		s10.528,0,10.528,0c15.727,0,28.477,12.749,28.477,28.477c0,15.727-12.749,28.477-28.477,28.477H83.11
		c-15.727,0-28.477-12.749-28.477-28.477v-97.634c0-15.727,12.749-28.477,28.477-28.477c15.727,0,28.477,12.749,28.477,28.477
		v10.968c0,6.045,3.848,4.743,9.3-2.4c35.002-45.864,89.994-73.942,149.071-73.934c103.338,0,187.409,84.071,187.409,187.409
		C457.367,373.128,373.296,457.2,269.958,457.191z"/>
	<path fill="#FFFFFF" d="M269.958,82.389c-59.077-0.008-114.069,28.07-149.071,73.934c-5.451,7.144-9.3,8.445-9.3,2.4v-10.968
		c0-15.727-12.749-28.477-28.477-28.477c-15.727,0-28.477,12.749-28.477,28.477v97.634c0,15.727,12.749,28.477,28.477,28.477h97.634
		c15.727,0,28.477-12.749,28.477-28.477c0-15.727-12.749-28.477-28.477-28.477c0,0-4.711,0-10.528,0s-7.453-6.647-2.522-14.157
		c22.391-34.066,60.777-55.285,102.264-55.285c67.449,0,122.32,54.871,122.32,122.32c0,67.441-54.871,122.311-122.32,122.311
		c-17.973,0-32.545,14.572-32.545,32.545s14.572,32.545,32.545,32.545c103.338,0.008,187.409-84.063,187.409-187.393
		C457.367,166.461,373.296,82.389,269.958,82.389z"/>
</g>
</svg>
