<?xml version="1.0" encoding="utf-8"?>
<!-- Generator: Adobe Illustrator 25.0.0, SVG Export Plug-In . SVG Version: 6.00 Build 0)  -->
<svg version="1.1" id="Layer_1" xmlns="http://www.w3.org/2000/svg" xmlns:xlink="http://www.w3.org/1999/xlink" x="0px" y="0px"
	 viewBox="0 0 680 680" enable-background="new 0 0 680 680" xml:space="preserve">
<ellipse fill="#E8E8E8" cx="340" cy="340" rx="320.5" ry="326"/>
<path fill="#FF1053" d="M372.688,343.003L507.9,207.786c8.799-8.795,8.799-23.016,0-31.811c-8.795-8.795-23.016-8.795-31.811,0
	L340.873,311.191L205.661,175.975c-8.799-8.795-23.016-8.795-31.811,0c-8.799,8.795-8.799,23.016,0,31.811l135.212,135.216
	L173.849,478.219c-8.799,8.795-8.799,23.016,0,31.811c4.383,4.387,10.146,6.591,15.906,6.591c5.759,0,11.518-2.204,15.906-6.591
	l135.212-135.216L476.089,510.03c4.387,4.387,10.146,6.591,15.906,6.591s11.518-2.204,15.906-6.591
	c8.799-8.795,8.799-23.016,0-31.811L372.688,343.003z"/>
</svg>
