<?xml version="1.0" encoding="utf-8"?>
<!-- Generator: Adobe Illustrator 25.0.0, SVG Export Plug-In . SVG Version: 6.00 Build 0)  -->
<svg version="1.1" xmlns="http://www.w3.org/2000/svg" xmlns:xlink="http://www.w3.org/1999/xlink" x="0px" y="0px"
	 viewBox="0 0 1931.424 444.39" enable-background="new 0 0 1931.424 444.39" xml:space="preserve">
<g id="Layer_1">
	<g id="layer101">
		<path fill="#FE039D" d="M258.162,426.489c-6.497-2.692-0.278,2.32-51.237-41.305c-58.662-50.308-72.214-62.468-94.212-84.466
			c-33.508-33.601-51.979-59.776-63.582-90.221c-9.653-25.061-11.695-58.012-5.569-86.23c3.063-13.923,5.662-21.441,12.067-34.529
			c8.354-16.893,20.235-32.301,32.951-42.976c19.028-15.779,35.457-23.669,60.611-28.96c10.86-2.32,38.335-2.228,47.988,0
			c28.124,6.683,45.575,16.429,65.716,36.571l8.539,8.632l8.632-8.632c16.058-16.151,33.415-27.289,50.772-32.487
			c16.893-5.105,20.884-5.755,38.52-5.662c17.543,0,23.391,0.835,40.098,5.476c20.792,5.848,45.76,22.741,59.962,40.562
			c17.172,21.534,24.969,38.613,31.28,68.408c2.877,13.459,2.97,41.119,0.186,53c-1.021,4.363-2.413,10.396-2.97,13.459
			c-3.341,16.429-17.636,44.554-33.044,64.603c-21.349,28.032-47.524,53.464-113.612,110.084
			c-12.531,10.674-31.095,26.639-41.305,35.457c-22.37,19.214-25.247,20.792-37.592,21.256
			C264.753,428.717,262.803,428.438,258.162,426.489z"/>
	</g>
	<g id="layer102">
		<path fill="#F56B95" d="M263.082,418.971c-2.599-0.835-7.054-3.713-11.695-7.611c-22.277-18.657-84.837-72.864-84.837-73.421
			c0.093-0.371,3.527-3.249,7.704-6.312c25.34-18.935,40.191-24.876,61.911-24.783c16.429,0.093,29.517,3.249,53.093,12.809
			c22.741,9.282,44.089,16.522,48.916,16.615c2.32,0,4.734,0.557,5.198,1.207c0.928,1.114,17.821,4.919,21.998,4.919
			c6.126,0.093,4.734,1.485-30.816,32.116c-50.68,43.625-49.844,42.883-55.135,44.461
			C273.756,420.641,268.651,420.641,263.082,418.971z"/>
		<path fill="#F56B95" d="M156.339,315.012c0.093-2.413,0.186-2.599,1.021-1.114c0.743,1.299,0.743,2.042,0,2.785
			C156.617,317.426,156.339,316.962,156.339,315.012z"/>
		<path fill="#F56B95" d="M311.812,309.907c-0.371-0.557-0.278-1.485,0.278-2.042c1.207-1.207,2.135,0.371,1.207,1.949
			C312.648,310.743,312.369,310.743,311.812,309.907z"/>
		<path fill="#F56B95" d="M199.036,306.659c0-0.743,0.65-1.392,1.392-1.392c1.578,0,1.856-2.32,0.464-3.249
			c-1.764-1.114-0.928-2.135,2.135-2.599c1.578-0.371,4.455-0.835,6.219-1.114l3.249-0.557l-3.156,2.042
			c-3.713,2.506-2.32,3.527,1.949,1.392c3.898-2.042,4.27-1.299,1.021,2.228c-2.506,2.692-2.97,2.785-5.198,1.764
			c-2.228-1.021-2.785-0.928-4.641,0.835C199.964,308.422,199.036,308.608,199.036,306.659z"/>
		<path fill="#F56B95" d="M388.853,306.009c-0.371-0.928-3.249-1.114-11.046-0.928c-22.648,0.65-49.844-4.548-73.421-14.201
			c-37.406-15.222-44.646-17.357-65.252-19.214c-12.716-1.114-30.909-0.093-38.335,2.135c-1.764,0.464-4.455,1.114-6.126,1.392
			c-4.641,0.65-16.429,5.105-17.264,6.59c-0.464,0.743-1.485,1.021-2.506,0.743c-1.114-0.371-8.075,2.785-20.142,8.911
			c-10.117,5.198-19.956,10.303-21.998,11.324l-3.527,1.856l-14.109-14.294c-7.704-7.89-15.13-15.594-16.429-17.079
			c-18.657-21.534-33.137-44.739-40.655-65.252c-7.518-20.328-11.046-46.596-8.539-64.046c0.835-6.033,2.32-7.333,16.522-14.758
			c5.569-2.877,10.21-5.569,10.303-6.033c0.186-0.371,0.65-0.557,1.114-0.278c0.371,0.186,4.177-1.021,8.539-2.785
			c17.636-7.054,46.41-13.552,66.552-14.944c8.354-0.557,9.282-0.835,9.746-2.599c0.557-1.764,0.743-1.764,1.764-0.464
			c0.835,1.114,4.548,1.671,16.708,2.506c26.082,1.856,44.461,6.497,62.282,15.594c15.222,7.797,23.298,14.016,50.216,38.799
			c20.513,18.935,39.727,33.044,44.832,33.044c1.114,0,2.042,0.464,2.042,0.928c0,0.557,0.464,0.928,0.928,0.928
			c0.557,0,0.928-1.021,0.928-2.228c0-3.806,1.578-3.527,2.228,0.371c0.557,3.342,1.299,4.177,3.713,3.806
			c0.371-0.093,1.299,0.278,1.949,0.835c1.856,1.578,16.336,1.299,21.998-0.371c6.497-1.856,19.121-8.447,37.499-19.399
			c8.168-4.919,16.058-9.375,17.357-10.025c1.671-0.743,2.506-1.856,2.506-3.249c0-2.599,1.485-3.713,2.506-1.764
			c0.65,1.114,2.413,0.65,11.231-3.249c5.755-2.599,11.602-4.919,13.088-5.198c2.135-0.464,2.599-0.928,2.228-2.599
			c-0.371-1.856-0.371-1.856,0.928-0.278c1.207,1.485,1.764,1.485,7.24,0.186c6.683-1.578,21.813-1.856,25.34-0.464
			c2.32,0.835,2.413,1.207,2.413,7.797c0,8.539-2.228,25.433-4.641,34.993c-7.797,30.723-27.011,61.632-57.92,93.47
			c-13.088,13.366-13.552,13.645-27.475,15.965c-3.341,0.464-7.426,1.207-9.004,1.485c-1.856,0.278-3.063,1.021-3.063,1.764
			C392.102,307.401,389.41,307.587,388.853,306.009z"/>
		<path fill="#F56B95" d="M221.684,303.874c2.228-1.671,3.62-1.856,3.156-0.186c-0.278,0.557-1.392,1.207-2.692,1.392
			C220.013,305.266,220.013,305.266,221.684,303.874z"/>
		<path fill="#F56B95" d="M284.43,303.967c0-0.743,0.464-1.671,0.928-1.949c0.557-0.278,0.928,0.278,0.928,1.299
			c0,1.114-0.371,1.949-0.928,1.949C284.895,305.266,284.43,304.709,284.43,303.967z"/>
		<path fill="#F56B95" d="M164.414,303.132c-0.278-0.835-0.186-1.764,0.371-2.135c1.392-0.835,1.671-0.186,0.835,1.856
			C165.064,304.431,164.971,304.524,164.414,303.132z"/>
		<path fill="#F56B95" d="M160.516,290.415c-0.278-0.464,0.278-0.928,1.392-0.928c1.114,0,1.671,0.464,1.392,0.928
			c-0.278,0.557-0.928,0.928-1.392,0.928S160.794,290.972,160.516,290.415z"/>
		<path fill="#F56B95" d="M213.145,274.543c0.186-0.557,0.743-0.928,1.207-0.928s1.021,0.371,1.207,0.928
			c0.186,0.557-0.371,1.021-1.207,1.021C213.516,275.564,212.959,275.1,213.145,274.543z"/>
		<path fill="#F56B95" d="M338.73,169.749c-0.278-0.464-1.392-0.928-2.413-0.928c-1.949,0-2.413-1.392-0.65-2.413
			c0.557-0.371,1.578,0.093,2.228,1.021c0.743,1.021,1.764,1.392,2.785,1.021c1.299-0.464,1.392-0.371,0.371,0.835
			C339.658,170.956,339.473,170.956,338.73,169.749z"/>
		<path fill="#F56B95" d="M391.73,148.772c-0.371-1.299-0.464-2.599-0.278-2.877c0.278-0.186,0.743,0.743,1.021,2.135
			c0.371,1.299,0.464,2.599,0.278,2.877C392.473,151.093,392.009,150.164,391.73,148.772z"/>
		<path fill="#F56B95" d="M315.061,147.473c0-0.464,0.835-0.928,1.856-0.928s1.856,0.464,1.856,0.928
			c0,0.557-0.835,0.928-1.856,0.928S315.061,148.029,315.061,147.473z"/>
		<path fill="#F56B95" d="M356.366,145.709c-0.278-0.464-0.093-1.114,0.464-1.485c1.114-0.65,2.785,0.186,2.785,1.485
			C359.615,146.823,357.108,146.823,356.366,145.709z"/>
		<path fill="#F56B95" d="M406.025,132.714c0-1.764,2.042-2.135,3.527-0.65c1.392,1.392,1.299,1.485-1.021,1.485
			C407.138,133.55,406.025,133.178,406.025,132.714z"/>
		<path fill="#F56B95" d="M429.322,131.043c0.093-0.928-0.278-2.877-0.835-4.27c-1.392-3.156-1.392-3.434-0.186-3.434
			c0.557,0,0.928,0.928,0.928,2.135c0,1.114,0.65,2.877,1.392,3.806c1.392,1.764,1.114,3.342-0.557,3.342
			C429.508,132.621,429.229,131.879,429.322,131.043z"/>
		<path fill="#F56B95" d="M394.422,128.909c-0.278-0.464-0.186-0.928,0.371-0.928c0.464,0,1.578-0.278,2.32-0.557
			c1.114-0.464,1.392-0.186,0.928,0.928C397.392,130.022,395.35,130.301,394.422,128.909z"/>
		<path fill="#F56B95" d="M414.935,128.073c-0.371-0.557-1.207-0.743-1.949-0.371c-1.578,0.557-1.949-1.114-0.464-2.042
			c1.021-0.65,4.27,2.135,3.434,2.877C415.678,128.816,415.214,128.63,414.935,128.073z"/>
		<path fill="#F56B95" d="M330.376,126.588c-13.273-2.228-26.454-7.333-35.921-13.83c-2.877-1.856-3.62-2.042-4.177-1.021
			c-0.557,0.928-1.207,1.021-2.135,0.464c-1.114-0.743-1.021-0.928,0.464-0.928c1.671-0.093,1.578-0.278-0.743-2.32
			c-1.485-1.299-3.063-2.135-3.527-1.856c-0.464,0.371-0.557-0.186-0.186-1.114c0.278-0.928,0.278-1.392-0.186-1.021
			c-0.371,0.371-1.392-0.093-2.228-1.021c-1.578-1.856-15.222-13.645-23.762-20.513c-7.704-6.219-15.501-11.138-16.615-10.489
			c-0.557,0.278-0.65,0.186-0.278-0.186c0.928-1.021-3.434-3.713-16.058-10.117c-13.552-6.869-29.331-12.067-39.82-13.088
			c-2.32-0.278-6.961-0.835-10.303-1.299c-6.683-1.021-22.37,0.093-30.631,2.135c-12.345,3.063-20.049,5.384-21.349,6.497
			c-0.743,0.743-2.042,1.207-2.785,1.207c-5.755-0.093-35.272,15.13-47.617,24.69c-1.949,1.485-3.713,2.506-3.898,2.32
			c-0.743-0.65,8.539-13.645,14.573-20.42c9.189-10.396,23.205-21.256,35.643-27.475c8.075-4.084,23.762-9.189,33.322-10.767
			c10.953-1.949,30.259-1.856,41.398,0c16.336,2.785,32.765,9.932,46.781,20.142c7.147,5.291,25.525,23.112,25.525,24.783
			c0,0.464,1.207,2.135,2.785,3.806l2.692,3.063l2.135-2.785c1.207-1.485,4.548-5.476,7.426-8.911l5.384-6.219l5.848,2.692
			c3.156,1.392,8.447,3.156,11.602,3.713c10.489,2.135,19.956-1.578,23.019-9.004c1.671-3.991,1.578-12.809-0.186-17.45
			c-0.743-2.042-1.671-4.363-1.856-5.198c-0.65-1.856,13.273-6.683,25.061-8.725c10.674-1.856,30.259-1.764,40.934,0.093
			c9.468,1.671,25.247,6.776,33.322,10.767c10.581,5.384,24.597,15.594,32.58,23.948l3.713,3.806l-2.599,2.321
			c-2.32,1.949-3.527,2.228-10.21,2.228h-7.611l-1.578,4.455c-4.363,12.067-16.429,26.454-29.517,35.086
			c-3.806,2.506-7.333,4.734-7.89,4.919c-0.464,0.186-3.434,1.485-6.497,2.877C374.651,125.938,349.126,129.837,330.376,126.588z"/>
		<path fill="#F56B95" d="M273.385,120.184c-1.392-1.671,0-2.599,1.485-0.928c0.65,0.65,0.835,1.392,0.371,1.671
			C274.777,121.205,273.942,120.833,273.385,120.184z"/>
		<path fill="#F56B95" d="M425.517,119.627c0-1.764,0.278-1.949,1.114-1.114c0.835,0.835,0.835,1.392,0,2.228
			C425.795,121.576,425.517,121.39,425.517,119.627z"/>
		<path fill="#F56B95" d="M64.447,116.378c0-0.743,0.464-1.392,0.928-1.392c0.557,0,0.928,0.65,0.928,1.392
			c0,0.743-0.371,1.392-0.928,1.392C64.911,117.77,64.447,117.12,64.447,116.378z"/>
		<path fill="#F56B95" d="M267.444,115.171c0.093-0.743,0.278-1.485,0.278-1.671s0.371-0.371,0.743-0.371
			c0.464,0,0.835,0.65,0.835,1.392s-0.371,1.114-0.743,0.835c-0.371-0.186-0.835-0.093-1.114,0.278
			C267.259,116.099,267.259,115.821,267.444,115.171z"/>
		<path fill="#F56B95" d="M420.597,112.851c-2.413-2.32-2.692-4.363-0.557-4.363c0.557,0,0.65,0.464,0.371,1.021
			c-0.371,0.464,0.278,1.764,1.392,2.692c1.114,1.021,1.856,2.135,1.671,2.506C423.382,115.171,421.99,114.336,420.597,112.851z"/>
		<path fill="#F56B95" d="M275.613,113.779c-0.557-1.299-0.928-1.392-2.042-0.557c-1.021,0.835-1.578,0.835-2.413,0
			c-0.835-0.928-0.743-1.021,0.371-0.557c2.135,0.835,2.97-0.928,1.299-2.599c-1.764-1.856-1.856-3.063,0-1.578
			c0.743,0.557,1.856,0.743,2.506,0.371c0.928-0.557,0.928-0.464,0,0.743c-1.021,1.299-1.021,1.485,0.557,1.114
			c0.928-0.278,2.228,0.186,2.877,0.928c0.835,1.021,0.928,1.485,0.186,1.485c-0.557,0-1.021-0.557-1.114-1.114
			c-0.093-0.65-0.371-0.186-0.835,1.114C276.448,115.171,276.262,115.264,275.613,113.779z"/>
		<path fill="#F56B95" d="M262.525,111.551c-0.371-0.928-0.557-2.042-0.464-2.506c0.093-0.371-0.371-1.392-1.021-2.228
			c-1.021-1.207-0.928-1.299,0.743-0.371c2.785,1.485,4.363,3.713,3.713,5.291C264.845,113.593,263.453,113.5,262.525,111.551z"/>
		<path fill="#F56B95" d="M434.799,112.201c-0.743-0.464-1.021-1.114-0.65-1.485c0.371-0.371,1.207-0.186,1.764,0.371
			C437.305,112.479,436.562,113.315,434.799,112.201z"/>
		<path fill="#F56B95" d="M425.981,108.488c-1.671-1.856-1.485-3.527,0.278-2.413c0.743,0.464,2.228,4.27,1.671,4.27
			C427.744,110.345,426.909,109.509,425.981,108.488z"/>
		<path fill="#F56B95" d="M77.999,106.353c-1.299-0.928-1.485-1.485-0.65-2.042c1.392-0.835,3.249,0.743,2.785,2.228
			C79.855,107.282,79.206,107.189,77.999,106.353z"/>
		<path fill="#F56B95" d="M264.845,105.982c-1.949-0.278-2.413-0.928-2.506-3.063l-0.093-2.785l2.506,1.578
			c1.392,0.928,2.692,1.949,2.97,2.32c0.278,0.278,1.299,0.557,2.228,0.464c0.928-0.093,1.949,0.278,2.135,0.835
			C272.457,106.353,269.486,106.632,264.845,105.982z"/>
		<path fill="#F56B95" d="M255.285,102.455c0.186-1.021,0.371-2.135,0.371-2.506c0-0.464,0.464-0.743,0.928-0.743
			c0.557,0,0.835,0.464,0.743,1.021c-0.186,0.557,0.278,1.299,0.928,1.485c0.557,0.278,1.114,0,1.114-0.557
			c0-1.856,1.485-1.021,1.578,0.835c0.093,1.299-0.371,1.856-1.671,1.856c-0.928,0-1.764-0.371-1.764-0.928
			c0-1.299-1.671-1.114-2.135,0.278C255.192,103.754,255.099,103.476,255.285,102.455z"/>
		<path fill="#F56B95" d="M127.565,90.388c0.093-2.413,0.186-2.599,1.021-1.114c0.743,1.299,0.743,2.042,0,2.785
			C127.843,92.802,127.565,92.338,127.565,90.388z"/>
		<path fill="#F56B95" d="M82.64,84.726c-1.671-1.671-1.671-1.764-0.186-2.042c0.928-0.186,1.856-0.093,2.135,0.093
			c0.186,0.278,0.278,1.207,0.093,2.135C84.404,86.397,84.311,86.397,82.64,84.726z"/>
		<path fill="#F56B95" d="M98.791,74.795c-1.671-1.299-2.228-3.991-1.021-4.734c1.207-0.835,6.683,1.392,6.312,2.506
			c-0.186,0.557-1.114,1.485-2.135,2.135C100.554,75.63,99.905,75.63,98.791,74.795z"/>
		<path fill="#F56B95" d="M457.54,72.381c-0.557-1.021,0.835-2.135,1.764-1.299c0.835,0.835,0.65,2.135-0.278,2.135
			C458.468,73.217,457.911,72.845,457.54,72.381z"/>
		<path fill="#F56B95" d="M302.066,51.218c-0.743-0.186-1.949-0.65-2.692-0.835c-0.928-0.278-0.371-1.114,1.764-2.692l3.063-2.228
			l1.671,2.135c1.021,1.299,1.764,2.692,1.764,3.249C307.635,51.868,304.572,52.147,302.066,51.218z"/>
	</g>
	<g id="layer103">
		<path fill="#FFB1D6" d="M94.799,268.417c-4.919-5.384-4.919-5.569,1.114-6.126c14.294-1.485,24.226-7.983,44.554-29.331
			c9.189-9.653,18.75-18.564,24.133-22.648c7.24-5.476,9.282-7.611,11.417-11.788c1.392-2.785,3.156-5.755,3.991-6.59
			c1.764-1.856,1.764-2.785,0-2.135c-1.114,0.464-1.392-0.278-1.392-3.527c0-9.189-7.797-19.492-18.1-24.04
			c-7.054-3.063-20.977-3.527-31.095-0.928c-8.261,2.042-22.555,7.611-32.673,12.716c-3.527,1.764-6.312,2.785-6.312,2.228
			c0-0.464-0.464-0.928-1.021-0.928c-0.557,0-0.835,0.557-0.557,1.299c0.371,0.928-1.578,2.692-5.662,5.384
			c-8.261,5.291-17.264,13.83-21.627,20.606l-3.62,5.384l-0.928-2.599c-3.249-8.447-7.704-29.981-6.776-32.487
			c0.464-1.299,38.892-20.792,41.026-20.792c0.835,0,2.32-0.557,3.342-1.299c2.877-1.949,26.918-9.653,36.664-11.695
			c14.851-3.063,29.981-4.177,41.583-2.97c13.923,1.392,23.391,3.62,23.391,5.476c0,1.114,0.278,1.207,1.299,0.371
			c2.506-2.042,22.555,7.147,35.828,16.429c14.944,10.489,28.681,21.998,29.795,25.154c0.557,1.207,1.392,1.949,2.135,1.671
			c0.65-0.278,5.012,2.599,9.56,6.312c15.13,12.067,30.538,21.441,40.655,24.597c2.042,0.65,4.455,1.764,5.384,2.599
			c0.835,0.743,1.856,1.114,2.228,0.835c0.278-0.371,1.114,0.093,1.856,1.021c0.743,0.835,1.021,1.021,0.65,0.278
			c-0.557-1.114,0.093-1.207,3.434-0.65c12.159,1.949,19.771,2.506,26.825,1.949c19.956-1.485,33.044-6.033,72.678-24.876
			c5.94-2.877,10.86-4.827,10.86-4.363c0,0.557,0.464,0.928,1.021,0.928c0.464,0,0.743-0.371,0.371-0.835
			c-0.464-0.835,2.228-2.877,3.62-2.877c1.207,0,0.464,2.228-1.021,3.342c-1.485,1.114-1.485,1.392-0.278,2.228
			c2.692,1.764,4.177,0.65,4.177-3.156c0-2.413,0.464-3.806,1.392-4.084c1.114-0.371,1.207-0.186,0.278,0.835
			c-1.392,1.392-1.578,4.548-0.278,4.548c0.464,0,0.65-0.557,0.371-1.207c-1.021-2.785,3.156-5.94,10.489-7.89
			c12.902-3.62,32.765-6.033,32.765-3.991c0,0.557-0.65,1.021-1.392,1.021c-1.671,0-1.764,1.114-0.371,2.506
			c0.65,0.65,0.557,2.599-0.557,6.405c-0.835,3.063-1.949,7.24-2.506,9.468c-0.65,2.877-1.299,3.898-2.228,3.527
			c-0.743-0.278-1.299-0.093-1.299,0.371c0,0.557-0.743,0.928-1.578,1.021c-1.299,0-1.207,0.278,0.464,1.021
			c1.485,0.743,1.949,1.578,1.485,2.97c-1.671,5.569-2.692,6.405-11.974,10.303c-5.105,2.042-11.695,5.384-14.666,7.24
			c-6.033,3.898-6.497,3.991-8.075,2.042c-0.65-0.743-1.671-1.392-2.228-1.392c-0.557,0-0.278,0.65,0.65,1.299
			c0.835,0.65,1.578,1.671,1.578,2.135c0,0.557-3.063,3.527-6.776,6.59c-3.62,3.063-9.189,7.797-12.252,10.396
			c-10.581,9.004-18.193,12.159-34.715,14.573c-9.282,1.299-12.531,1.392-23.391,0.464c-23.855-2.042-46.596-7.426-69.986-16.429
			c-6.126-2.413-12.345-4.919-13.923-5.569c-4.177-1.949-16.058-6.497-21.627-8.354l-5.012-1.578l3.342-3.434
			c2.32-2.413,3.249-3.991,2.785-5.105c-0.65-1.578-5.755-4.734-6.59-3.991c-0.557,0.557,1.764,4.363,2.692,4.363
			c1.485,0,0.65,2.413-1.671,5.012l-2.32,2.599l-7.611-1.578c-11.324-2.413-32.208-2.877-45.018-1.021
			c-18.193,2.692-30.631,7.611-55.97,21.998c-22.648,12.809-33.137,17.45-47.524,20.606l-6.312,1.392L94.799,268.417z
			 M121.067,259.506c0-0.371-0.186-0.65-0.464-0.65s-1.299,0-2.32,0s-1.856,0.464-1.856,0.928c0,0.557,1.021,0.835,2.32,0.65
			S121.067,259.877,121.067,259.506z M407.695,252.452c0.278-0.743-0.093-1.114-0.835-0.835c-0.65,0.186-1.392,0.928-1.578,1.578
			c-0.278,0.743,0.093,1.114,0.835,0.835C406.767,253.844,407.51,253.102,407.695,252.452z M434.799,237.508
			c0-0.464-0.835-0.928-1.949-0.928c-1.021,0-1.578,0.464-1.299,0.928c0.278,0.557,1.207,0.928,1.949,0.928
			S434.799,238.065,434.799,237.508z M318.403,231.289c-1.021-1.021-1.764,0.557-1.021,2.228c0.743,1.578,0.743,1.578,1.114,0
			C318.774,232.588,318.681,231.567,318.403,231.289z M359.893,231.289c0.743-0.65-1.949-3.991-3.249-3.991
			c-0.371,0-0.743,1.021-0.743,2.32c0,1.671,0.464,2.32,1.671,2.32C358.501,231.939,359.615,231.66,359.893,231.289z
			 M438.233,227.669c-0.835-0.835-2.599,0.557-1.949,1.671c0.371,0.557,0.928,0.557,1.578-0.093
			C438.419,228.69,438.604,228.04,438.233,227.669z M198.572,224.327c0.557-2.042,0.371-2.599-0.835-2.599
			c-1.114,0-1.485,0.928-1.485,3.434C196.252,228.968,197.551,228.504,198.572,224.327z M428.301,225.998
			c0-0.65,0.65-1.764,1.392-2.413s1.392-1.485,1.392-1.949c0-0.743-3.063-0.464-4.641,0.557c-1.021,0.65-1.207,3.527-0.278,4.455
			C427.187,227.762,428.301,227.39,428.301,225.998z M423.66,223.585c0-1.021-0.65-1.856-1.392-1.856
			c-1.207,0-1.207,0.278-0.278,1.856c0.65,1.021,1.299,1.856,1.392,1.856C423.567,225.441,423.66,224.606,423.66,223.585z
			 M443.617,221.914c0-1.671-1.856-1.392-2.135,0.371c-0.278,0.928,0.093,1.392,0.928,1.114
			C443.06,223.121,443.617,222.471,443.617,221.914z M218.528,221.636c0-0.464,1.021-2.506,2.32-4.363
			c2.135-3.156,1.949-5.848-0.278-4.455c-1.485,0.928-4.548,7.426-4.177,8.725C216.95,222.935,218.528,223.028,218.528,221.636z
			 M433.778,217.552c0.743,0,1.485-0.557,1.764-1.114c0.186-0.743-0.464-1.207-1.578-1.207s-1.949,0.186-1.949,0.371
			s-0.278,1.207-0.557,2.135c-0.278,0.928-0.186,1.299,0.278,0.743C432.107,218.016,433.035,217.552,433.778,217.552z
			 M429.044,215.51c-0.186-0.835-0.743-1.671-1.392-1.856c-0.65-0.278-0.835,0.278-0.557,1.485
			C427.652,217.459,429.508,217.737,429.044,215.51z M408.809,213.839c0-2.135-0.186-2.228-1.856-1.207
			c-1.021,0.65-1.856,1.671-1.856,2.32s0.835,1.207,1.856,1.207C408.345,216.159,408.809,215.51,408.809,213.839z M436.098,213.746
			c0.835-0.278,1.485-1.299,1.485-2.135c0-0.835,0.835-2.228,1.856-3.156c1.021-0.835,1.856-2.228,1.856-2.97
			c0-0.743,0.928-1.485,2.135-1.578c1.114,0,2.692-0.093,3.434-0.186c2.228-0.186,1.578-2.877-0.65-3.156
			c-1.671-0.278-2.042,0-1.485,1.299c0.371,1.114,0.278,1.392-0.464,0.928c-0.65-0.371-0.928-1.578-0.743-2.692
			c0.093-1.114,0.093-1.485-0.093-0.835c-0.464,1.392-0.835,1.392-3.156,0.186c-1.392-0.835-1.764-0.65-1.764,0.65
			c0,1.392-0.186,1.485-0.928,0.278c-0.928-1.485-1.114-1.021-1.299,3.063c-0.093,1.392,0.186,2.506,0.557,2.506
			s0.464,0.65,0.093,1.485c-0.278,0.743-1.114,1.207-1.764,0.928c-0.928-0.371-1.299,0.371-1.299,2.692
			C433.87,214.581,433.87,214.581,436.098,213.746z M464.501,211.611c0-1.021-0.371-2.135-0.928-2.413
			c-0.557-0.371-0.928,0.464-0.928,1.764c0,1.299,0.464,2.413,0.928,2.413C464.13,213.375,464.501,212.539,464.501,211.611z
			 M283.038,211.518c0.371-0.557,0.186-1.578-0.371-2.228c-0.557-0.65-0.743-1.485-0.371-1.764c0.278-0.371,0.186-0.65-0.278-0.65
			c-1.485,0-3.156,2.135-3.156,3.898C278.861,212.632,282.017,213.096,283.038,211.518z M197.087,207.434
			c-0.835-0.743-0.928-0.65-0.464,0.65c0.278,0.928,0.65,2.228,0.65,2.785c0.093,0.65,0.278,0.371,0.557-0.65
			C198.108,209.291,197.737,208.084,197.087,207.434z M452.434,207.805c-0.557-1.021-1.299-1.764-1.671-1.764
			c-0.371,0.093-0.835,0-1.114-0.093c-0.278-0.093-1.207-0.278-2.042-0.464c-2.785-0.557-0.835,2.042,2.32,3.063
			c1.671,0.464,3.063,0.928,3.249,1.021C453.27,209.662,452.991,208.827,452.434,207.805z M199.779,204.278
			c0.557-1.671-1.392-1.299-2.042,0.371c-0.371,0.928-0.093,1.299,0.557,1.114C198.851,205.578,199.593,204.835,199.779,204.278z
			 M238.763,203.721c4.27-2.228,7.89-7.611,8.354-12.716c0.65-6.59-0.371-10.303-4.084-14.666
			c-3.898-4.548-7.054-6.312-13.273-7.518c-4.734-0.835-11.231,0.186-11.231,1.856c0,0.557-0.65,0.928-1.392,0.928
			c-4.548,0-12.345,6.497-14.758,12.252c-0.835,1.856-1.856,3.527-2.413,3.713s-0.093,2.228,1.299,5.012
			c2.413,4.919,3.342,5.662,13.552,9.653C224.654,206.135,233.101,206.692,238.763,203.721z M470.998,205.114
			c0-1.114-1.856-2.32-2.506-1.671c-0.65,0.65,0.557,2.506,1.671,2.506C470.627,205.949,470.998,205.578,470.998,205.114z
			 M198.108,202.143c0-0.464,0.464-0.65,0.928-0.371c1.114,0.65,1.299-0.743,0.278-1.764c-0.464-0.371-0.835-1.114-0.835-1.578
			c-0.093-0.464-0.186-1.114-0.278-1.392c-0.093-0.65-2.877,2.042-2.877,2.877c0,0.278,0.464,0.278,0.928,0
			c0.557-0.278,0.928-0.093,0.928,0.371c0,0.557-0.464,1.021-1.021,1.021c-0.464,0-0.65,0.464-0.371,0.928
			C196.53,203.443,198.108,203.443,198.108,202.143z M434.242,199.545c0.278-0.464-0.278-1.021-1.207-1.299
			c-1.299-0.278-1.671-0.093-1.299,0.835C432.293,200.566,433.499,200.751,434.242,199.545z M485.385,199.452
			c0.278-0.464-0.093-0.928-0.835-0.928s-1.671,0.464-1.949,0.928c-0.278,0.557,0.093,0.928,0.835,0.928
			S485.107,200.009,485.385,199.452z M461.902,197.131c-0.186-1.299-0.835-2.599-1.392-2.97c-0.65-0.371-0.743,0-0.371,1.021
			c0.371,0.928,0.65,2.228,0.65,2.97s0.371,1.299,0.835,1.299C461.995,199.452,462.181,198.431,461.902,197.131z M186.97,172.07
			c0-1.299-0.371-2.32-0.928-2.32c-0.464,0-0.928,1.021-0.928,2.32s0.464,2.32,0.928,2.32
			C186.598,174.39,186.97,173.369,186.97,172.07z M186.041,167.429c0-0.743-0.371-1.392-0.928-1.392
			c-0.464,0-0.928,0.65-0.928,1.392c0,0.743,0.464,1.392,0.928,1.392C185.67,168.821,186.041,168.171,186.041,167.429z
			 M187.434,162.231c0.835-1.207-2.506-3.713-3.62-2.692c-1.114,1.114,0,3.713,1.671,3.713
			C186.227,163.252,187.155,162.788,187.434,162.231z M224.654,160.003c3.713-3.156,2.135-3.991-1.856-0.928
			c-1.856,1.392-3.342,2.692-3.342,2.877C219.457,163.066,222.334,162.045,224.654,160.003z M198.758,153.227
			c1.578-1.021-1.114-4.27-2.97-3.62c-1.671,0.743-1.856,3.063-0.186,3.713C197.18,154.063,197.551,154.063,198.758,153.227z
			 M138.703,141.439c0-0.743-0.371-1.392-0.928-1.392c-0.464,0-0.928,0.65-0.928,1.392c0,0.743,0.464,1.392,0.928,1.392
			C138.332,142.832,138.703,142.182,138.703,141.439z"/>
		<path fill="#FFB1D6" d="M221.963,190.819c-3.527-1.114-6.405-2.413-6.497-2.97c-0.093-1.671,7.147-5.94,10.303-6.033
			c3.156,0,6.683,1.392,7.797,3.156c0.928,1.299,0.928,5.94,0.093,6.405C231.152,192.769,227.439,192.583,221.963,190.819z"/>
		<path fill="#FFB1D6" d="M80.691,234.352c-4.084-1.764-7.611-6.312-8.354-10.767c-2.135-12.345,6.869-24.319,25.061-33.322
			c8.818-4.363,25.061-10.581,32.951-12.623c12.438-3.249,23.855-2.599,27.939,1.485c2.599,2.599,2.135,4.363-1.485,5.384
			c-3.62,1.021-14.944,7.054-15.779,8.447c-0.278,0.557-1.392,0.928-2.413,0.928c-1.021,0-2.135,0.743-2.413,1.671
			c-0.928,2.32-22.555,27.103-23.762,27.103c-0.557,0-1.764,0.65-2.692,1.485c-1.299,1.207-1.949,1.299-2.97,0.464
			c-0.835-0.743-1.485-0.743-1.856-0.186c-0.371,0.557,0.278,1.392,1.299,1.949c1.949,1.021,1.949,1.021-0.371,2.877
			C98.605,235.002,87.281,237.229,80.691,234.352z M85.703,231.846c-1.671-1.021-3.62-1.021-3.62-0.093
			c0,1.299,4.084,2.877,4.548,1.856C86.817,233.052,86.353,232.31,85.703,231.846z M81.433,216.623
			c0.65-1.671-0.557-2.506-2.506-1.764c-1.207,0.464-1.299,0.835-0.464,1.856C79.855,218.387,80.784,218.387,81.433,216.623z
			 M123.852,204.557c1.578-0.835,2.785-1.856,2.785-2.32c0-1.207-0.093-1.207-3.62,0.557c-2.413,1.207-3.249,1.207-4.363,0.278
			c-1.578-1.299-3.806,0.186-2.785,1.856C116.798,206.413,120.696,206.228,123.852,204.557z M121.067,197.41
			c0-1.299-1.671-0.835-2.228,0.743c-1.021,2.599-0.557,3.62,0.835,1.856C120.418,198.988,121.067,197.874,121.067,197.41z
			 M130.535,200.009c0.928-0.65,1.392-1.485,1.114-1.764c-0.65-0.65-4.084,1.299-4.084,2.32
			C127.565,201.679,128.772,201.401,130.535,200.009z M120.696,193.79c0.278-0.557,0.186-1.392-0.186-1.764
			c-1.114-1.114-3.527,0.464-2.785,1.764C118.561,195.089,119.861,195.089,120.696,193.79z"/>
		<path fill="#FFB1D6" d="M331.305,126.681c-4.548-0.743-11.231-2.228-14.851-3.342c-8.261-2.599-20.884-9.096-20.884-10.767
			c0-0.65-0.557-1.021-1.207-0.743c-0.65,0.186-2.042-0.371-2.97-1.485c-0.928-1.021-2.228-1.856-2.97-1.856
			c-0.65,0-1.207-0.371-1.207-0.743c0-0.464-1.949-2.135-4.363-3.898c-7.333-5.105-20.513-17.172-19.585-17.729
			c1.578-1.021-0.186-2.785-2.135-2.228c-1.114,0.371-3.156-0.557-6.033-2.692c-2.413-1.856-3.806-3.342-3.063-3.434
			c1.207-0.093,0.093-0.65-4.548-2.228c-1.299-0.464-1.949-1.207-1.671-2.042c0.278-0.743,0.093-1.021-0.464-0.743
			c-0.464,0.371-3.713-1.021-7.147-3.063c-20.792-12.252-37.314-18.193-58.755-20.977c-10.86-1.392-22.741-0.928-33.786,1.299
			c-2.506,0.557-5.476,1.114-6.497,1.299c-1.021,0.186-5.105,1.485-9.189,2.785c-3.991,1.299-7.704,2.413-8.168,2.413
			c-0.464,0-3.434,1.207-6.59,2.599c-17.914,8.261-17.45,8.075-18.286,6.683c-0.743-1.114-0.928-0.928-0.928,0.743
			c0,1.114-0.371,2.042-0.743,2.042c-1.114,0-18.378,10.767-22.741,14.201c-1.949,1.485-3.713,2.506-3.898,2.32
			c-0.557-0.557,8.168-13.366,11.324-16.708c1.392-1.392,2.785-2.321,3.249-2.042c0.371,0.278,0.743-0.278,0.743-1.114
			c0-2.228,6.405-8.725,7.983-8.075c0.743,0.278,1.299-0.093,1.299-1.021c0-1.764,5.848-4.827,18.657-9.839
			c8.539-3.249,9.653-3.527,10.581-2.135c1.299,1.764,3.434,0.835,2.692-1.114c-0.371-0.928,0.928-1.671,4.919-2.785
			c2.97-0.835,6.219-1.764,7.147-2.042c1.299-0.371,1.671-0.093,1.207,0.928c-0.278,0.835,0.278,2.413,1.207,3.62
			c1.485,1.764,1.949,1.856,2.692,0.835c0.557-0.835,0.557-2.228,0-3.62c-0.464-1.299-0.743-2.413-0.557-2.599
			s2.785-0.835,5.848-1.392c7.611-1.485,27.846-1.485,38.706,0c9.189,1.299,11.324,2.413,9.189,5.012
			c-1.392,1.671-0.743,7.426,0.928,7.704c0.743,0.093,1.392-0.464,1.392-1.114c0-0.743-0.464-1.299-1.021-1.392
			c-0.557,0,0.65-0.557,2.692-1.207c2.692-0.743,3.806-1.671,3.991-3.156c0.371-2.228-0.65-2.692-2.413-0.928
			c-0.835,0.835-1.114,0.743-1.114-0.464c0-1.021,0.743-1.578,2.135-1.578c4.548,0,18.193,4.084,25.247,7.611
			c9.375,4.641,28.31,16.336,28.31,17.543c0,0.464,0.835,0.835,1.856,0.835s3.156,1.299,4.827,2.785l3.063,2.785l-2.599-0.928
			c-3.342-1.207-5.291-0.186-2.97,1.578c1.021,0.65,1.207,1.207,0.557,1.207c-0.65,0-0.835,0.464-0.464,1.021
			c0.371,0.65,0.928,0.65,1.485,0.093c0.65-0.65,1.856-0.65,3.62,0c2.042,0.743,2.692,1.485,2.692,3.434
			c0,2.506,1.485,4.734,3.063,4.734c0.464,0,0.65-0.743,0.464-1.578c-0.186-0.928,0.557-2.599,1.578-3.713l1.856-1.949l10.674,5.105
			c12.159,5.94,28.867,11.881,37.963,13.459c3.342,0.557,6.683,1.671,7.333,2.506c0.835,1.021,1.392,1.114,2.228,0.278
			c1.207-1.207,6.312-1.578,6.312-0.371c0,0.371,2.97,0.65,6.497,0.65c3.62,0,6.497-0.278,6.497-0.65
			c0-0.464,1.764-0.743,3.991-0.835c2.135,0,6.869-0.743,10.396-1.671c6.776-1.764,7.89-1.485,7.89,1.949
			c0,0.835,0.464,1.856,1.114,2.228c0.65,0.464,0.835,0,0.557-1.299c-0.371-1.114,0-2.413,0.743-3.063
			c0.743-0.65,1.207-1.671,0.928-2.413c-0.278-0.743,1.021-1.949,3.434-3.156c2.135-1.114,5.291-2.97,6.961-4.27
			c1.671-1.299,3.713-2.042,4.363-1.764c1.021,0.371,1.392-0.186,1.392-1.764c0-1.299,0.464-2.32,0.928-2.32
			c0.557,0,0.928,0.464,0.928,0.928c0,0.557,0.928,0.928,2.135,0.928c1.114,0,1.578-0.371,1.021-0.743
			c-1.578-1.114-2.135-3.434-0.928-4.827c1.485-1.949,3.249-2.135,3.898-0.464c0.371,0.743,0.928,1.392,1.392,1.392
			c1.299,0,1.021-2.042-0.557-3.806c-1.392-1.392-1.299-2.135,0.557-7.426c1.485-4.641,1.856-7.333,1.485-12.252
			c-0.464-6.59,0.557-8.725,2.785-5.755c0.835,1.299,1.485,1.485,2.228,0.743c1.299-1.299-2.135-8.168-4.827-9.56
			c-2.692-1.485-3.62-0.093-1.021,1.578c2.413,1.671,2.599,3.249,0.65,4.919c-1.114,0.928-1.578,0.65-2.413-1.299
			c-0.65-1.299-1.485-2.413-1.949-2.413c-0.371,0-0.743-0.557-0.743-1.207c0-1.299-6.219-3.434-10.303-3.434
			c-2.785,0-3.62,0.65-10.117,8.075c-2.877,3.342-6.59,2.785-10.489-1.485c-4.363-4.919-5.476-7.054-4.734-9.839
			c0.371-1.392,0.186-2.32-0.464-2.32c-0.557,0-1.021-0.928-1.021-1.949c0-1.949,0.186-1.949,12.809-1.485
			c18.285,0.65,32.301,3.991,30.259,7.24c-0.278,0.464,0,0.835,0.65,0.835c1.299,0,3.342,2.413,4.548,5.384
			c0.464,1.114,1.671,2.042,2.785,2.042c2.32,0,2.32-1.021,0-3.991c-3.806-4.827,1.299-4.27,12.345,1.392
			c3.898,2.042,7.147,4.363,7.147,5.105c0,0.65,0.557,1.207,1.207,1.021c1.764-0.371,8.261,3.806,7.611,4.827
			c-0.371,0.557-0.186,1.578,0.464,2.32c2.228,2.692-1.671,18.935-7.054,29.238c-4.177,7.89-11.881,17.636-12.252,15.501
			c-0.278-1.299-0.65-1.392-2.135-0.557c-1.021,0.464-1.578,1.299-1.299,1.856c0.371,0.464,1.021,0.65,1.485,0.371
			c0.464-0.371,0.835-0.186,0.835,0.278c0,0.928-2.785,3.434-7.333,6.59l-3.156,2.228l-1.764-2.135
			c-1.671-2.042-1.671-2.042-1.671-0.186c0,1.114,0.743,2.413,1.671,2.877c1.021,0.65,1.114,0.928,0.278,1.021
			c-0.65,0-2.785,1.299-4.734,2.785c-2.135,1.671-4.084,2.599-5.012,2.228c-0.835-0.371-1.485-0.093-1.485,0.557
			c0,0.65-0.65,0.928-1.392,0.557c-0.743-0.278-1.671,0.093-2.042,0.743c-1.485,2.413-15.037,7.89-23.019,9.189
			c-1.485,0.278-5.105,0.928-7.89,1.578C355.902,127.795,340.401,127.98,331.305,126.681z M356.366,117.956
			c1.578-1.114,1.485-7.611-0.093-7.611c-0.743,0-1.299,0.557-1.392,1.207c0,0.928-0.186,0.928-0.557,0
			c-0.186-0.65-1.392-1.207-2.506-1.207s-2.692-0.835-3.62-1.856c-2.506-2.97-3.806-2.135-1.671,1.207
			c1.114,1.671,2.506,2.877,3.342,2.692c1.299-0.278,1.299,0,0.464,1.671c-0.557,1.114-0.743,2.321-0.371,2.599
			c0.371,0.371,0.835,0.093,1.021-0.464c0.278-0.65,1.114-1.207,1.856-1.207c1.114,0,1.207,0.278,0.371,1.207
			C351.632,118.234,354.138,119.627,356.366,117.956z M373.259,117.492c-0.464-1.578-2.042-1.671-3.898-0.278
			c-1.764,1.299-1.671,1.392,1.207,1.299C372.238,118.42,373.445,117.956,373.259,117.492z M329.912,116.378
			c-1.299-1.578-2.785-1.856-2.785-0.557c0,0.464,0.743,1.114,1.671,1.299c0.835,0.278,1.764,0.464,1.949,0.557
			C330.933,117.677,330.562,117.12,329.912,116.378z M381.427,114.057c-0.278-0.464-1.207-0.928-1.949-0.928
			c-0.743,0-1.299,0.464-1.299,0.928c0,0.557,0.835,0.928,1.949,0.928C381.149,114.986,381.706,114.614,381.427,114.057z
			 M305.593,108.674c0.557-1.671-1.392-1.299-2.042,0.371c-0.371,0.928-0.093,1.299,0.557,1.114
			C304.665,109.973,305.408,109.231,305.593,108.674z M354.602,108.581c-0.371-0.464,0-1.021,0.557-1.299
			c0.928-0.371,1.021-0.65,0.093-1.671c-0.743-0.743-1.207-0.835-1.207-0.186c0,0.557-0.278,1.671-0.557,2.506
			c-0.278,0.835-0.093,1.485,0.557,1.485C354.602,109.416,354.881,109.045,354.602,108.581z M375.765,106.168
			c-0.557-1.485-2.228-1.949-2.228-0.65c0,1.021,1.021,2.042,1.949,2.042C375.951,107.56,376.044,106.91,375.765,106.168z
			 M343.928,105.425c-0.093-1.114-1.392-0.835-1.764,0.371c-0.278,0.557,0.093,0.928,0.743,0.743
			C343.464,106.261,343.928,105.796,343.928,105.425z M352.189,104.775c0.743-0.464,1.021-1.114,0.743-1.485
			c-0.928-0.835-3.527,0.278-3.527,1.485C349.404,105.889,350.333,105.982,352.189,104.775z M381.891,103.847
			c0-0.464-0.65-0.928-1.392-0.928c-0.743,0-1.392,0.464-1.392,0.928c0,0.557,0.65,0.928,1.392,0.928
			C381.242,104.775,381.891,104.404,381.891,103.847z M386.996,102.919c0.278-0.464-0.278-0.928-1.392-0.928
			s-1.671,0.464-1.392,0.928c0.278,0.557,0.928,0.928,1.392,0.928S386.718,103.476,386.996,102.919z M291.856,100.599
			c0-0.743-0.65-1.392-1.485-1.392c-1.299,0-1.299,0.278-0.371,1.392c0.65,0.743,1.299,1.392,1.485,1.392
			S291.856,101.341,291.856,100.599z M370.939,100.32c-0.65-0.186-1.114-1.021-1.114-1.856c0-1.114-0.278-1.207-1.021-0.464
			c-1.207,1.207,0.928,4.177,2.413,3.249C371.681,100.97,371.588,100.599,370.939,100.32z M282.574,99.206
			c0.743-0.464,1.021-0.928,0.557-0.928c-0.557,0-0.093-0.65,0.928-1.392c1.671-1.299,1.671-1.299,0-1.392
			c-0.928,0-2.32,0.743-2.97,1.671C278.954,99.949,279.697,101.063,282.574,99.206z M391.173,98.649
			c0-1.578-2.042-1.299-2.599,0.371c-0.186,0.65,0.278,1.114,1.114,1.114S391.173,99.485,391.173,98.649z M414.378,99.299
			c0-0.464-0.65-1.299-1.392-1.949c-1.485-1.299-1.671-0.928-0.835,1.299C412.708,100.227,414.378,100.691,414.378,99.299z
			 M279.789,96.886c0-1.485-2.506-2.97-3.434-1.949c-0.65,0.65,1.485,3.342,2.599,3.342
			C279.418,98.278,279.789,97.628,279.789,96.886z M386.996,95.493c0.278-0.464-0.278-0.928-1.299-0.928
			c-1.114,0-1.949,0.464-1.949,0.928c0,0.557,0.557,0.928,1.299,0.928S386.718,96.05,386.996,95.493z M406.953,92.709
			c0-0.464-0.65-0.928-1.392-0.928s-1.392-0.464-1.392-1.021c0-0.557,0.557-0.835,1.299-0.557c0.928,0.371,1.392-0.371,1.671-2.692
			c0.278-2.321,0-3.156-1.021-3.156c-0.743,0-2.506-1.021-3.806-2.321c-2.32-2.228-5.569-2.413-5.569-0.371
			c0,0.371,0.743,0.464,1.578,0.186c1.207-0.464,1.392-0.186,0.928,1.021c-0.371,0.835-0.278,1.392,0.186,1.114
			c0.928-0.65,5.291,3.806,4.548,4.641c-0.371,0.278-1.021-0.371-1.671-1.392c-1.392-2.599-3.063-2.506-2.228,0.093
			c0.743,2.321,1.856,3.62,4.548,5.198C406.953,93.823,406.953,93.823,406.953,92.709z M415.121,92.059
			c-0.371-2.042-2.042-1.856-2.413,0.093c-0.186,0.928,0.278,1.485,1.207,1.485S415.306,92.987,415.121,92.059z M421.804,87.511
			c0-1.299-0.278-1.299-1.392-0.371c-0.743,0.65-1.392,1.299-1.392,1.485c0,0.186,0.65,0.371,1.392,0.371
			S421.804,88.346,421.804,87.511z M398.599,87.232c0-0.464-0.65-1.114-1.485-1.392c-2.228-0.835-2.599-0.65-1.299,0.835
			C397.114,88.253,398.599,88.532,398.599,87.232z M414.378,86.676c0-0.743,0.557-1.392,1.207-1.485
			c0.557,0-0.093-0.464-1.485-0.835c-1.485-0.464-3.249-0.557-3.991-0.278c-1.207,0.464-1.114,0.743,0.186,2.228
			C412.243,88.439,414.378,88.625,414.378,86.676z M409.366,82.127c0.557-1.485-1.299-5.662-2.135-4.827
			c-0.278,0.278-0.65,1.764-0.743,3.342C406.21,83.612,408.345,84.634,409.366,82.127z M255.192,73.217
			c0.278-0.464-0.278-0.928-1.392-0.928c-1.114,0-1.671,0.464-1.392,0.928c0.278,0.557,0.928,0.928,1.392,0.928
			C254.264,74.145,254.914,73.774,255.192,73.217z M410.665,56.509c0-0.464-0.65-0.928-1.392-0.928s-1.392,0.464-1.392,0.928
			c0,0.557,0.65,0.928,1.392,0.928S410.665,57.066,410.665,56.509z M412.522,51.404c0-0.743-0.371-1.392-0.928-1.392
			c-0.464,0-0.928,0.65-0.928,1.392c0,0.743,0.464,1.392,0.928,1.392C412.151,52.796,412.522,52.147,412.522,51.404z
			 M119.025,48.341c0.557-1.671-1.392-1.299-2.042,0.371c-0.371,0.928-0.093,1.299,0.557,1.114
			C118.097,49.64,118.84,48.898,119.025,48.341z M421.804,46.02c0-1.299-3.62-3.806-4.363-3.063
			c-0.278,0.278,0.464,1.299,1.671,2.32C421.804,47.506,421.804,47.506,421.804,46.02z M371.403,37.945
			c0-2.042-0.278-3.713-0.743-3.713c-1.392,0-3.62,1.114-3.62,1.856c0,0.557,3.806,5.476,4.27,5.569
			C371.403,41.658,371.403,39.987,371.403,37.945z M374.93,30.52c-0.928-1.021-2.042-1.856-2.506-1.856
			c-0.371,0-0.743,0.835-0.743,1.856c0,1.392,0.65,1.856,2.506,1.856C376.508,32.376,376.601,32.376,374.93,30.52z"/>
	</g>
</g>
<g id="Layer_3">
	<g>
		<g>
			<g>
				<circle fill="#EAEAF0" cx="399.367" cy="116.04" r="11.094"/>
				<path fill="#EAEAF0" d="M374.328,186.928h36.038v67.843h-36.038V186.928z"/>
				<path fill="#EAEAF0" d="M167.754,254.773h-36.038V186.93h36.038V254.773z"/>
				<path fill="#EAEAF0" d="M363.651,342.024c-9.741,3.636-19.602,6.76-29.488,9.375c-20.606,5.642-41.853,8.606-63.216,8.82
					c-21.354-0.216-42.591-3.172-63.192-8.796c-9.911-2.615-19.771-5.766-29.513-9.4l25.174-58.419h135.081L363.651,342.024z"/>
			</g>
			<path fill="#66C7F4" d="M388.92,199.357v74.916c0.004,11.395-6.646,21.743-17.013,26.473
				c-14.872,6.788-30.288,12.312-46.087,16.514c-17.857,4.893-36.265,7.49-54.779,7.73c-18.514-0.239-36.922-2.837-54.779-7.73
				c-15.797-4.202-31.212-9.726-46.082-16.514c-10.367-4.73-17.017-15.078-17.013-26.473v-72.839
				c-0.005-65.337,53.448-120.441,118.78-119.956c64.746,0.502,116.969,53.129,116.972,117.876V199.357z"/>
			<path fill="#EAEAF0" d="M367.025,209.118v46.109c-0.016,11.659-6.974,22.188-17.694,26.774
				c-24.664,10.867-51.338,16.426-78.29,16.315c-26.952,0.111-53.626-5.448-78.29-16.315c-10.72-4.585-17.678-15.115-17.694-26.774
				v-46.109c0-21.451,9.986-41.617,28.165-56.815c18.989-15.383,42.727-23.701,67.165-23.535h1.309
				c24.438-0.166,48.176,8.152,67.165,23.535C357.039,167.501,367.025,187.667,367.025,209.118L367.025,209.118z"/>
		</g>
		<g>
			<path fill="#717272" d="M410.364,182.698h-6.763v-51.931c8.138-2.343,12.836-10.839,10.493-18.977
				c-2.343-8.138-10.839-12.836-18.977-10.493c-8.138,2.343-12.836,10.839-10.493,18.977c1.459,5.07,5.423,9.034,10.493,10.493
				v51.931h-3.103c-3.564-26.402-15.731-50.893-34.617-69.683c-0.485-0.499-1.001-0.994-1.51-1.491
				c-1.681-1.632-4.367-1.592-5.999,0.09c-1.632,1.681-1.592,4.367,0.09,5.999c0.485,0.458,0.943,0.919,1.413,1.391
				c21.383,21.263,33.369,50.198,33.287,80.353v55.356v0.07c0,0,0,0.046,0,0.07v19.42c-0.015,9.731-5.695,18.563-14.543,22.614
				c-7.218,3.292-14.543,6.27-21.948,8.939c-0.036,0-0.073,0.017-0.107,0.031l-0.041,0.024c-7.717,2.778-15.513,5.216-23.305,7.272
				c-17.5,4.813-35.544,7.365-53.693,7.594c-18.151-0.226-36.198-2.776-53.7-7.589c-15.567-4.131-30.756-9.575-45.403-16.271
				c-8.849-4.05-14.529-12.883-14.543-22.614v-19.408c0-0.029,0-0.053,0-0.082s0-0.053,0-0.082v-53.269
				c0.159-31.059,12.623-60.788,34.661-82.675c21.104-21.288,49.885-33.193,79.861-33.034c14.564,0.084,28.975,2.982,42.439,8.534
				c2.141,0.95,4.647-0.015,5.598-2.157s-0.015-4.647-2.157-5.598c-0.072-0.032-0.144-0.062-0.217-0.089
				c-45.116-18.689-97.051-8.288-131.491,26.333c-19.025,18.936-31.529,43.436-35.703,69.952h-18.666
				c-2.343,0-4.242,1.899-4.242,4.242l0,0v67.843c0,2.343,1.899,4.242,4.242,4.242h17.209v15.248
				c0.016,13.048,7.626,24.894,19.488,30.332c15.086,6.897,30.729,12.503,46.761,16.758c18.209,4.999,36.983,7.643,55.865,7.868
				c18.883-0.225,37.659-2.869,55.869-7.868c6.867-1.813,13.714-3.956,20.52-6.302l10.553,24.52
				c-8.168,2.909-16.528,5.507-24.91,7.727c-20.252,5.546-41.134,8.46-62.13,8.67c-20.987-0.217-41.86-3.127-62.106-8.658
				c-8.275-2.181-16.642-4.785-24.932-7.756l2.64-6.12c0.928-2.151-0.063-4.648-2.214-5.576c-2.151-0.928-4.648,0.063-5.576,2.214
				l-4.426,10.263c-0.928,2.151,0.063,4.647,2.214,5.575c0.065,0.028,0.131,0.055,0.198,0.08c9.916,3.699,19.985,6.906,29.925,9.533
				c20.956,5.715,42.558,8.716,64.278,8.929c21.73-0.214,43.341-3.229,64.3-8.968c10.09-2.666,20.149-5.868,29.896-9.506
				c2.195-0.819,3.309-3.263,2.49-5.457c-0.025-0.066-0.051-0.131-0.078-0.195l-12.136-28.189c6.14-2.324,12.243-4.799,18.251-7.541
				c11.864-5.436,19.478-17.282,19.495-30.332v-15.248h17.209c2.34-0.003,4.236-1.901,4.234-4.242V186.94
				c0.001-2.341-1.896-4.24-4.237-4.242C410.367,182.698,410.365,182.698,410.364,182.698L410.364,182.698z M392.514,116.042
				c0-3.784,3.068-6.852,6.852-6.852c3.784,0,6.852,3.068,6.852,6.852c0,3.784-3.068,6.852-6.852,6.852c-0.001,0-0.002,0-0.002,0
				c-3.783-0.005-6.847-3.072-6.85-6.855V116.042z M135.961,250.541v-59.36h13.43c-0.291,3.405-0.47,6.823-0.47,10.25v49.109
				H135.961z M406.122,250.541h-12.96v-51.184c0-2.744-0.124-5.466-0.301-8.176h13.261V250.541z"/>
			<path fill="#717272" d="M329.982,102.173c2.584,1.568,5.139,3.265,7.594,5.044c1.847,1.441,4.513,1.111,5.953-0.737
				c1.441-1.847,1.111-4.513-0.737-5.953c-0.08-0.063-0.163-0.123-0.248-0.179c-2.642-1.915-5.388-3.74-8.166-5.427
				c-2.003-1.216-4.612-0.579-5.828,1.424c-1.216,2.003-0.579,4.612,1.424,5.828H329.982z"/>
			<path fill="#717272" d="M175.057,240.846c-2.343,0-4.242,1.899-4.242,4.242v10.141c0.01,13.358,7.982,25.424,20.266,30.671
				c50.993,22.209,108.926,22.209,159.92,0c12.284-5.248,20.256-17.313,20.266-30.671v-46.111c0-22.733-10.544-44.068-29.682-60.07
				c-19.757-16.014-44.457-24.68-69.889-24.522h-1.338c-25.419-0.152-50.104,8.514-69.85,24.522
				c-19.148,16.005-29.692,37.339-29.692,60.07v8.704c0,2.343,1.899,4.242,4.242,4.242s4.242-1.899,4.242-4.242l0,0v-8.704
				c0-20.174,9.453-39.196,26.645-53.567c18.227-14.742,41.001-22.708,64.443-22.542h1.28c23.452-0.17,46.237,7.796,64.474,22.542
				c17.18,14.361,26.643,33.384,26.643,53.567v46.111c-0.012,9.965-5.964,18.963-15.13,22.874
				c-48.856,21.294-104.37,21.294-153.225,0c-9.166-3.91-15.118-12.908-15.13-22.874v-10.141
				C179.299,242.745,177.4,240.846,175.057,240.846L175.057,240.846z"/>
			<path fill="#717272" d="M326.811,166.713c2.991,2.492,5.763,5.236,8.287,8.2c1.48,1.816,4.152,2.088,5.968,0.609
				c1.816-1.48,2.088-4.152,0.609-5.968c-0.034-0.042-0.069-0.083-0.105-0.124c-2.838-3.335-5.955-6.422-9.317-9.228
				c-8.466-7.017-18.166-12.397-28.601-15.864c-2.218-0.75-4.625,0.44-5.375,2.658c-0.75,2.218,0.44,4.625,2.658,5.375l0,0
				C310.375,155.504,319.151,160.368,326.811,166.713L326.811,166.713z"/>
		</g>
	</g>
</g>
<g id="Layer_4">
	<g>
		<rect x="529.339" y="88.968" fill="none" width="1402.085" height="301.138"/>
		<path opacity="0.97" fill="#66C7F4" d="M685.355,257.747v31.609c-7.54,5.8-16.53,8.41-25.81,8.41
			c-13.92,0-24.939-7.25-30.449-19.72c-8.99,13.919-21.46,19.72-36.25,19.72c-34.219,0-54.809-27.84-54.809-60.899
			c0-32.188,20.59-60.318,54.809-60.318c12.47,0,23.78,4.06,32.479,14.5v-11.89h41.47v73.659c0,5.8,4.06,8.409,8.699,8.409
			C679.265,261.226,682.455,260.067,685.355,257.747z M625.326,249.046v-24.069c-4.06-8.699-12.18-14.209-22.039-14.209
			c-13.92,0-24.069,11.31-24.069,26.099c0,15.08,10.149,26.39,24.069,26.39C612.856,263.256,621.266,257.747,625.326,249.046z"/>
		<path opacity="0.97" fill="#66C7F4" d="M695.506,291.676v-35.38c3.77,3.19,9.28,5.8,13.05,5.8c4.93,0,8.41-2.899,8.41-7.539
			c0-8.99-15.08-22.04-15.08-39.439c0-17.979,8.99-30.739,27.26-39.149l23.489,27.84c-6.38,2.029-9.86,6.96-9.86,13.05
			c0,10.149,15.66,23.199,15.66,43.499c0,22.039-13.63,37.119-35.089,37.119C714.646,297.476,703.337,296.026,695.506,291.676z"/>
		<path opacity="0.97" fill="#66C7F4" d="M790.046,251.367v-34.799h-23.2v-37.41h23.2V131.02h41.469v48.139h25.81v37.41h-25.81
			v30.159c0,8.119,2.899,14.499,11.89,14.499c5.22,0,9.569-1.739,13.92-4.06v32.189c-7.25,5.51-14.21,8.12-24.939,8.12
			C804.545,297.476,790.046,280.076,790.046,251.367z"/>
		<path opacity="0.97" fill="#66C7F4" d="M973.902,202.358c0,15.659-11.6,26.39-24.359,26.39c-8.99,0-16.24-4.061-20.59-10.73
			c-5.8,4.641-8.12,11.021-8.989,18.85v57.999h-41.47V179.158h41.47v15.95c6.669-11.6,17.109-18.56,28.709-18.56
			C962.882,176.548,973.902,187.278,973.902,202.358z"/>
		<path opacity="0.97" fill="#66C7F4" d="M1104.397,237.157c0,33.06-26.97,60.609-60.608,60.609
			c-33.35,0-60.608-27.55-60.608-60.609c0-33.349,27.259-60.898,60.608-60.898C1077.427,176.258,1104.397,203.808,1104.397,237.157z
			 M1069.888,238.607c-2.61,0.87-5.221,1.45-8.12,1.45c-13.34,0-24.649-10.729-24.649-24.359c0-1.45,0-2.61,0.29-3.771
			c-11.31,2.9-18.27,13.63-18.27,25.229c0,14.21,10.149,25.52,24.649,25.52C1057.709,262.676,1069.018,251.947,1069.888,238.607z"/>
		<path fill="#FE039D" d="M1300.145,297.766c-20.01,0-34.22-15.08-34.22-38.569v-34.8c0-8.119-4.35-13.629-12.18-13.629
			c-7.54,0-13.34,6.09-15.079,14.499v69.599h-41.47v-70.469c0-8.119-4.35-13.629-12.18-13.629c-7.539,0-13.339,5.8-15.079,14.209
			v69.889h-41.469V179.158h41.469v11.89c8.409-10.44,19.72-14.5,30.739-14.5c12.18,0,24.939,4.35,31.899,17.109
			c8.989-13.049,24.649-17.109,35.669-17.109c24.069,0,39.149,15.66,39.149,40.02v36.249c0,5.8,4.06,8.409,8.699,8.409
			c3.771,0,6.96-1.159,9.86-3.479v31.609C1318.995,295.156,1310.005,297.766,1300.145,297.766z"/>
		<path fill="#FE039D" d="M1482.261,257.747v31.609c-7.54,5.8-16.53,8.41-25.81,8.41c-13.92,0-24.939-7.25-30.449-19.72
			c-8.99,13.919-21.46,19.72-36.249,19.72c-34.22,0-54.809-27.84-54.809-60.899c0-32.188,20.589-60.318,54.809-60.318
			c12.47,0,23.779,4.06,32.479,14.5v-11.89h41.47v73.659c0,5.8,4.06,8.409,8.699,8.409
			C1476.172,261.226,1479.361,260.067,1482.261,257.747z M1422.232,249.046v-24.069c-4.06-8.699-12.18-14.209-22.039-14.209
			c-13.92,0-24.069,11.31-24.069,26.099c0,15.08,10.149,26.39,24.069,26.39C1409.762,263.256,1418.172,257.747,1422.232,249.046z"/>
		<path fill="#FE039D" d="M1508.363,251.367v-34.799h-23.199v-37.41h23.199V131.02h41.469v48.139h25.81v37.41h-25.81v30.159
			c0,8.119,2.9,14.499,11.89,14.499c5.22,0,9.57-1.739,13.92-4.06v32.189c-7.25,5.51-14.21,8.12-24.939,8.12
			C1522.862,297.476,1508.363,280.076,1508.363,251.367z"/>
		<path fill="#FE039D" d="M1660.32,260.647c10.15,0,20.59-2.61,28.42-8.41v38.279c-8.7,4.06-20.88,6.96-32.479,6.96
			c-38.279,0-66.118-24.359-66.118-61.769c0-33.35,24.939-59.159,60.028-59.159c21.459,0,41.759,9.57,41.759,34.22
			c0,15.659-9.569,25.809-24.359,25.809c-11.31,0-22.619-8.699-22.619-20.299c0-2.61,0.29-4.931,0.87-6.96
			c-9.86,2.319-15.66,12.47-15.66,23.779C1630.161,251.077,1644.081,260.647,1660.32,260.647z"/>
		<path fill="#FE039D" d="M1844.757,257.747v31.609c-7.54,5.8-16.24,8.41-25.81,8.41c-20.3,0-34.22-15.08-34.22-38.569v-34.8
			c0-8.119-4.35-13.629-12.18-13.629c-7.539,0-13.339,5.8-15.079,14.209v69.889h-41.469V88.971h41.469v102.078
			c8.409-10.44,19.72-14.5,30.739-14.5c23.779,0,37.989,16.529,37.989,40.02v36.249c0,5.8,4.06,8.409,8.699,8.409
			C1838.668,261.226,1841.857,260.067,1844.757,257.747z"/>
	</g>
</g>
</svg>
