<?xml version="1.0" encoding="utf-8"?>
<!-- Generator: Adobe Illustrator 25.0.0, SVG Export Plug-In . SVG Version: 6.00 Build 0)  -->
<svg version="1.1" id="Capa_1" xmlns="http://www.w3.org/2000/svg" xmlns:xlink="http://www.w3.org/1999/xlink" x="0px" y="0px"
	 viewBox="0 0 680 680" enable-background="new 0 0 680 680" xml:space="preserve">
<ellipse fill="#62BCAF" cx="340" cy="334" rx="320.5" ry="326"/>
<g>
	<g>
		<path fill="#FFFFFF" d="M439.844,179.297c-23.116,0-44.31,7.325-62.991,21.773C358.944,214.92,347.02,232.562,340,245.39
			c-7.02-12.829-18.944-30.47-36.853-44.321c-18.681-14.447-39.874-21.773-62.991-21.773C175.647,179.297,127,232.062,127,302.033
			c0,75.593,60.691,127.313,152.569,205.61c15.602,13.297,33.287,28.368,51.668,44.442c2.423,2.122,5.535,3.29,8.763,3.29
			s6.34-1.168,8.763-3.289c18.383-16.077,36.067-31.147,51.678-44.451C492.309,429.346,553,377.626,553,302.033
			C553,232.062,504.353,179.297,439.844,179.297z"/>
	</g>
</g>
</svg>
