<?xml version="1.0" encoding="utf-8"?>
<!-- Generator: Adobe Illustrator 25.0.0, SVG Export Plug-In . SVG Version: 6.00 Build 0)  -->
<svg version="1.1" id="Layer_1" xmlns="http://www.w3.org/2000/svg" xmlns:xlink="http://www.w3.org/1999/xlink" x="0px" y="0px"
	 viewBox="0 0 680 680" enable-background="new 0 0 680 680" xml:space="preserve">
<g>
	<path fill="#FF1053" d="M340,14C162.993,14,19.5,159.955,19.5,340S162.993,666,340,666s320.5-145.955,320.5-326S517.007,14,340,14z
		 M506.9,476.219c8.799,8.795,8.799,23.016,0,31.811c-4.387,4.387-10.146,6.591-15.906,6.591c-5.759,0-11.518-2.204-15.906-6.591
		L339.873,372.814L204.661,508.03c-4.387,4.387-10.146,6.591-15.906,6.591c-5.759,0-11.522-2.204-15.906-6.591
		c-8.799-8.795-8.799-23.016,0-31.811l135.212-135.216L172.849,205.786c-8.799-8.795-8.799-23.016,0-31.811
		c8.795-8.795,23.012-8.795,31.811,0l135.212,135.216l135.216-135.216c8.795-8.795,23.016-8.795,31.811,0
		c8.799,8.795,8.799,23.016,0,31.811L371.688,341.003L506.9,476.219z"/>
	<path fill="#FCFCFC" d="M506.9,173.975c-8.795-8.795-23.016-8.795-31.811,0L339.873,309.191L204.661,173.975
		c-8.799-8.795-23.016-8.795-31.811,0c-8.799,8.795-8.799,23.016,0,31.811l135.212,135.216L172.849,476.219
		c-8.799,8.795-8.799,23.016,0,31.811c4.383,4.387,10.146,6.591,15.906,6.591c5.759,0,11.518-2.204,15.906-6.591l135.212-135.216
		L475.089,508.03c4.387,4.387,10.146,6.591,15.906,6.591c5.759,0,11.518-2.204,15.906-6.591c8.799-8.795,8.799-23.016,0-31.811
		L371.688,341.003L506.9,205.786C515.7,196.991,515.7,182.77,506.9,173.975z"/>
</g>
</svg>
