<?xml version="1.0" encoding="utf-8"?>
<!-- Generator: Adobe Illustrator 25.0.0, SVG Export Plug-In . SVG Version: 6.00 Build 0)  -->
<svg version="1.1" id="Layer_1" xmlns="http://www.w3.org/2000/svg" xmlns:xlink="http://www.w3.org/1999/xlink" x="0px" y="0px"
	 viewBox="0 0 680 680" enable-background="new 0 0 680 680" xml:space="preserve">
<g>
	<g>
		<ellipse fill="#FF1053" cx="340" cy="340" rx="320.5" ry="326"/>
	</g>
</g>
<path fill="#FCFCFC" d="M374.688,340.003L509.9,204.786c8.799-8.795,8.799-23.016,0-31.811c-8.795-8.795-23.016-8.795-31.811,0
	L342.873,308.191L207.661,172.975c-8.799-8.795-23.016-8.795-31.811,0c-8.799,8.795-8.799,23.016,0,31.811l135.212,135.216
	L175.849,475.219c-8.799,8.795-8.799,23.016,0,31.811c4.383,4.387,10.146,6.591,15.906,6.591c5.759,0,11.518-2.204,15.906-6.591
	l135.212-135.216L478.089,507.03c4.387,4.387,10.146,6.591,15.906,6.591s11.518-2.204,15.906-6.591
	c8.799-8.795,8.799-23.016,0-31.811L374.688,340.003z"/>
</svg>
