<?xml version="1.0" encoding="UTF-8"?>
<svg xmlns="http://www.w3.org/2000/svg" xmlns:xlink="http://www.w3.org/1999/xlink" width="375pt" height="374.999991pt" viewBox="0 0 375 374.999991" version="1.2">
<defs>
<clipPath id="clip1">
  <path d="M 35 77 L 333 77 L 333 308 L 35 308 Z M 35 77 "/>
</clipPath>
<clipPath id="clip2">
  <path d="M 337.496094 89.148438 L 326.652344 314.636719 L 27.75 300.265625 L 38.59375 74.773438 Z M 337.496094 89.148438 "/>
</clipPath>
<clipPath id="clip3">
  <path d="M 337.496094 89.148438 L 326.652344 314.636719 L 27.75 300.265625 L 38.59375 74.773438 Z M 337.496094 89.148438 "/>
</clipPath>
<clipPath id="clip4">
  <path d="M 41.671875 121.007812 L 333.410156 121.007812 L 333.410156 271.933594 L 41.671875 271.933594 Z M 41.671875 121.007812 "/>
</clipPath>
<clipPath id="clip5">
  <path d="M 54 103.1875 L 324 103.1875 L 324 266 L 54 266 Z M 54 103.1875 "/>
</clipPath>
</defs>
<g id="surface1">
<g clip-path="url(#clip1)" clip-rule="nonzero">
<g clip-path="url(#clip2)" clip-rule="nonzero">
<g clip-path="url(#clip3)" clip-rule="nonzero">
<path style=" stroke:none;fill-rule:nonzero;fill:rgb(56.079102%,63.919067%,70.588684%);fill-opacity:1;" d="M 222.796875 105.042969 C 195.285156 114.601562 135.550781 86.882812 105.589844 79.277344 C 72.589844 70.914062 39.105469 93.949219 35.546875 138.140625 C 29.789062 206.660156 76.503906 189.808594 99.777344 229.949219 C 108.863281 245.582031 100.480469 266.539062 108.855469 279.878906 C 121.402344 300.199219 146.800781 304.707031 163.105469 306.515625 C 198.777344 310.492188 231.453125 291.527344 266.027344 288.464844 C 306.761719 285.082031 326.960938 278.457031 331.367188 216.644531 C 339.917969 89.929688 276.34375 86.667969 222.796875 105.042969 Z M 222.796875 105.042969 "/>
</g>
</g>
</g>
<path style=" stroke:none;fill-rule:nonzero;fill:rgb(39.608765%,54.119873%,56.469727%);fill-opacity:1;" d="M 135.179688 171.007812 L 120.613281 156.234375 C 123.445312 149.355469 120.210938 143.285156 120.210938 143.285156 C 117.265625 144.460938 113.578125 148.847656 111.785156 151.152344 C 111.894531 151.214844 112.007812 151.285156 112.117188 151.378906 C 114.546875 153.402344 110.296875 160.6875 110.296875 160.6875 L 131.539062 181.125 C 131.539062 181.125 138.414062 177.980469 140.933594 180.800781 C 143.058594 178.410156 146.109375 174.824219 147.71875 172.21875 C 143.472656 169.1875 135.179688 171.007812 135.179688 171.007812 Z M 243.394531 136.40625 L 218.917969 155.628906 C 218.917969 155.628906 213.3125 152.828125 209.335938 153.988281 C 214.101562 145.714844 228.425781 147.109375 228.425781 137.011719 C 228.425781 125.878906 232.472656 111.3125 232.472656 111.3125 C 235.351562 113.355469 239.636719 117.703125 243.429688 121.808594 C 243.417969 121.816406 243.40625 121.824219 243.394531 121.835938 C 240.5625 124.058594 243.394531 136.40625 243.394531 136.40625 "/>
<path style=" stroke:none;fill-rule:nonzero;fill:rgb(65.879822%,34.899902%,12.939453%);fill-opacity:1;" d="M 238.136719 151.175781 C 235.566406 151.175781 233.484375 153.261719 233.484375 155.832031 C 233.484375 158.398438 235.566406 160.484375 238.136719 160.484375 C 240.707031 160.484375 242.789062 158.398438 242.789062 155.832031 C 242.789062 153.261719 240.707031 151.175781 238.136719 151.175781 Z M 124.457031 181.527344 C 122.558594 181.527344 121.019531 183.070312 121.019531 184.96875 C 121.019531 186.871094 122.558594 188.40625 124.457031 188.40625 C 126.355469 188.40625 127.894531 186.871094 127.894531 184.96875 C 127.894531 183.070312 126.355469 181.527344 124.457031 181.527344 Z M 136.492188 159.117188 C 131.839844 155.070312 128.148438 156.992188 128.148438 156.992188 C 128.148438 156.992188 123.953125 158.964844 122.738281 158.359375 C 121.527344 157.753906 123.347656 153.90625 123.347656 153.90625 C 123.347656 153.90625 121.121094 151.78125 119.503906 154.511719 C 117.882812 157.246094 120.007812 158.964844 120.007812 158.964844 C 118.996094 160.28125 116.0625 171.816406 124.960938 175.761719 C 133.863281 179.707031 146.328125 167.675781 136.492188 159.117188 Z M 236.164062 144.09375 L 227.667969 150.164062 L 224.480469 146.824219 C 224.480469 146.824219 214.46875 153.046875 207.792969 145.914062 L 205.367188 147.128906 L 205.519531 142.726562 C 205.519531 142.726562 200.058594 135.898438 205.214844 127.398438 C 210.375 118.898438 222.359375 118.140625 228.273438 123.300781 C 234.191406 128.460938 231.761719 137.71875 231.761719 137.71875 L 236.164062 144.09375 "/>
<g clip-path="url(#clip4)" clip-rule="nonzero">
<path style=" stroke:none;fill-rule:nonzero;fill:rgb(92.158508%,93.728638%,94.509888%);fill-opacity:1;" d="M 124.457031 188.40625 C 122.558594 188.40625 121.019531 186.871094 121.019531 184.96875 C 121.019531 183.070312 122.558594 181.527344 124.457031 181.527344 C 126.355469 181.527344 127.894531 183.070312 127.894531 184.96875 C 127.894531 186.871094 126.355469 188.40625 124.457031 188.40625 Z M 173.003906 178.695312 C 169.972656 175.460938 164.507812 181.933594 164.507812 181.933594 C 164.507812 181.933594 164.710938 177.277344 162.6875 177.078125 C 160.667969 176.875 159.046875 185.78125 159.046875 185.78125 C 155.808594 184.769531 147.316406 190.433594 147.316406 190.433594 L 140.4375 187.398438 C 140.4375 187.398438 143.472656 183.957031 141.042969 180.921875 C 138.617188 177.886719 131.539062 181.125 131.539062 181.125 L 110.296875 160.6875 C 110.296875 160.6875 114.546875 153.402344 112.117188 151.378906 C 109.691406 149.355469 107.0625 155.222656 107.0625 155.222656 C 101.195312 151.582031 91.285156 151.378906 91.285156 151.378906 L 87.847656 143.6875 C 87.847656 143.6875 91.082031 139.035156 89.867188 136.808594 C 88.65625 134.582031 86.027344 137.011719 86.027344 137.011719 C 86.027344 137.011719 86.632812 130.738281 81.980469 131.546875 C 77.328125 132.355469 80.5625 144.703125 80.5625 144.703125 C 78.339844 144.703125 78.136719 150.769531 82.585938 157.246094 C 87.035156 163.722656 96.542969 163.316406 96.542969 163.316406 L 86.429688 172.21875 L 84.609375 173.839844 C 71.460938 171.613281 62.765625 173.839844 57.503906 178.695312 C 52.246094 183.550781 52.851562 188.613281 52.851562 188.613281 C 52.851562 188.613281 51.640625 192.253906 50.828125 195.085938 C 50.019531 197.921875 47.1875 199.539062 44.761719 199.335938 C 42.335938 199.132812 40.109375 202.574219 43.144531 203.179688 C 46.175781 203.789062 50.019531 205.207031 53.054688 205.8125 C 56.089844 206.417969 58.515625 206.824219 60.132812 204.597656 C 61.753906 202.371094 65.796875 195.289062 65.796875 195.289062 C 69.238281 195.085938 71.867188 190.027344 71.867188 190.027344 L 87.238281 192.457031 L 90.070312 197.515625 L 85.417969 209.859375 C 78.339844 210.871094 74.902344 216.335938 74.902344 216.335938 C 74.902344 216.335938 68.023438 217.347656 68.023438 219.570312 C 68.023438 221.796875 65.597656 232.121094 68.832031 232.121094 C 72.070312 232.121094 70.652344 228.273438 72.269531 227.464844 C 73.890625 226.65625 78.542969 226.449219 78.542969 226.449219 C 78.542969 226.449219 96.746094 225.640625 103.21875 218.359375 C 109.691406 211.074219 119.601562 202.167969 119.601562 202.167969 C 123.851562 203.585938 129.3125 197.109375 129.3125 197.109375 C 133.964844 201.15625 146.707031 206.621094 155 201.359375 C 163.292969 196.097656 164.101562 192.253906 164.101562 192.253906 C 174.417969 186.589844 176.039062 181.933594 173.003906 178.695312 Z M 238.136719 160.484375 C 235.566406 160.484375 233.484375 158.398438 233.484375 155.832031 C 233.484375 153.261719 235.566406 151.175781 238.136719 151.175781 C 240.707031 151.175781 242.789062 153.261719 242.789062 155.832031 C 242.789062 158.398438 240.707031 160.484375 238.136719 160.484375 Z M 325.316406 261.460938 C 324.304688 257.414062 323.089844 247.296875 323.089844 247.296875 C 323.089844 247.296875 326.125 240.414062 320.460938 223.417969 C 314.796875 206.417969 311.15625 197.71875 297.808594 183.351562 C 284.457031 168.984375 264.835938 150.164062 264.835938 150.164062 L 272.320312 150.367188 C 272.320312 150.367188 286.882812 166.957031 297.199219 163.925781 C 297.199219 163.925781 301.246094 169.792969 305.089844 170.601562 C 305.089844 170.601562 306.300781 175.253906 310.144531 173.636719 C 313.988281 172.019531 310.953125 160.890625 303.671875 157.246094 C 303.671875 157.246094 296.59375 142.273438 279.199219 133.773438 C 261.800781 125.273438 251.6875 127.902344 251.6875 127.902344 C 251.6875 127.902344 246.226562 119.609375 243.394531 121.835938 C 240.5625 124.058594 243.394531 136.40625 243.394531 136.40625 L 218.917969 155.628906 C 218.917969 155.628906 210.828125 151.582031 207.1875 155.222656 C 203.546875 158.867188 211.4375 163.722656 211.4375 163.722656 L 200.917969 180.515625 L 186.554688 185.375 C 186.554688 185.375 176.644531 184.160156 175.835938 185.78125 C 175.027344 187.398438 178.261719 189.625 178.261719 189.625 C 178.261719 189.625 170.777344 192.457031 170.777344 195.492188 C 170.777344 198.527344 182.105469 199.539062 188.375 196.503906 C 188.375 196.503906 192.21875 200.144531 205.570312 197.515625 C 218.917969 194.882812 223.773438 177.886719 223.773438 177.886719 L 245.011719 198.527344 C 245.011719 198.527344 238.746094 216.738281 242.382812 229.285156 C 246.023438 241.832031 251.285156 254.175781 254.925781 254.175781 L 260.183594 265.304688 C 260.183594 265.304688 252.496094 266.921875 252.699219 268.945312 C 252.902344 270.96875 262.8125 271.171875 269.285156 271.78125 C 275.757812 272.386719 275.960938 269.148438 274.34375 264.695312 C 272.726562 260.246094 269.488281 250.734375 269.488281 250.734375 C 269.488281 250.734375 272.320312 243.449219 268.476562 231.914062 C 264.632812 220.382812 264.632812 220.382812 264.632812 220.382812 L 273.128906 198.730469 L 293.15625 215.929688 C 293.15625 215.929688 300.839844 236.367188 303.066406 242.234375 C 305.289062 248.105469 309.539062 248.308594 309.539062 248.308594 C 309.539062 248.308594 312.976562 259.636719 314.59375 264.695312 C 316.214844 269.757812 319.246094 269.554688 323.292969 270.96875 C 327.339844 272.386719 333.203125 272.386719 333.40625 269.957031 C 333.609375 267.53125 326.328125 265.503906 325.316406 261.460938 "/>
</g>
<path style=" stroke:none;fill-rule:nonzero;fill:rgb(6.269836%,5.879211%,5.099487%);fill-opacity:1;" d="M 126.277344 170.90625 C 128.300781 171.714844 130.019531 170.5 128.605469 169.589844 C 127.1875 168.679688 125.875 167.261719 125.875 167.261719 C 124.355469 165.847656 124.253906 170.09375 126.277344 170.90625 Z M 130.921875 165.351562 L 130.332031 165.128906 L 129.542969 167.238281 L 128.332031 166.675781 L 128.066406 167.242188 L 129.894531 168.09375 Z M 134.875 167.0625 C 134.875 166.78125 134.648438 166.554688 134.367188 166.554688 C 134.089844 166.554688 133.863281 166.78125 133.863281 167.0625 C 133.863281 167.339844 134.089844 167.566406 134.367188 167.566406 C 134.648438 167.566406 134.875 167.339844 134.875 167.0625 Z M 129.3125 162.003906 C 129.3125 161.722656 129.085938 161.496094 128.808594 161.496094 C 128.527344 161.496094 128.300781 161.722656 128.300781 162.003906 C 128.300781 162.28125 128.527344 162.507812 128.808594 162.507812 C 129.085938 162.507812 129.3125 162.28125 129.3125 162.003906 Z M 147.011719 161.699219 C 146.910156 159.066406 144.484375 158.460938 144.484375 158.460938 C 144.484375 158.460938 146.609375 156.132812 145.496094 153.707031 C 144.382812 151.277344 141.347656 152.695312 141.347656 152.695312 C 141.347656 152.695312 141.449219 146.925781 137.707031 146.925781 C 133.964844 146.925781 131.539062 150.0625 131.539062 150.0625 C 131.539062 150.0625 130.222656 147.027344 127.695312 147.128906 C 125.167969 147.230469 125.671875 151.683594 125.671875 151.683594 C 125.671875 151.683594 123.304688 151.765625 121.984375 153.175781 C 122.765625 153.359375 123.347656 153.90625 123.347656 153.90625 C 123.347656 153.90625 121.527344 157.753906 122.738281 158.359375 C 123.953125 158.964844 128.148438 156.992188 128.148438 156.992188 C 128.148438 156.992188 131.839844 155.070312 136.492188 159.117188 C 142.058594 163.960938 140.484375 169.914062 136.453125 173.457031 C 137.941406 174.453125 140.085938 175.117188 140.539062 171.105469 C 140.539062 171.105469 143.371094 172.21875 144.28125 169.488281 C 145.191406 166.757812 144.28125 165.644531 144.28125 165.644531 C 144.28125 165.644531 147.113281 164.328125 147.011719 161.699219 Z M 213.964844 146.421875 C 215.480469 145.410156 215.886719 143.6875 215.886719 142.675781 C 215.886719 141.664062 214.46875 140.957031 214.46875 142.980469 C 214.46875 145.003906 212.75 146.015625 212.75 146.015625 C 212.347656 146.21875 212.445312 147.433594 213.964844 146.421875 Z M 207.816406 140.34375 C 207.3125 140.34375 206.90625 140.75 206.90625 141.25 C 206.90625 141.753906 207.3125 142.164062 207.816406 142.164062 C 208.320312 142.164062 208.722656 141.753906 208.722656 141.25 C 208.722656 140.75 208.320312 140.34375 207.816406 140.34375 Z M 227.820312 135.746094 C 225.21875 134.011719 227.214844 131.039062 223.875 129.070312 C 220.539062 127.09375 217.960938 132.863281 217.960938 132.863281 C 217.960938 132.863281 214.46875 135.441406 212.042969 130.585938 L 202.636719 133.925781 C 202.636719 133.925781 197.175781 130.738281 199.601562 124.816406 C 202.027344 118.898438 206.886719 119.960938 206.886719 119.960938 C 206.886719 119.960938 205.824219 114.800781 211.890625 113.738281 C 217.960938 112.675781 220.082031 116.320312 220.082031 116.320312 C 220.082031 116.320312 224.332031 111.765625 229.488281 114.652344 C 234.644531 117.53125 233.433594 122.542969 233.433594 122.542969 C 233.433594 122.542969 238.136719 124.667969 237.378906 129.070312 C 236.621094 133.46875 232.371094 138.78125 227.820312 135.746094 "/>
<g clip-path="url(#clip5)" clip-rule="nonzero">
<path style=" stroke:none;fill-rule:nonzero;fill:rgb(39.608765%,54.119873%,56.469727%);fill-opacity:1;" d="M 267.332031 251.445312 L 267.195312 250.832031 L 256.273438 253.261719 L 256.410156 253.875 Z M 98.28125 152.882812 L 98.042969 152.300781 C 93.121094 154.351562 90.109375 161.675781 89.980469 161.984375 L 90.5625 162.222656 C 90.59375 162.148438 93.605469 154.832031 98.28125 152.882812 Z M 89.496094 150.679688 L 89.429688 150.054688 C 85.71875 150.46875 82.105469 154.238281 81.957031 154.398438 L 82.410156 154.832031 C 82.445312 154.792969 86.015625 151.066406 89.496094 150.679688 Z M 87.921875 143.992188 L 87.769531 143.382812 L 82.105469 144.800781 L 82.257812 145.410156 Z M 161.09375 194.671875 L 155.027344 188.195312 L 154.570312 188.625 L 160.636719 195.097656 Z M 150.042969 200.867188 L 147.414062 191.761719 L 146.8125 191.9375 L 149.441406 201.042969 Z M 303.789062 157.539062 L 303.558594 156.953125 C 299.394531 158.597656 297.015625 163.582031 296.917969 163.789062 L 297.484375 164.058594 C 297.507812 164.007812 299.855469 159.089844 303.789062 157.539062 Z M 293.996094 146.167969 L 293.628906 145.660156 C 287.550781 150.066406 284.445312 158.925781 284.414062 159.015625 L 285.007812 159.222656 C 285.039062 159.132812 288.078125 150.460938 293.996094 146.167969 Z M 281.101562 136.457031 L 280.734375 135.945312 C 274.769531 140.230469 273.960938 148.714844 273.929688 149.074219 L 274.554688 149.128906 C 274.5625 149.046875 275.375 140.570312 281.101562 136.457031 Z M 262.398438 149.144531 C 262.363281 149.042969 258.746094 138.886719 265.082031 130.777344 L 264.589844 130.394531 C 258.035156 138.78125 261.773438 149.257812 261.8125 149.359375 Z M 218.910156 185.972656 C 210.933594 184.941406 205.050781 178.550781 204.992188 178.484375 L 204.527344 178.90625 C 204.585938 178.972656 210.617188 185.53125 218.828125 186.597656 Z M 200.660156 196.355469 L 196.714844 184.066406 L 196.117188 184.253906 L 200.0625 196.550781 Z M 188.683594 193.207031 L 187.472656 186.832031 L 186.855469 186.949219 L 188.066406 193.324219 Z M 65.925781 195 L 54.546875 189.945312 L 54.292969 190.515625 L 65.671875 195.578125 Z M 78.675781 224.25 L 75.894531 217.953125 C 76.839844 217.269531 81.003906 214.332031 85.730469 212.582031 C 91.210938 210.550781 93.042969 199.378906 92.8125 195.472656 C 92.597656 191.785156 88.824219 189.503906 81.609375 188.707031 C 80.15625 188.542969 78.871094 188.371094 77.730469 188.222656 C 73.113281 187.613281 70.789062 187.304688 69.386719 189.238281 C 67.714844 191.539062 66.136719 193.226562 63.878906 193.980469 L 64.078125 194.574219 C 66.492188 193.769531 68.148438 192.007812 69.894531 189.605469 C 71.082031 187.976562 73.136719 188.25 77.648438 188.84375 C 78.792969 188.996094 80.082031 189.167969 81.539062 189.328125 C 88.40625 190.09375 91.988281 192.171875 92.183594 195.511719 C 92.378906 198.8125 90.742188 210.054688 85.511719 211.992188 C 80.070312 214.007812 75.363281 217.566406 75.316406 217.601562 L 75.121094 217.753906 L 78.101562 224.503906 Z M 73.199219 220.867188 C 73.199219 221.273438 72.71875 221.613281 72.148438 221.613281 C 71.578125 221.613281 71.097656 221.273438 71.097656 220.867188 C 71.097656 220.460938 71.578125 220.117188 72.148438 220.117188 C 72.71875 220.117188 73.199219 220.460938 73.199219 220.867188 Z M 73.828125 220.867188 C 73.828125 220.109375 73.074219 219.492188 72.148438 219.492188 C 71.222656 219.492188 70.46875 220.109375 70.46875 220.867188 C 70.46875 221.625 71.222656 222.242188 72.148438 222.242188 C 73.074219 222.242188 73.828125 221.625 73.828125 220.867188 Z M 56.078125 200.855469 C 56.078125 201.710938 55.726562 202.257812 55.480469 202.257812 C 55.238281 202.257812 54.886719 201.710938 54.886719 200.855469 C 54.886719 199.996094 55.238281 199.449219 55.480469 199.449219 C 55.726562 199.449219 56.078125 199.996094 56.078125 200.855469 Z M 56.707031 200.855469 C 56.707031 199.695312 56.179688 198.820312 55.480469 198.820312 C 54.785156 198.820312 54.257812 199.695312 54.257812 200.855469 C 54.257812 202.011719 54.785156 202.886719 55.480469 202.886719 C 56.179688 202.886719 56.707031 202.011719 56.707031 200.855469 Z M 209.613281 164.328125 L 223.167969 179.707031 L 223.773438 177.886719 L 211.4375 163.722656 Z M 253.507812 125.070312 C 253.507812 125.070312 240.765625 132.15625 246.832031 144.496094 C 252.902344 156.839844 267.261719 151.582031 267.261719 151.582031 L 264.835938 150.164062 C 264.835938 150.164062 252.496094 152.1875 249.058594 143.484375 C 245.621094 134.785156 254.519531 127.5 254.519531 127.5 Z M 206.9375 156.566406 C 206.792969 156.488281 192.710938 148.519531 190.042969 135.453125 C 188.585938 128.308594 190.761719 120.933594 196.515625 113.527344 C 201.519531 107.082031 207.335938 103.816406 213.8125 103.816406 C 213.828125 103.816406 213.847656 103.816406 213.867188 103.816406 C 221.773438 103.839844 229.304688 108.777344 234.230469 112.917969 C 239.589844 117.421875 243.109375 121.980469 243.144531 122.023438 L 243.644531 121.640625 C 243.609375 121.597656 240.054688 116.992188 234.644531 112.445312 C 229.640625 108.238281 221.96875 103.214844 213.867188 103.1875 C 213.847656 103.1875 213.828125 103.1875 213.808594 103.1875 C 207.132812 103.1875 201.148438 106.539062 196.019531 113.144531 C 190.148438 120.699219 187.929688 128.25 189.429688 135.582031 C 192.15625 148.9375 206.488281 157.035156 206.628906 157.117188 Z M 317.558594 262.167969 C 317.558594 263.621094 317.078125 264.585938 316.761719 264.585938 C 316.445312 264.585938 315.964844 263.621094 315.964844 262.167969 C 315.964844 260.714844 316.445312 259.75 316.761719 259.75 C 317.078125 259.75 317.558594 260.714844 317.558594 262.167969 Z M 318.1875 262.167969 C 318.1875 260.65625 317.699219 259.121094 316.761719 259.121094 C 315.824219 259.121094 315.335938 260.65625 315.335938 262.167969 C 315.335938 263.683594 315.824219 265.214844 316.761719 265.214844 C 317.699219 265.214844 318.1875 263.683594 318.1875 262.167969 Z M 269.175781 262.269531 C 269.175781 263.753906 268.59375 264.789062 268.074219 264.789062 C 267.550781 264.789062 266.972656 263.753906 266.972656 262.269531 C 266.972656 260.785156 267.550781 259.75 268.074219 259.75 C 268.59375 259.75 269.175781 260.785156 269.175781 262.269531 Z M 269.800781 262.269531 C 269.800781 260.503906 269.042969 259.121094 268.074219 259.121094 C 267.101562 259.121094 266.34375 260.503906 266.34375 262.269531 C 266.34375 264.035156 267.101562 265.414062 268.074219 265.414062 C 269.042969 265.414062 269.800781 264.035156 269.800781 262.269531 Z M 118.65625 171.789062 L 118.222656 171.335938 L 103.8125 185.144531 L 104.246094 185.601562 Z M 95.078125 164.582031 L 107.0625 155.222656 C 107.0625 155.222656 107.519531 151.683594 105.851562 153.046875 C 104.179688 154.414062 93.863281 163.519531 93.863281 163.519531 Z M 130.578125 198.273438 L 143.167969 187.347656 L 141.957031 185.980469 L 129.3125 197.109375 Z M 263.714844 232.621094 C 259.59375 221 259.066406 212.613281 261.898438 203.679688 C 263.992188 197.082031 266.378906 193.214844 268.804688 192.5 C 269.945312 192.164062 271.097656 192.492188 272.324219 193.507812 C 280.355469 200.148438 294.324219 212.035156 295.714844 214.464844 C 296.164062 215.257812 297.054688 218.28125 298.179688 222.101562 C 301.054688 231.882812 305.398438 246.660156 309.402344 248.589844 L 309.480469 248.625 L 323.113281 247.609375 L 323.066406 246.980469 L 309.601562 247.988281 C 305.867188 246.019531 301.4375 230.953125 298.78125 221.925781 C 297.601562 217.910156 296.746094 215.007812 296.261719 214.15625 C 294.492188 211.0625 274.945312 194.859375 272.722656 193.023438 C 271.34375 191.882812 269.964844 191.503906 268.625 191.898438 C 265.953125 192.683594 263.488281 196.585938 261.300781 203.492188 C 258.421875 212.566406 258.953125 221.070312 263.125 232.828125 C 267.464844 245.066406 263.992188 251.324219 263.957031 251.386719 L 264.5 251.699219 C 264.652344 251.441406 268.164062 245.160156 263.714844 232.621094 Z M 251.5625 183.25 C 251.53125 183.238281 248.375 182.429688 245.628906 179.882812 C 243.742188 178.125 237.824219 171.703125 233.070312 166.542969 C 230.695312 163.964844 228.640625 161.738281 227.441406 160.472656 C 223.933594 156.765625 223.6875 153.617188 223.683594 153.582031 L 223.058594 153.621094 C 223.0625 153.761719 223.308594 157.019531 226.984375 160.902344 C 228.183594 162.167969 230.234375 164.390625 232.609375 166.96875 C 237.367188 172.140625 243.296875 178.570312 245.207031 180.34375 C 248.058594 182.996094 251.273438 183.824219 251.410156 183.859375 Z M 84.609375 172.019531 C 97.960938 193.46875 119.402344 204.394531 119.402344 204.394531 L 121.019531 202.777344 C 107.464844 194.277344 86.226562 170.199219 86.226562 170.199219 Z M 241.457031 197.070312 C 261.078125 187.761719 279.199219 161.902344 279.199219 161.902344 L 277.175781 160.28125 C 256.542969 184.363281 239.636719 195.246094 239.636719 195.246094 Z M 141.265625 181.144531 L 140.824219 180.699219 C 140.957031 180.570312 154.078125 167.613281 153.882812 154.652344 C 153.808594 149.617188 151.730469 145.1875 147.710938 141.492188 C 143.523438 137.644531 138.925781 135.964844 134.027344 136.484375 C 122.246094 137.75 112.472656 151.421875 112.375 151.558594 L 111.863281 151.199219 C 111.960938 151.054688 121.890625 137.15625 133.957031 135.863281 C 139.042969 135.320312 143.808594 137.058594 148.132812 141.027344 C 152.289062 144.847656 154.433594 149.429688 154.511719 154.644531 C 154.707031 167.878906 141.398438 181.015625 141.265625 181.144531 "/>
</g>
</g>
</svg>
