<?xml version="1.0" encoding="utf-8"?>
<!-- Generator: Adobe Illustrator 25.0.0, SVG Export Plug-In . SVG Version: 6.00 Build 0)  -->
<svg version="1.1" id="Capa_1" xmlns="http://www.w3.org/2000/svg" xmlns:xlink="http://www.w3.org/1999/xlink" x="0px" y="0px"
	 viewBox="0 0 512 512" style="enable-background:new 0 0 512 512;" xml:space="preserve">
<style type="text/css">
	.st0{fill:#FFFFFF;}
</style>
<path class="st0" d="M512,256C512,114.6,397.4,0,256,0S0,114.6,0,256s114.6,256,256,256c1.5,0,3,0,4.5-0.1V312.7h-55v-64.1h55v-47.2
	c0-54.7,33.4-84.5,82.2-84.5c23.4,0,43.5,1.7,49.3,2.5v57.2h-33.6c-26.5,0-31.7,12.6-31.7,31.1v40.8h63.5l-8.3,64.1h-55.2v189.5
	C433.7,471.4,512,372.9,512,256z"/>
</svg>
