<?xml version="1.0" encoding="utf-8"?>
<!-- Generator: Adobe Illustrator 25.0.0, SVG Export Plug-In . SVG Version: 6.00 Build 0)  -->
<svg version="1.1" id="Layer_2" xmlns="http://www.w3.org/2000/svg" xmlns:xlink="http://www.w3.org/1999/xlink" x="0px" y="0px"
	 viewBox="0 0 1465.363 473.913" enable-background="new 0 0 1465.363 473.913" xml:space="preserve">
<g>
	<rect x="496.799" y="137.189" fill="none" width="984.879" height="370.649"/>
	<path fill="#FFFFFF" d="M690.3,326.188h-151c-20.75,0-37.5-16.75-37.5-37.5v-6c0-20.75,16.75-37.5,37.5-37.5h127v-33h-158v-24
		h144.5c20.75,0,37.5,16.75,37.5,37.5V326.188z M666.3,302.188v-33H525.8v33H666.3z"/>
	<path fill="#FFFFFF" d="M900.297,326.188h-144.5c-20.75,0-37.5-16.75-37.5-37.5v-63c0-20.75,16.75-37.5,37.5-37.5h120.5v-51h24
		V326.188z M876.297,302.188v-90h-134v90H876.297z"/>
	<path fill="#FFFFFF" d="M1196.296,326.188h-24v-114h-98v114h-24v-114h-98v114h-24v-138h230.5c20.75,0,37.5,16.75,37.5,37.5V326.188
		z"/>
	<path fill="#FFFFFF" d="M1248.294,167.188h-24v-30h24V167.188z M1248.294,326.188h-24v-138h24V326.188z"/>
	<path fill="#FFFFFF" d="M1458.292,326.188h-24v-114h-134v114h-24v-138h144.5c20.75,0,37.5,16.75,37.5,37.5V326.188z"/>
</g>
<g>
	<path fill="#FFFFFF" d="M176.677,403.208c-16-26.8-24.7-40.4-25.6-40.2c-1.2,0.2-23.4,35.8-32.3,51.6l-2.5,4.4l2.5,1.9
		c3.7,2.8,20.4,11.3,29.5,14.9c4.4,1.8,13.9,4.9,21,7c11,3.2,14.5,3.8,22.9,3.9c8.6,0.1,9.7-0.1,9.2-1.5
		C201.077,444.308,189.877,425.408,176.677,403.208z"/>
	<path fill="#FFFFFF" d="M295.377,361.108c-1.9,0.6-49.6,81.2-49.6,83.8c0,1.5,0.5,1.9,1.8,1.5c0.9-0.2,4.6-0.8,8.2-1.1
		c13.4-1.4,29.5-5.5,43.3-11c8.9-3.6,26.6-13.1,29.2-15.6c2-2,2-2-0.4-6.2C317.877,395.108,296.277,360.808,295.377,361.108z"/>
	<path fill="#FFFFFF" d="M127.777,193.708c-2.3-2.5-14-9.9-35.4-22.4c-17.6-10.2-32.3-18.5-32.8-18.5c-0.4,0-0.8,0.6-0.8,1.4
		c0,0.7,16.7,30.3,37.1,65.7c20.4,35.4,43.9,76.1,52.1,90.4c8.3,14.3,17.6,30.5,20.8,36s12.7,21.9,21,36.5
		c8.4,14.6,17.7,30.7,20.7,35.8c3,5.1,5.9,9,6.4,8.7c0.5-0.4,0.9-17.1,0.9-40.9v-40.2l-12.7-22
		C157.877,242.808,130.777,197.108,127.777,193.708z"/>
	<path fill="#FFFFFF" d="M289.277,321.308c24.5-42.5,47.2-81.9,73.4-127.3c12.2-21.1,22.1-39,22.1-39.8c0-0.7-0.4-1.4-0.8-1.4
		s-10,5.4-21.3,12.1c-11.2,6.6-24.9,14.6-30.4,17.7c-14.1,8-18.1,12.4-30.6,34.2c-5.8,10.2-25.2,43.5-43,74l-32.4,55.5l-0.3,38.9
		c-0.2,21.4-0.1,39.5,0.2,40.3c0.3,0.7,1,1.3,1.5,1.3s5.9-8.7,11.9-19.2c6.1-10.6,15.7-27.4,21.4-37.3
		C266.777,360.408,279.477,338.408,289.277,321.308z"/>
	<path fill="#FFFFFF" d="M135.677,330.108c-2.2-5.9-35.6-60.3-37.4-61c-1.1-0.5-19.9-0.7-41.7-0.5c-31.6,0.3-39.8,0.6-40.2,1.7
		c-0.7,1.9,4.8,26.3,8.5,37.5c10.9,33.2,34.2,67,62.2,90.4c3.8,3.1,7.6,5.6,8.5,5.4c1-0.2,8.7-12.6,19-30.8
		C135.977,335.208,136.877,333.308,135.677,330.108z"/>
	<path fill="#FFFFFF" d="M429.077,268.108c-2.6-1.9-75.1-1.8-79.6,0.1c-2.8,1.1-5.9,5.6-21,30.8c-9.8,16.3-17.7,30.6-17.7,31.9
		c0,1.4,4.3,10.1,9.6,19.4c5.3,9.4,14.1,25,19.7,34.8c5.5,9.7,10.6,17.7,11.3,17.7c3,0,24.7-20.6,34.9-33
		c22.5-27.5,35.1-54.5,42.5-90.5C430.677,269.908,430.777,269.208,429.077,268.108z"/>
	<path fill="#FFFFFF" d="M283.177,218.408c4.7-8.2,8.6-15.5,8.6-16.2c0-1.2-11.2-1.4-69.4-1.4c-38.2,0-69.7,0.4-70,0.8
		c-0.4,0.7,30.7,55.9,62.1,110c3.6,6.2,7,11.1,7.6,10.9c1-0.3,12.8-20.2,40.7-68.7C269.277,242.508,278.477,226.608,283.177,218.408
		z"/>
	<path fill="#FFFFFF" d="M50.577,248.308c17.4-0.4,32-0.9,32.5-1.2c1.7-1,0.2-4.3-10.7-23.6c-6.2-11.1-16.4-29.2-22.5-40.2
		c-6.2-11-11.8-20.6-12.6-21.4c-1.1-1.1-1.5-1-2.8,1c-5.2,8-13.1,33.4-15.3,49.3c-1.7,12-2.3,32.1-1.1,35
		C18.777,249.008,20.077,249.008,50.577,248.308z"/>
	<path fill="#FFFFFF" d="M361.477,246.908c0.5,0.5,7.8,1,16.3,1.2c8.5,0.1,23.2,0.3,32.5,0.2h17l0.3-13.4
		c0.4-22.1-5.6-49.8-14.8-68.1l-3.3-6.5l-2.1,2.8c-1.8,2.4-28.8,50.2-42.8,75.5C362.277,242.808,360.977,246.408,361.477,246.908z"
		/>
	<path fill="#FFFFFF" d="M222.077,144.008c-102.4,0.2-157.8,0.6-157.8,1.3c0,0.9,49.3,30.1,61.7,36.5l5.7,3h28.6
		c20.3,0,28.5,0.3,28.5,1.1c0,0.8,0.8,0.9,2.3,0.3c1.2-0.5,29.4-1.1,62.7-1.4c56.3-0.5,60.7-0.6,63.9-2.3
		c6.4-3.5,59.6-34.9,60.9-35.9c0.6-0.6,1.2-1.4,1.2-1.9S312.477,143.908,222.077,144.008z"/>
	<path fill="#FFFFFF" d="M185.077,120.608l2,2.2h35.3h35.2l2.6-3c1.4-1.7,5.4-8.1,8.9-14.3c3.5-6.1,11.8-20.7,18.5-32.4
		c6.7-11.7,12.2-22,12.2-23.1c0-1.5-1.9-2.5-9.2-5c-21.8-7.2-39.3-10.3-62.4-10.9c-13.9-0.4-21-0.2-31,1.2
		c-20.4,2.7-49.4,10.9-51.7,14.6c-0.7,1.1,4,10,18.3,34.9C174.377,103.208,183.977,119.308,185.077,120.608z"/>
	<path fill="#FFFFFF" d="M290.277,120.808c0.4,0.6,17.8,1,49.6,1c55.5,0,52.9,0.4,46.3-7.8c-21.6-26.8-56.9-55.6-62.6-50.9
		C321.077,65.108,289.577,119.708,290.277,120.808z"/>
	<path fill="#FFFFFF" d="M102.277,119.808c43.8,0,49.5-0.2,49.5-1.5c0-1.4-29.5-52.9-32.2-56.2c-1.6-2-3.3-1.6-10.9,3
		c-11.1,6.6-22.7,15.8-33.1,26c-10.6,10.5-22.8,25.1-22.8,27.3C52.777,119.608,60.477,119.808,102.277,119.808z"/>
</g>
</svg>
