<!DOCTYPE svg PUBLIC "-//W3C//DTD SVG 20010904//EN" "http://www.w3.org/TR/2001/REC-SVG-20010904/DTD/svg10.dtd">
<svg version="1.0" xmlns="http://www.w3.org/2000/svg" width="559px" height="502px" viewBox="0 0 5590 5020" preserveAspectRatio="xMidYMid meet">
<g id="layer101" fill="#45515d" stroke="none">
<path d="M2297 3362 l-437 -437 385 -385 c212 -212 385 -388 385 -392 0 -14 -37 -9 -49 6 -16 19 -132 87 -196 115 -199 89 -317 115 -520 115 -177 0 -266 -14 -415 -66 -150 -53 -304 -143 -415 -242 l-50 -44 432 -431 c238 -237 436 -431 440 -431 5 0 166 158 358 350 192 192 356 350 362 350 22 0 14 -31 -27 -102 -22 -39 -40 -73 -40 -78 0 -4 -11 -27 -25 -51 -54 -98 -91 -258 -100 -441 -8 -149 19 -357 59 -453 14 -33 26 -70 26 -83 0 -12 9 -30 20 -39 11 -10 20 -23 20 -29 0 -17 29 -70 45 -84 8 -7 15 -17 15 -23 0 -12 67 -114 92 -139 9 -10 29 -33 43 -53 15 -19 34 -35 42 -35 11 0 333 309 433 415 8 9 44 45 80 80 92 91 88 87 292 290 45 46 70 78 70 93 0 17 -67 92 -253 279 -140 141 -267 268 -283 282 -69 60 -106 101 -106 116 0 23 23 18 79 -14 93 -56 288 -113 473 -139 124 -18 378 14 528 66 118 42 202 88 371 204 39 26 99 90 99 104 0 5 -171 179 -380 388 -209 208 -380 383 -380 387 0 5 -5 9 -11 9 -7 0 -34 23 -60 50 -26 28 -51 50 -55 50 -3 0 -166 -159 -360 -352 -195 -194 -358 -354 -364 -356 -18 -6 -11 15 30 84 146 250 200 573 144 864 -42 217 -153 441 -296 599 -21 22 -44 41 -50 41 -7 -1 -210 -198 -451 -438z"/>
</g>
<g id="layer102" fill="#fe7f03" stroke="none">
<path d="M2164 4589 c-8 -13 -5 -392 3 -400 5 -5 260 -8 589 -7 l579 3 5 193 c4 137 2 196 -6 203 -12 10 -1163 18 -1170 8z"/>
<path d="M3280 2565 c-195 -195 -360 -354 -366 -352 -6 1 -31 -23 -55 -53 -23 -30 -58 -71 -76 -90 l-32 -35 -56 55 c-38 38 -62 54 -76 52 -12 -2 -31 5 -43 16 -78 70 -280 159 -456 202 -126 31 -370 34 -500 6 -218 -47 -431 -153 -585 -290 l-50 -44 432 -431 c238 -237 436 -431 440 -431 5 0 166 158 358 350 192 193 356 350 362 350 22 0 14 -31 -27 -102 -22 -39 -40 -73 -40 -78 0 -4 -11 -27 -25 -51 -54 -98 -91 -258 -100 -441 -8 -149 19 -357 59 -453 14 -33 26 -70 26 -83 0 -12 9 -30 20 -39 11 -10 20 -23 20 -29 0 -17 29 -70 45 -84 8 -7 15 -17 15 -23 0 -12 67 -114 92 -139 9 -10 29 -33 43 -53 15 -19 34 -35 42 -35 11 0 333 309 433 415 8 9 44 45 80 80 92 91 88 87 292 290 45 46 70 78 70 93 0 17 -67 92 -253 279 -140 141 -267 268 -283 282 -69 60 -106 101 -106 116 0 23 23 18 79 -14 93 -56 288 -113 473 -139 124 -18 378 14 528 66 118 42 202 88 371 204 39 26 99 90 99 104 0 5 -171 179 -380 388 -209 208 -380 383 -380 387 0 5 -5 9 -11 9 -7 0 -34 23 -60 50 -26 28 -52 50 -56 50 -4 -1 -168 -160 -363 -355z"/>
</g>
<g id="layer103" fill="#f8ae4a" stroke="none">
<path d="M2166 4592 c-9 -15 -8 -394 1 -403 5 -5 260 -8 589 -7 l579 3 5 193 c5 185 4 194 -15 210 -11 9 -14 10 -7 2 9 -10 12 -67 12 -207 l0 -193 -577 2 -578 3 0 203 c0 111 -1 202 -2 202 -1 0 -4 -4 -7 -8z"/>
<path d="M3595 2878 l-40 -43 45 40 c25 22 47 41 49 43 2 1 0 2 -5 2 -6 0 -28 -19 -49 -42z"/>
<path d="M3855 2710 c33 -33 62 -60 64 -60 3 0 -21 27 -54 60 -33 33 -62 60 -64 60 -3 0 21 -27 54 -60z"/>
<path d="M4030 2535 c41 -44 77 -79 80 -77 2 1 -32 37 -75 80 l-79 77 74 -80z"/>
<path d="M3130 2415 c-52 -52 -92 -95 -89 -95 4 0 46 41 95 90 106 108 98 100 93 100 -2 0 -47 -43 -99 -95z"/>
<path d="M4175 2390 c33 -33 62 -60 64 -60 3 0 -21 27 -54 60 -33 33 -62 60 -64 60 -3 0 21 -27 54 -60z"/>
<path d="M1730 2384 c-259 -33 -513 -146 -695 -308 l-50 -44 432 -431 c238 -237 436 -431 440 -431 5 0 166 158 358 350 192 193 356 350 362 350 22 0 14 -31 -27 -102 -22 -39 -40 -73 -40 -78 0 -4 -11 -27 -25 -51 -54 -98 -91 -258 -100 -441 -8 -149 19 -357 59 -453 14 -33 26 -70 26 -83 0 -12 9 -30 20 -39 11 -10 20 -23 20 -29 0 -17 29 -70 45 -84 8 -7 15 -17 15 -23 0 -12 67 -114 92 -139 9 -10 29 -33 43 -53 15 -19 34 -35 42 -35 11 0 333 309 433 415 8 9 44 45 80 80 92 91 88 87 292 290 45 46 70 78 70 93 0 17 -67 92 -253 279 -140 141 -267 268 -283 282 -100 88 -129 131 -90 131 9 0 -23 28 -72 63 -48 34 -133 105 -187 157 -69 66 -106 94 -119 92 -11 -2 -30 5 -42 16 -75 67 -273 156 -441 198 -99 24 -315 39 -405 28z"/>
<path d="M2975 2260 c-27 -27 -55 -49 -61 -47 -7 1 -35 -28 -63 -65 -57 -75 -68 -101 -20 -48 17 19 70 74 117 123 48 48 84 87 81 87 -2 0 -27 -22 -54 -50z"/>
<path d="M4400 2165 c69 -69 127 -125 130 -125 2 0 -51 56 -120 125 -69 69 -127 125 -130 125 -2 0 51 -56 120 -125z"/>
<path d="M4440 1949 l-45 -40 40 26 c22 15 44 33 48 41 12 21 7 18 -43 -27z"/>
<path d="M3025 1822 c14 -14 135 -75 140 -70 2 2 -31 20 -73 41 -42 21 -72 34 -67 29z"/>
<path d="M3285 1710 c11 -5 29 -8 40 -8 16 0 15 2 -5 8 -34 11 -60 11 -35 0z"/>
<path d="M3975 1710 l-20 -9 20 0 c11 0 27 4 35 9 13 9 13 10 0 9 -8 0 -24 -4 -35 -9z"/>
<path d="M3825 1680 c-27 -7 -27 -8 -5 -8 14 0 39 4 55 8 27 7 27 8 5 8 -14 0 -38 -4 -55 -8z"/>
<path d="M3558 1660 c18 -4 77 -4 130 0 l97 7 -130 1 c-83 0 -118 -3 -97 -8z"/>
</g>
<g id="layer104" fill="#abbbc5" stroke="none">
<path d="M1730 2384 c-259 -33 -513 -146 -695 -308 l-50 -44 432 -431 c238 -237 436 -431 440 -431 5 0 166 158 358 350 245 245 355 349 367 346 12 -3 30 13 57 48 23 29 54 64 71 79 16 15 30 33 30 40 0 23 -99 112 -121 109 -12 -2 -31 5 -43 16 -75 67 -273 156 -441 198 -99 24 -315 39 -405 28z"/>
<path d="M2880 2187 l-23 -32 29 27 c15 15 26 30 23 33 -3 2 -16 -10 -29 -28z"/>
</g>


</svg>