<?xml version="1.0" encoding="utf-8"?>
<!-- Generator: Adobe Illustrator 25.0.1, SVG Export Plug-In . SVG Version: 6.00 Build 0)  -->
<svg version="1.1" xmlns="http://www.w3.org/2000/svg" xmlns:xlink="http://www.w3.org/1999/xlink" x="0px" y="0px"
	 viewBox="0 0 790 230" style="enable-background:new 0 0 790 230;" xml:space="preserve">
<g id="Camada_1">
	<g>
		<path style="fill:#0DD3BB;" d="M165.364,123.88c4.507,2.438,8.528,3.237,11.37,2.228c2.356-0.799,3.696-2.06,4.751-4.455
			c2.111-4.75,0.366-11.559-4.183-16.267c-8.731-9.037-22.944-6.641-22.944,3.867C154.36,114.591,158.542,120.181,165.364,123.88z
			 M168.368,110.482c1.484,0,2.686,1.203,2.686,2.686c0,1.484-1.203,2.686-2.686,2.686c-1.483,0-2.686-1.203-2.686-2.686
			C165.681,111.685,166.884,110.482,168.368,110.482z"/>
		<path style="fill:#0DD3BB;" d="M128.126,118.626c4.183,0.462,4.548,0.462,8.69,0c6.01-0.673,9.137-2.438,10.883-6.179
			c0.934-1.892,1.056-2.606,0.853-4.582c-0.447-4.666-3.289-8.533-7.716-10.718c-10.437-5.002-22.619,0.084-24.447,10.172
			C115.415,112.657,120.816,117.827,128.126,118.626z M132.548,104.667c1.484,0,2.686,1.203,2.686,2.686s-1.203,2.686-2.686,2.686
			c-1.484,0-2.686-1.203-2.686-2.686S131.064,104.667,132.548,104.667z"/>
		<path style="fill:#0DD3BB;" d="M129.627,7.465C69.132,7.465,20.092,56.506,20.092,117s49.041,109.535,109.535,109.535
			S239.161,177.494,239.161,117S190.121,7.465,129.627,7.465z M135.151,45.614c3.005,3.11-0.284,8.113-4.223,6.389
			c-1.543-0.673-2.152-1.765-2.152-3.741C128.776,44.773,132.755,43.092,135.151,45.614z M216.369,103.242
			c-0.284-0.084-1.056,1.009-1.827,2.48c-0.731,1.471-2.314,3.909-3.493,5.38c-1.218,1.471-3.574,4.372-5.279,6.473
			c-3.208,3.951-5.117,7.398-5.117,9.205c0,1.724,0.69,1.261,1.178-0.757c0.528-2.27,2.843-5.8,6.579-10.13
			c1.624-1.849,3.696-4.455,4.67-5.843c0.974-1.345,1.787-2.396,1.787-2.312c-0.041,0.883-1.827,6.894-2.964,10.046
			c-0.772,2.186-1.746,5.717-2.112,7.776c-1.056,5.8-3.127,11.055-5.482,13.829c-1.624,1.892-0.812,2.438,0.853,0.588
			c2.274-2.564,5.644-11.265,5.644-14.628c0-0.588,0.772-3.237,1.665-5.885c0.934-2.648,2.193-6.809,2.843-9.247
			c0.65-2.438,1.056-3.657,0.934-2.732c-0.122,0.925-0.812,4.035-1.584,6.936c-0.771,2.9-1.99,7.902-2.68,11.139
			c-2.274,10.508-4.67,17.149-7.066,19.671c-1.381,1.387-3.289,1.513-4.792,0.294c-0.569-0.462-1.178-0.841-1.381-0.841
			c-0.163,0-0.974,1.219-1.746,2.648c-1.746,3.195-7.107,8.827-10.274,10.761c-1.904,1.165-4.199,2.215-6.865,3.155
			c3.24,0.963,5.055,2.039,5.055,3.175c0,4.095-23.539,7.415-52.575,7.415s-52.575-3.319-52.575-7.415
			c0-1.155,1.872-2.248,5.212-3.222c-2.678-0.939-4.98-1.979-6.84-3.109c-3.127-1.892-8.487-7.524-10.274-10.802
			c-0.771-1.429-1.584-2.606-1.746-2.606c-0.203,0-0.812,0.378-1.381,0.841c-4.63,3.741-8.812-4.077-12.711-23.707
			c-0.406-2.144-1.3-5.8-1.949-8.07c-0.65-2.27-1.3-5.002-1.462-6.053c-0.122-1.093,0.203-0.252,0.771,1.892
			c0.528,2.101,1.787,6.263,2.802,9.247c1.015,3.026,1.868,5.927,1.868,6.515c0,3.363,3.37,12.064,5.644,14.628
			c1.665,1.849,2.477,1.303,0.853-0.588c-2.314-2.774-4.873-9.247-5.482-14.039c-0.163-1.261-1.096-4.582-2.03-7.356
			c-0.974-2.774-1.949-5.885-2.233-6.936c-0.244-1.051-0.569-2.27-0.69-2.732c-0.122-0.462,0.406,0,1.137,1.051
			c0.731,1.051,3.046,3.951,5.157,6.431c4.426,5.338,6.051,7.818,6.66,10.298c0.487,1.975,1.137,2.354,1.137,0.673
			c0-1.807-1.909-5.254-5.117-9.205c-1.706-2.101-4.061-5.002-5.279-6.473c-1.178-1.471-2.761-3.909-3.493-5.38
			c-0.772-1.471-1.543-2.564-1.827-2.48c-1.178,0.462-1.056-5.464,0.122-6.683c0.325-0.336,0.853-0.504,1.137-0.378
			c0.569,0.252,0.772,0.547,2.802,5.254c1.462,3.321,3.574,6.725,8.366,13.409c1.584,2.186,3.452,5.086,4.183,6.389
			c0.731,1.345,1.584,2.438,1.868,2.438c0.69,0,0.609-0.252-0.366-2.101l-0.893-1.597l1.868-2.522
			c11.046-14.838,28.223-23.833,52.061-27.195c2.64-0.378,5.32-0.967,5.929-1.261c1.624-0.883,3.533-3.363,4.02-5.212
			c0.974-3.825,1.665-11.349,1.909-20.512c0.244-9.625,0.244-9.793,1.096-9.793c0.812,0,0.853,0.126,0.731,5.128
			c-0.163,6.263,0.528,17.402,1.34,22.446c1.137,6.641,2.843,8.113,10.559,9.205c23.797,3.363,41.015,12.358,52.061,27.195
			l1.868,2.522l-0.893,1.597c-0.974,1.849-1.056,2.101-0.325,2.101c0.244,0,1.096-1.093,1.827-2.438
			c0.731-1.303,2.599-4.203,4.183-6.389c4.792-6.683,6.904-10.088,8.366-13.409c2.03-4.708,2.233-5.002,2.802-5.254
			c0.284-0.126,0.812,0.042,1.137,0.378C217.425,97.777,217.547,103.704,216.369,103.242z"/>
		<path style="fill:#0DD3BB;" d="M183.111,138.97c-6.823,2.144-16.244,2.228-32.812,0.252c-10.68-1.261-12.264-1.345-20.508-1.135
			c-5.441,0.126-11.493,0.547-15.431,1.093c-11.167,1.513-18.802,1.933-23.797,1.345c-2.396-0.294-5.441-0.798-6.741-1.093
			c-7.756-1.849,4.386,2.312,14.7,5.044c3.817,1.009,10.111,3.069,14.051,4.582c13.644,5.212,18.193,6.011,25.584,4.666
			c3.289-0.588,9.097-2.438,13.767-4.414c4.467-1.849,9.219-3.447,14.01-4.666c6.457-1.639,15.553-4.497,16.853-5.296
			C183.354,139.012,183.476,138.844,183.111,138.97z"/>
		<path style="fill:#0DD3BB;" d="M88.491,126.234c1.706,0.547,5.563,0.084,8.244-1.051c9.462-3.951,15.431-11.895,13.767-18.326
			c-0.69-2.732-3.696-5.632-6.781-6.557c-8.081-2.438-17.827,3.531-20.508,12.568C81.344,119.256,83.415,124.51,88.491,126.234z
			 M97.765,110.18c1.484,0,2.686,1.203,2.686,2.686c0,1.484-1.203,2.686-2.686,2.686s-2.686-1.203-2.686-2.686
			C95.079,111.382,96.281,110.18,97.765,110.18z"/>
		<path style="fill:#FFFFFF;" d="M216.248,96.559c-0.325-0.336-0.853-0.504-1.137-0.378c-0.569,0.252-0.772,0.547-2.802,5.254
			c-1.462,3.321-3.574,6.725-8.366,13.409c-1.584,2.186-3.452,5.086-4.183,6.389c-0.731,1.345-1.584,2.438-1.827,2.438
			c-0.731,0-0.65-0.252,0.325-2.101l0.893-1.597l-1.868-2.522c-11.046-14.838-28.264-23.833-52.061-27.195
			c-7.716-1.093-9.421-2.564-10.559-9.205c-0.812-5.044-1.503-16.183-1.34-22.446c0.122-5.002,0.081-5.128-0.731-5.128
			c-0.853,0-0.853,0.168-1.096,9.793c-0.244,9.163-0.934,16.687-1.909,20.512c-0.487,1.849-2.396,4.329-4.02,5.212
			c-0.609,0.294-3.289,0.883-5.929,1.261c-23.837,3.363-41.015,12.358-52.061,27.195l-1.868,2.522l0.893,1.597
			c0.974,1.849,1.056,2.101,0.366,2.101c-0.284,0-1.137-1.093-1.868-2.438c-0.731-1.303-2.599-4.203-4.183-6.389
			c-4.792-6.683-6.904-10.088-8.366-13.409c-2.03-4.708-2.233-5.002-2.802-5.254c-0.284-0.126-0.812,0.042-1.137,0.378
			c-1.178,1.219-1.3,7.145-0.122,6.683c0.284-0.084,1.056,1.009,1.827,2.48c0.731,1.471,2.314,3.909,3.493,5.38
			c1.218,1.471,3.574,4.372,5.279,6.473c3.208,3.951,5.117,7.398,5.117,9.205c0,1.681-0.65,1.303-1.137-0.673
			c-0.609-2.48-2.233-4.96-6.66-10.298c-2.111-2.48-4.426-5.38-5.157-6.431c-0.731-1.051-1.259-1.513-1.137-1.051
			c0.122,0.462,0.447,1.681,0.69,2.732c0.284,1.051,1.259,4.161,2.233,6.936c0.934,2.774,1.868,6.095,2.03,7.356
			c0.609,4.792,3.167,11.265,5.482,14.039c1.624,1.892,0.812,2.438-0.853,0.588c-2.274-2.564-5.644-11.265-5.644-14.628
			c0-0.588-0.853-3.489-1.868-6.515c-1.015-2.984-2.274-7.145-2.802-9.247c-0.569-2.144-0.893-2.984-0.771-1.892
			c0.163,1.051,0.812,3.783,1.462,6.053c0.65,2.27,1.543,5.927,1.949,8.07c3.899,19.63,8.081,27.448,12.711,23.707
			c0.569-0.462,1.177-0.841,1.381-0.841c0.163,0,0.974,1.177,1.746,2.606c1.787,3.278,7.147,8.911,10.274,10.802
			c1.859,1.129,4.162,2.169,6.84,3.109c8.502-2.481,26.515-4.192,47.364-4.192c20.979,0,39.086,1.733,47.521,4.239
			c2.665-0.94,4.961-1.991,6.865-3.155c3.167-1.933,8.528-7.566,10.274-10.761c0.771-1.429,1.584-2.648,1.746-2.648
			c0.203,0,0.812,0.378,1.381,0.841c1.503,1.219,3.411,1.093,4.792-0.294c2.396-2.522,4.792-9.163,7.066-19.671
			c0.69-3.237,1.909-8.239,2.68-11.139c0.772-2.9,1.462-6.011,1.584-6.936c0.122-0.924-0.284,0.294-0.934,2.732
			c-0.65,2.438-1.909,6.599-2.843,9.247c-0.893,2.648-1.665,5.296-1.665,5.885c0,3.363-3.37,12.064-5.644,14.628
			c-1.665,1.849-2.477,1.303-0.853-0.588c2.356-2.774,4.426-8.028,5.482-13.829c0.366-2.06,1.34-5.591,2.112-7.776
			c1.137-3.152,2.924-9.163,2.964-10.046c0-0.084-0.812,0.967-1.787,2.312c-0.974,1.387-3.046,3.993-4.67,5.843
			c-3.736,4.329-6.051,7.86-6.579,10.13c-0.487,2.018-1.178,2.48-1.178,0.757c0-1.807,1.909-5.254,5.117-9.205
			c1.706-2.101,4.061-5.002,5.279-6.473c1.178-1.471,2.761-3.909,3.493-5.38c0.772-1.471,1.543-2.564,1.827-2.48
			C217.547,103.704,217.425,97.777,216.248,96.559z M177.304,105.385c4.548,4.708,6.294,11.517,4.183,16.267
			c-1.056,2.396-2.396,3.657-4.751,4.455c-2.843,1.009-6.863,0.21-11.37-2.228c-6.823-3.699-11.005-9.289-11.005-14.628
			C154.36,98.744,168.573,96.348,177.304,105.385z M116.39,107.319c1.827-10.088,14.01-15.174,24.447-10.172
			c4.426,2.186,7.269,6.053,7.716,10.718c0.203,1.975,0.081,2.69-0.853,4.582c-1.746,3.741-4.873,5.506-10.883,6.179
			c-4.142,0.462-4.507,0.462-8.69,0C120.816,117.827,115.415,112.657,116.39,107.319z M83.212,112.867
			c2.68-9.037,12.426-15.006,20.508-12.568c3.086,0.924,6.091,3.825,6.781,6.557c1.665,6.431-4.304,14.375-13.767,18.326
			c-2.68,1.135-6.538,1.597-8.244,1.051C83.415,124.51,81.344,119.256,83.212,112.867z M182.786,139.348
			c-1.3,0.799-10.396,3.657-16.853,5.296c-4.792,1.219-9.543,2.816-14.01,4.666c-4.67,1.975-10.477,3.825-13.767,4.414
			c-7.391,1.345-11.939,0.547-25.584-4.666c-3.939-1.513-10.234-3.573-14.051-4.582c-10.315-2.732-22.457-6.894-14.7-5.044
			c1.3,0.294,4.345,0.799,6.741,1.093c4.995,0.588,12.63,0.168,23.797-1.345c3.939-0.547,9.99-0.967,15.431-1.093
			c8.244-0.21,9.827-0.126,20.508,1.135c16.568,1.975,25.99,1.892,32.812-0.252C183.476,138.844,183.354,139.012,182.786,139.348z"
			/>
		<path style="fill:#FFFFFF;" d="M130.928,52.003c3.939,1.724,7.228-3.278,4.223-6.389c-2.396-2.522-6.376-0.841-6.376,2.648
			C128.776,50.238,129.385,51.331,130.928,52.003z"/>
		<circle style="fill:#FFFFFF;" cx="97.765" cy="112.866" r="2.686"/>
		<ellipse style="fill:#FFFFFF;" cx="132.552" cy="107.353" rx="2.686" ry="2.686"/>
		<circle style="fill:#FFFFFF;" cx="168.368" cy="113.168" r="2.686"/>
		<path style="fill:#FFFFFF;" d="M84.976,161.203c-3.339,0.974-5.212,2.068-5.212,3.222c0,4.095,23.539,7.415,52.575,7.415
			s52.575-3.319,52.575-7.415c0-1.136-1.815-2.212-5.055-3.175c-8.435-2.506-26.542-4.239-47.521-4.239
			C111.491,157.011,93.477,158.722,84.976,161.203z"/>
	</g>
	<g>
		<rect x="250.908" y="83.402" style="fill:none;" width="555" height="116.265"/>
		<path d="M277.81,173.802c-18.501,0-25.502-7-25.502-13.4c0-5.801,5.501-5.9,5.501-7.4c0-1.3-5.4-4.101-5.4-8.501
			c0-7.1,8.101-9.201,8.101-10.601c0-1.2-6.8-5.8-6.8-13.2c0-12.101,15.101-17.701,25.202-17.701c5.1,0,12,1.9,15.5,1.9
			c7.601,0,11.401-5.3,12.901-5.3c2.3,0,3.3,3,3.3,4.9c0,5.6-5.6,9.601-5.6,10.701c0,1,0.3,2.1,0.3,3.1
			c0,13.501-15.701,18.102-26.702,18.102c-1.7,0-3.4-0.301-5.2-0.301c-1.7,0-2.7,1.101-2.7,2.7c0,3.101,4.4,3.7,6.7,3.7
			c3.1,0,14.701-1.7,18.701-1.7c10.401,0,14.801,5.901,14.801,11.902C310.912,161.702,302.312,173.802,277.81,173.802z
			 M278.81,165.203c3.3,0,10.8-0.501,10.8-5.101c0-2.101-2-3-3.9-3c-1.5,0-5.4,0.6-8.601,0.6c-2.3,0-7.701-0.8-8.801-0.8
			c-0.9,0-1.2,0.899-1.2,1.6C267.11,163.802,274.91,165.203,278.81,165.203z M279.41,110.299c-3.9,0-5.601,3.7-5.601,7.201
			c0,3.8,1,12.101,6.101,12.101c4.5,0,6-3.9,6-7.801C285.91,117.699,285.01,110.299,279.41,110.299z"/>
		<path d="M319.408,123.199c0-9.801-6.2-4.3-6.2-10.401c0-7.9,23.402-10.101,24.301-10.101c3.8,0,3.9,1,4.3,4.4
			c0.101,1.2,0,3.5,1.701,3.5c2.4,0,3.9-7.9,12.5-7.9c6.701,0,11.102,5,11.102,11.601c0,6.7-5.701,12-12.301,12
			c-6.501,0-8.301-5.7-10.901-5.7c-2.8,0-2.3,6.7-2.3,8.5c0,3,0.3,7.2,0.8,11.001c0.601,4.4,8.2,1.699,8.2,7.701
			c0,6.3-8.801,6.8-19.801,6.8c-4.6,0-18.201,0.2-18.201-6.7c0-4.2,4.601-4.2,5.7-7.701c0.8-2.5,1.1-8.201,1.1-11V123.199z"/>
		<path d="M394.209,130.5c-1.1,0-2.7-0.3-2.7,1.4c0,5.001,6.5,9.201,11.2,9.201c7.501,0,11.201-4.501,13.301-4.501
			c2.101,0,3.9,3.101,3.9,5.001c0,7.701-14.101,13.301-23.102,13.301c-18.001,0-27.301-13.001-27.301-25.902
			c0-15.401,13.1-26.602,28.102-26.602c17,0,24.501,13.101,24.501,20.601c0,6.601-3,7.5-6.2,7.5H394.209z M402.909,117.899
			c0-3.6-2.2-6.4-5.9-6.4c-3.3,0-6,3.4-6,6.6c0,3.601,3.399,2.8,6,2.8C399.709,120.899,402.909,121.499,402.909,117.899z"/>
		<path d="M449.908,130.5c-1.1,0-2.7-0.3-2.7,1.4c0,5.001,6.5,9.201,11.2,9.201c7.501,0,11.201-4.501,13.301-4.501
			c2.101,0,3.9,3.101,3.9,5.001c0,7.701-14.101,13.301-23.102,13.301c-18.001,0-27.301-13.001-27.301-25.902
			c0-15.401,13.1-26.602,28.102-26.602c17.001,0,24.501,13.101,24.501,20.601c0,6.601-3,7.5-6.2,7.5H449.908z M458.609,117.899
			c0-3.6-2.2-6.4-5.9-6.4c-3.3,0-6,3.4-6,6.6c0,3.601,3.399,2.8,6,2.8C455.408,120.899,458.609,121.499,458.609,117.899z"/>
		<path d="M509.007,136.8c0,9.702,3.4,8.001,3.4,11.801c0,6.2-13.301,6-17.401,6c-4,0-14.201,0-14.201-6c0-4.8,4.601-0.5,4.9-10.301
			l0.4-15c0.2-7.401-5.9-5-5.9-10.301s23.002-10.301,25.002-10.301c2.2,0,3.6,1.9,3.6,3.9c0,0.6-0.1,1.2-0.1,1.8
			c0,1.2,0.5,2.6,2,2.6c1.6,0,2.5-2.1,4.5-4.2c2-2,5.001-4.101,10.701-4.101c20.701,0,17.201,20.301,18.201,35.502
			c0.5,7.901,4.6,6.101,4.6,10.401c0,1.8,0.4,6-18.4,6c-3.601,0-13.201,0.2-13.201-5.399c0-3.601,3.3-1.9,3.8-8.402
			c0.5-7.1,3.301-23.101-6.1-23.101c-6.4,0-5.801,6.9-5.801,11.401V136.8z"/>
		<path d="M611.708,136.6c0,7.001,5.3,4.7,5.3,9.902c0,7.6-21.901,8.1-23.001,8.1c-5.101,0-1.5-5.5-4.801-5.5
			c-0.899,0-2.399,1.4-4.7,2.9c-2.3,1.4-5.4,2.9-9.8,2.9c-13.102,0-23.302-13.902-23.302-26.203
			c0-13.301,10.801-26.301,24.602-26.301c6.9,0,10.801,3,11.9,3c1.5,0,1.601-3.3,1.601-4.4c0-6.2-7.301-2.9-7.301-8.3
			c0-7.4,25.502-9.301,25.802-9.301c3,0,3.7,2.101,3.7,5.4V136.6z M583.807,113.299c-6.701,0-7.901,11.501-7.901,16.201
			c0,4.701,1.2,12.901,7.401,12.901c6.7,0,6.3-12.301,6.3-16.701C589.607,121.799,589.607,113.299,583.807,113.299z"/>
		<path d="M680.008,136.6c0,7.001,5.3,4.7,5.3,9.902c0,7.6-21.901,8.1-23.001,8.1c-5.101,0-1.5-5.5-4.801-5.5
			c-0.899,0-2.399,1.4-4.7,2.9c-2.3,1.4-5.4,2.9-9.8,2.9c-13.102,0-23.302-13.902-23.302-26.203
			c0-13.301,10.801-26.301,24.602-26.301c6.9,0,10.801,3,11.9,3c1.5,0,1.601-3.3,1.601-4.4c0-6.2-7.301-2.9-7.301-8.3
			c0-7.4,25.502-9.301,25.802-9.301c3,0,3.7,2.101,3.7,5.4V136.6z M652.107,113.299c-6.701,0-7.901,11.501-7.901,16.201
			c0,4.701,1.2,12.901,7.4,12.901c6.701,0,6.301-12.301,6.301-16.701C657.906,121.799,657.906,113.299,652.107,113.299z"/>
		<path d="M716.806,135c0,11.801,5.9,7.5,5.9,12.801c0,6.8-12.701,6.8-17.201,6.8c-17.201,0-17.901-3.899-17.901-6.3
			c0-3.601,4.101-3.801,5.301-6.901c1.3-3.5,1.5-18.001,0.399-21.702c-0.899-3.5-6-2.4-6-6.9c0-7.1,25.401-10.101,26.401-10.101
			c3,0,3.101,2.3,3.101,4.4V135z M697.004,99.498c-4.2,0-8.7-1.9-8.7-6.8c0-6.601,13.201-9.301,18.301-9.301
			c4.001,0,9.701,1.3,9.701,6.301C716.306,97.498,702.705,99.498,697.004,99.498z"/>
		<path d="M756.206,131.9c0,6.7,2.8,8.301,5.5,8.301c3.101,0,4.9-2.3,6.7-2.3c2,0,3.4,2.8,3.4,4.6
			c0,6.601-11.4,12.402-21.501,12.402c-5.101,0-17.901-2.2-17.901-18.102v-20.601c0-1.8,0-2.5-0.5-2.8c-0.5-0.3-1.601-0.1-3.9-0.1
			c-2.6,0-3.9,0.1-4.4-0.4c-0.7-0.7-0.5-1.7-0.5-4c0-1.4-0.3-2.5,0.9-3.3l22.801-14.501c2.301-1.4,2.2-1.1,5.201-1.1
			c4,0,4.2-0.4,4.2,4.2c0,3.1-0.2,6.201,0.3,7.4c0.3,0.8,1,0.8,3.6,0.8h7.001c4.3,0,4.3,0.3,4.3,4.8c0,5.7-0.699,6.1-4.6,6.1h-6.9
			c-3.501,0-3.7,0.1-3.7,3.7V131.9z"/>
	</g>
	
		<ellipse transform="matrix(0.9703 -0.242 0.242 0.9703 -1.111 173.0897)" style="fill:#0DD3BB;" cx="704.174" cy="91.068" rx="16.84" ry="9.068"/>
</g>
<g id="Camada_2">
	<g>
	</g>
	<g>
	</g>
	<g>
	</g>
	<g>
	</g>
	<g>
	</g>
	<g>
	</g>
	<g>
	</g>
	<g>
	</g>
	<g>
	</g>
	<g>
	</g>
	<g>
	</g>
	<g>
	</g>
	<g>
	</g>
	<g>
	</g>
	<g>
	</g>
</g>
</svg>
